<svg width="21" height="21" fill="none" xmlns="http://www.w3.org/2000/svg"><path d="M15.244 17.695H4.836a2.208 2.208 0 0 1-2.117-2.3v-2.51a.627.627 0 1 1 1.255 0v2.51a.97.97 0 0 0 .836 1.045h10.434a.971.971 0 0 0 .837-1.046v-2.51a.627.627 0 1 1 1.255 0v2.51a2.208 2.208 0 0 1-2.092 2.301Z" fill="#C89D6C"/><path d="M10.04 13.512a.621.621 0 0 1-.443-.184L6.25 9.98a.628.628 0 0 1 .887-.887l2.904 2.904 2.903-2.904a.628.628 0 0 1 .887.887l-3.347 3.347a.619.619 0 0 1-.443.184Z" fill="#C89D6C"/><path d="M10.04 13.512a.636.636 0 0 1-.628-.628V3.681a.627.627 0 1 1 1.255 0v9.203a.636.636 0 0 1-.627.628Z" fill="#C89D6C"/></svg>