<svg width="41" height="41" fill="none" xmlns="http://www.w3.org/2000/svg"><rect x=".5" y=".415" width="40" height="40" rx="20" fill="#232323" fill-opacity=".9"/><path d="M27.25 13.805h-13.5a1.549 1.549 0 0 0-1.547 1.547v10.125a1.549 1.549 0 0 0 1.547 1.547h13.5a1.549 1.549 0 0 0 1.547-1.547V15.352a1.549 1.549 0 0 0-1.547-1.547Zm-13.5.844h13.5a.695.695 0 0 1 .664.508v.005L20.5 20.46l-7.415-5.297a.697.697 0 0 1 .665-.513Zm13.5 11.53h-13.5a.704.704 0 0 1-.703-.702V16.17l7.208 5.149c.008.006.018.003.026.008.06.041.135.067.215.07h.007a.417.417 0 0 0 .217-.07h-.002c.008-.005.018-.002.026-.008l7.208-5.149v9.306a.704.704 0 0 1-.703.703h.001Z" fill="#fff"/></svg>