<svg width="41" height="41" fill="none" xmlns="http://www.w3.org/2000/svg"><rect x=".5" y=".415" width="40" height="40" rx="20" fill="#20BC5F"/><path d="M24.436 22.131c-.213-.109-1.274-.629-1.471-.699-.197-.074-.342-.11-.485.11-.144.216-.554.699-.683.845-.125.145-.252.162-.465.055-1.266-.633-2.096-1.129-2.93-2.56-.22-.382.221-.354.633-1.176.07-.145.035-.268-.02-.377-.054-.11-.484-1.168-.663-1.6-.174-.42-.354-.361-.485-.37-.125-.007-.267-.007-.412-.007a.796.796 0 0 0-.574.268c-.197.216-.754.738-.754 1.796 0 1.06.771 2.084.877 2.229.11.145 1.517 2.316 3.68 3.252 1.367.59 1.902.64 2.585.539.417-.063 1.274-.52 1.452-1.025.177-.504.177-.936.125-1.026-.053-.095-.198-.15-.41-.254Z" fill="#fff"/><path d="M28.57 17.024a8.753 8.753 0 0 0-4.68-4.68 8.71 8.71 0 0 0-3.39-.68h-.039a8.73 8.73 0 0 0-8.71 8.792 8.779 8.779 0 0 0 .937 3.904v2.969c0 .496.402.898.898.898h2.97a8.778 8.778 0 0 0 3.905.938h.041c1.17 0 2.305-.227 3.373-.67a8.681 8.681 0 0 0 2.79-1.86 8.73 8.73 0 0 0 2.586-6.182 8.716 8.716 0 0 0-.68-3.43Zm-2.95 8.555a7.227 7.227 0 0 1-5.12 2.101h-.033a7.293 7.293 0 0 1-3.381-.85l-.164-.087h-2.75v-2.75l-.088-.164a7.29 7.29 0 0 1-.85-3.381 7.221 7.221 0 0 1 2.102-5.153 7.211 7.211 0 0 1 5.133-2.146h.033a7.23 7.23 0 0 1 5.14 2.127 7.236 7.236 0 0 1 2.127 5.172 7.238 7.238 0 0 1-2.15 5.13Z" fill="#fff"/></svg>