<svg width="41" height="41" fill="none" xmlns="http://www.w3.org/2000/svg"><rect x=".5" y=".415" width="40" height="40" rx="20" fill="#232323" fill-opacity=".9"/><g clip-path="url(#a)" stroke="#fff" stroke-width="1.125" stroke-miterlimit="10" stroke-linecap="round" stroke-linejoin="round"><path d="M23.706 22.72c.169-.505.169-.9.113-1.012-.056-.112-.169-.112-.394-.225-.225-.112-1.238-.618-1.406-.675-.169-.056-.394-.056-.506.17-.226.28-.394.562-.563.73-.113.113-.337.17-.506.057-.225-.113-.9-.338-1.688-1.013-.619-.562-1.012-1.237-1.181-1.462-.113-.225 0-.338.113-.45l.337-.338c.113-.112.169-.169.225-.337.056-.113 0-.282-.056-.394-.056-.113-.45-1.125-.619-1.519-.113-.281-.225-.281-.45-.281-.056-.056-.169-.056-.225-.056-.281 0-.563.056-.731.28-.225.226-.732.732-.732 1.745 0 1.012.732 2.025.844 2.137.113.113 1.463 2.25 3.544 3.15 1.631.675 2.137.619 2.475.563.563-.17 1.238-.563 1.406-1.07Z"/><path d="M20.5 11.977c-4.669 0-8.438 1.069-8.438 7.313 0 4.05 1.575 5.906 3.938 6.75v2.475c0 .337.394.506.675.28l2.194-2.193H20.5c4.669 0 8.438-1.069 8.438-7.312 0-6.244-3.77-7.313-8.438-7.313Z"/><path d="M20.219 17.715c.731 0 1.293.562 1.293 1.293M20.219 14.227A4.777 4.777 0 0 1 25 19.008M20.219 15.97a3.025 3.025 0 0 1 3.037 3.038"/></g><defs><clipPath id="a"><path fill="#fff" transform="translate(11.5 11.415)" d="M0 0h18v18H0z"/></clipPath></defs></svg>