<svg width="109" height="42" fill="none" xmlns="http://www.w3.org/2000/svg"><path d="M29.866 16.895c-1.302-.906-2.924-1.221-4.489-1.226a11.117 11.117 0 0 0-3.489.582c-.557.197-1.105.422-1.64.674-1.888.907-3.605 2.136-5.17 3.53a41.113 41.113 0 0 1-3.033-3.349 41.811 41.811 0 0 0 2.997-2.533c1.611-1.486 3.266-3.138 3.92-5.306.458-1.446.409-3.012.014-4.469C17.906.695 13.46-.47 10.026 1.57a.041.041 0 0 0-.013.01c-2.075.622-3.249 3.097-3.237 5.607.011 3.009 1.254 5.703 2.951 8.123-.447.34-.906.67-1.37.982-2.57 1.737-5.385 3.07-8.197 4.373a.235.235 0 0 0-.158.227c0 .032.008.065.022.095a.231.231 0 0 0 .128.115c2.79 1.36 5.56 2.776 8.09 4.532.453.315.898.642 1.334.983-1.536 2.213-2.683 4.66-2.877 7.392-.22 2.54.876 5.658 3.309 6.366a.04.04 0 0 0 .022.027 7.507 7.507 0 0 0 2.023.712c3.083.61 6.164-1.013 6.967-4.14a8.573 8.573 0 0 0-.037-4.476 7.783 7.783 0 0 0-1.022-2.04c-.73-1.07-1.598-2-2.523-2.889a42.406 42.406 0 0 0-3.374-2.891 70.609 70.609 0 0 1 1.678-1.95c.44-.48.892-.952 1.36-1.414 1.424 1.276 2.975 2.413 4.677 3.285 1.744.92 3.684 1.507 5.667 1.497 1.756-.007 3.603-.396 4.967-1.56 1.08-.916 1.619-2.253 1.67-3.65-.124-1.603-.869-3.082-2.217-3.99ZM17.644 3.005c.391.584.675 1.233.84 1.916.52 2.043.189 4.3-1.049 6.029-.803 1.16-1.842 2.132-2.887 3.075a41.033 41.033 0 0 1-2.998 2.467c-.255-.32-.507-.644-.755-.97a20.343 20.343 0 0 1-.329-.457c2.335-1.936 5.028-4.103 5.627-7.24.445-2.397-.906-5-3.155-5.976-.96-.407-1.824-.5-2.581-.355C12.769.34 16.074.675 17.644 3.005ZM9.52 13.607c-1.526-2.549-2.589-5.679-1.76-8.633.697-2.422 2.564-3.67 4.998-2.695 2.104.849 3.428 3.259 3.038 5.496-.378 2.314-2.09 4.127-3.778 5.642-.557.487-1.123.968-1.704 1.43-.277-.406-.542-.82-.794-1.24Zm-4.967 9.1A94.692 94.692 0 0 0 .769 20.88a95.642 95.642 0 0 0 3.738-1.913c1.867-1.02 3.692-2.134 5.377-3.437.341.477.7.942 1.07 1.397a36.137 36.137 0 0 1-6.193 3.502 38.2 38.2 0 0 0-.552-.24c-.481-.215-1.058.164-1.05.694a.756.756 0 0 0 1.05.7c.185-.076.37-.16.555-.241a36.34 36.34 0 0 1 6.162 3.488c-.325.398-.64.804-.945 1.217a37.2 37.2 0 0 0-5.428-3.338Zm3.339 14.08c-.445-1.405-.387-2.957-.071-4.388.438-1.913 1.313-3.65 2.397-5.267.555.453 1.098.92 1.63 1.394 2.116 1.893 4.458 4.59 3.57 7.624-.568 2.055-2.598 3.72-4.76 3.45-1.435-.187-2.37-1.485-2.766-2.813Zm6.655-9.042c1.044.947 2.053 1.947 2.87 3.093a7.13 7.13 0 0 1 .978 1.854 8.185 8.185 0 0 1 .131 4.16c-.873 3.713-4.888 4.959-8.156 3.609.481.084.973.084 1.454 0 1.257-.197 2.418-.9 3.229-1.874 1.724-2.033 1.765-4.773.43-7.011-.809-1.399-1.945-2.55-3.14-3.604a31.418 31.418 0 0 0-1.716-1.43c.302-.424.616-.84.94-1.249a35.59 35.59 0 0 1 2.98 2.452Zm-1.325-5.5c-.6.634-1.2 1.29-1.781 1.97a35.654 35.654 0 0 0-5.68-3.33c2-.937 3.91-2.058 5.703-3.347.59.695 1.2 1.36 1.806 2.009.436.453.885.897 1.346 1.328-.48.444-.944.9-1.394 1.37Zm14.521 3.426c-1.696.378-3.488.234-5.143-.262-2.017-.66-3.849-1.801-5.491-3.13a28.634 28.634 0 0 1-1.579-1.388c1.336-1.272 2.784-2.424 4.392-3.325 1-.56 2.064-1.057 3.179-1.34 2.209-.546 4.738-.505 6.695.774 1.332.866 2.062 2.325 2.196 3.883-.108 2.597-1.78 4.25-4.249 4.788Z" fill="#C89D6C"/><path d="M40.153 17.875c0 2.075.581 3.005 2.87 3.005 1.086 0 1.706-.562 1.706-1.687v-.155h-.174v.155c0 1.009-.582 1.494-1.36 1.494-1.144 0-1.299-1.183-1.299-2.463V6.103h-3.412v.193h1.669v11.579ZM52.127 20.881c1.746 0 3.374-.445 4.596-1.765l-.097-.075c-1.124 1.125-2.773 1.609-4.208 1.609-2.735 0-4.596-1.803-4.596-5.003 1.28.698 2.579 1.125 4.422 1.125 3.005 0 4.944-1.145 4.944-2.928 0-1.784-1.977-3.103-5.119-3.103-3.82 0-6.225 1.92-6.225 4.986 0 3.254 2.737 5.154 6.283 5.154Zm-.174-9.967c2.266 0 3.374 1.454 3.374 2.967 0 1.784-1.396 2.695-3.336 2.695-1.416 0-2.928-.465-4.17-1.125.059-2.792 1.61-4.537 4.132-4.537ZM73.073 6.103H67.07v.193h2.04v14.393h-2.04v.194h5.914v-.194H70.93v-7.334h2.143c3.936 0 6.884-.658 6.884-3.645 0-2.811-2.948-3.607-6.884-3.607Zm-.175 7.077H70.93V6.297h1.987c3.551 0 5.023 1.029 5.023 3.414 0 2.405-1.532 3.47-5.042 3.47ZM86.078 20.881c2.578 0 4.014-1.163 4.73-3.335v1.047c0 1.687 1.087 2.288 2.774 2.288 1.26 0 1.784-.62 1.784-1.686v-.155h-.193v.155c0 .988-.563 1.493-1.32 1.493-1.202 0-1.338-1.222-1.338-2.463v-2.424c0-3.49-2.56-5.062-5.293-5.062-.338.005-.675.03-1.009.075-1.842.233-3.626 1.047-3.626 2.133a.958.958 0 0 0 .973.954.929.929 0 0 0 .95-.95c0-.543-.407-.95-1.105-.95.776-.563 1.706-.912 2.795-1.029.233-.019.446-.038.659-.038 2.812 0 3.956 2.094 3.956 4.673v.485c-1.086-.912-2.25-1.377-3.917-1.455-.194-.019-.407-.019-.64-.019-1.978 0-4.848.68-4.848 3.16-.006 2.115 2.03 3.104 4.668 3.104Zm.62-6.011c1.454-.058 2.928.388 4.092 1.416-.117 2.637-1.998 4.382-4.307 4.382-2.133 0-3.103-1.396-3.103-2.85.002-1.436.913-2.85 3.318-2.95v.002ZM107.411 20.69l-4.305-5.414 4.092-4.169h1.454v-.194h-3.355v.194h1.629l-3.936 4.014-3.356-4.014h1.571v-.194h-4.847v.194h1.221l4.131 5.023-4.305 4.56h-1.28v.194h2.986v-.194h-1.435l4.169-4.444 3.53 4.444h-1.978v.194h5.604v-.194h-1.59ZM44.614 31.468a1.848 1.848 0 0 0 .431-1.947 1.813 1.813 0 0 0-.948-1.058 1.98 1.98 0 0 0-.881-.178 1.974 1.974 0 0 0-1.345.484 1.827 1.827 0 0 0-.412.524c-.104.197-.172.41-.203.63h-.635v-1.577h-.469v3.615h.469v-1.807h.635c-.001.294.063.584.188.85a1.754 1.754 0 0 0 1.083.913c.224.07.457.105.692.106.268.003.533-.049.78-.15.23-.094.439-.232.615-.405Zm-1.398.329a1.467 1.467 0 0 1-.944-.371 1.6 1.6 0 0 1-.365-.512 1.797 1.797 0 0 1-.15-.765 1.777 1.777 0 0 1 .15-.762c.087-.191.21-.364.365-.506.137-.124.297-.22.472-.28.3-.117.634-.117.935 0 .172.06.33.154.465.278.153.143.276.315.36.506.194.492.194 1.04 0 1.531a1.587 1.587 0 0 1-.36.513 1.329 1.329 0 0 1-.465.283 1.422 1.422 0 0 1-.463.085ZM47.416 32.023c.163.002.325-.03.474-.096a1.08 1.08 0 0 0 .378-.27c.11-.124.193-.269.246-.425a1.795 1.795 0 0 0 0-1.113 1.31 1.31 0 0 0-.246-.427 1.073 1.073 0 0 0-.378-.275 1.159 1.159 0 0 0-.474-.096c-.41 0-.68.159-.807.477h-.02v-.419h-.439v3.877h.44V31.54h.019a.69.69 0 0 0 .33.373.885.885 0 0 0 .228.083c.081.018.165.026.249.026Zm-.61-.5a.9.9 0 0 1-.158-.28 1.125 1.125 0 0 1-.059-.379v-.453c0-.11.018-.22.055-.324a.795.795 0 0 1 .15-.264.73.73 0 0 1 .228-.176.63.63 0 0 1 .282-.065c.105 0 .209.02.306.06.1.04.188.105.256.188.08.1.138.214.172.336.047.162.068.33.065.498.003.17-.018.34-.065.503a.96.96 0 0 1-.174.338.66.66 0 0 1-.256.191.8.8 0 0 1-.302.06.653.653 0 0 1-.5-.232ZM51.358 31.96h.439V29.38h-.517l-1.316 2.276V29.38h-.439v2.581h.517l1.316-2.262v2.262ZM55.153 32.502h.36v-.749h-.36l-.99-2.374h-.31l-.966 2.374h-.373v.75h.362v-.543h2.277v.542Zm-2.02-.749.756-1.863h.034l.768 1.863h-1.557ZM58.065 31.96h.44V29.38h-.518l-1.316 2.276V29.38h-.439v2.581h.517l1.316-2.262v2.262ZM60.921 30.68a2.385 2.385 0 0 1-.249.05l-.151.023a.976.976 0 0 1-.132.01.7.7 0 0 1-.303-.05.41.41 0 0 1-.15-.117.303.303 0 0 1-.061-.145 1.085 1.085 0 0 1-.01-.127v-.955h-.437v.955c0 .043 0 .1.011.174a.529.529 0 0 0 .278.411c.124.06.261.089.399.081a2.585 2.585 0 0 0 .8-.136v1.094h.439v-2.58h-.439l.005 1.312ZM64.224 31.906c.182-.077.346-.19.48-.334l-.162-.164-.2.17a1.13 1.13 0 0 1-.395.212.887.887 0 0 1-.233.029 1.174 1.174 0 0 1-.307-.044.807.807 0 0 1-.533-.473 1.24 1.24 0 0 1-.093-.517h1.949v-.108a1.668 1.668 0 0 0-.098-.599 1.083 1.083 0 0 0-.65-.666 1.318 1.318 0 0 0-.463-.08 1.303 1.303 0 0 0-.488.088c-.147.059-.28.148-.389.262-.114.121-.202.263-.259.419a1.545 1.545 0 0 0-.094.556c0 .171.028.34.081.503.052.16.135.31.244.438.114.133.256.239.415.31.186.083.389.123.592.118.207.001.412-.04.603-.12Zm-1.4-1.73c.027-.12.072-.236.134-.342a.724.724 0 0 1 .227-.241.593.593 0 0 1 .33-.091.655.655 0 0 1 .569.286c.136.19.204.453.204.788h-1.505a1.779 1.779 0 0 1 .042-.4ZM67.71 31.468a1.368 1.368 0 0 1-.36.22 1.142 1.142 0 0 1-.749.014.818.818 0 0 1-.521-.52 1.462 1.462 0 0 1-.076-.515 1.436 1.436 0 0 1 .089-.536 1.04 1.04 0 0 1 .219-.353.806.806 0 0 1 .29-.192.888.888 0 0 1 .303-.06.7.7 0 0 1 .41.126c.11.072.191.179.233.302h.357a.703.703 0 0 0-.165-.308.948.948 0 0 0-.262-.196c-.1-.05-.205-.084-.315-.103a1.94 1.94 0 0 0-.322-.029 1.459 1.459 0 0 0-.573.106 1.193 1.193 0 0 0-.674.712 1.537 1.537 0 0 0-.086.518c-.002.184.03.366.094.539a1.243 1.243 0 0 0 .681.722c.174.072.36.108.549.106.204.004.407-.035.596-.114a2.16 2.16 0 0 0 .43-.244l-.149-.195ZM71.067 31.96v-.206l-.147.005a.274.274 0 0 1-.13-.037.759.759 0 0 1-.136-.096 1.637 1.637 0 0 1-.25-.266l-.676-.882 1.049-1.094h-.325l-1.284 1.331v-1.331h-.44v2.576h.44v-.907l.284-.302.64.843c.043.052.085.103.129.15.043.052.09.098.143.139.051.04.108.074.168.099a.51.51 0 0 0 .193.036.809.809 0 0 0 .182-.02c.062-.01.112-.024.16-.038ZM74.267 31.186a1.474 1.474 0 0 0 0-1.026 1.284 1.284 0 0 0-.686-.73 1.308 1.308 0 0 0-.55-.111 1.308 1.308 0 0 0-.984.41 1.406 1.406 0 0 0 0 1.884c.118.127.263.228.423.297.177.076.368.114.56.112.19.003.377-.035.551-.11a1.26 1.26 0 0 0 .686-.726Zm-.477.068c-.04.13-.11.25-.202.349a.642.642 0 0 1-.274.168.973.973 0 0 1-.577 0 .664.664 0 0 1-.277-.168.884.884 0 0 1-.207-.35 2.18 2.18 0 0 1 0-1.165.895.895 0 0 1 .207-.349.652.652 0 0 1 .277-.17c.188-.059.39-.059.577 0 .105.033.199.091.274.17.092.1.161.22.202.35.103.38.103.783 0 1.165ZM77.546 31.572l-.162-.164c-.072.062-.14.119-.202.17a1.105 1.105 0 0 1-.393.21.887.887 0 0 1-.233.028 1.179 1.179 0 0 1-.307-.044.808.808 0 0 1-.533-.473 1.24 1.24 0 0 1-.093-.516h1.948v-.109a1.668 1.668 0 0 0-.097-.599 1.084 1.084 0 0 0-.65-.666 1.32 1.32 0 0 0-.464-.08 1.301 1.301 0 0 0-.487.088c-.147.059-.28.148-.39.262-.113.121-.201.264-.258.42a1.545 1.545 0 0 0-.094.555c0 .171.027.34.08.503.053.16.136.31.245.439.114.132.255.238.415.31.186.082.388.122.592.117.207.002.413-.037.604-.117.182-.077.345-.19.48-.334Zm-1.88-1.395c.027-.12.072-.237.134-.343a.724.724 0 0 1 .226-.241.593.593 0 0 1 .331-.091.655.655 0 0 1 .568.286c.136.19.204.453.204.788h-1.51c0-.134.016-.268.048-.4ZM80.666 31.496c.11.157.256.285.426.374.224.11.471.162.72.151a1.32 1.32 0 0 0 .592-.122 1.17 1.17 0 0 0 .401-.317c.104-.13.181-.28.227-.44a1.639 1.639 0 0 0 0-.978 1.215 1.215 0 0 0-.227-.425 1.174 1.174 0 0 0-.398-.302 1.34 1.34 0 0 0-.585-.117 1.41 1.41 0 0 0-.422.058 1.223 1.223 0 0 0-.326.15 1.048 1.048 0 0 0-.39.473h-.019v-.024a1.605 1.605 0 0 1 .113-.605.993.993 0 0 1 .298-.424.93.93 0 0 1 .454-.187c.175-.02.352-.03.528-.028h.636l.278-.389h-.719c-.147 0-.294.004-.439.012a1.696 1.696 0 0 0-.417.075 1.292 1.292 0 0 0-.378.19c-.13.097-.237.22-.317.36a1.531 1.531 0 0 0-.16.363c-.038.123-.066.25-.084.377a3.33 3.33 0 0 0-.03.372c-.005.122-.006.237-.006.344v.139c.002.15.02.3.051.447.033.169.099.33.193.473Zm.302-1.331c.034-.13.093-.253.175-.36a.71.71 0 0 1 .266-.21.812.812 0 0 1 .334-.068c.075.002.149.01.222.021a.64.64 0 0 1 .289.13c.112.092.199.21.253.343.082.211.12.437.109.663.006.197-.023.392-.085.579a.95.95 0 0 1-.21.343.664.664 0 0 1-.263.166.827.827 0 0 1-.244.044 1.053 1.053 0 0 1-.294-.046.735.735 0 0 1-.296-.175.976.976 0 0 1-.226-.346 1.497 1.497 0 0 1-.091-.565c-.004-.175.016-.35.059-.519h.002ZM87.21 29.718a1.247 1.247 0 0 0-.42-.291 1.408 1.408 0 0 0-.558-.106 1.515 1.515 0 0 0-.513.086 1.186 1.186 0 0 0-.705.632 1.246 1.246 0 0 0-.114.515h-.429v-1.17h-.438v2.581h.438v-1.237h.429a1.478 1.478 0 0 0 .374.875c.116.126.254.229.409.303.171.08.36.12.55.117.193.003.385-.033.565-.106a1.19 1.19 0 0 0 .419-.292 1.29 1.29 0 0 0 .261-.436 1.56 1.56 0 0 0 .092-.543c0-.173-.031-.344-.094-.505-.06-.157-.151-.301-.267-.423Zm-.174 1.34c-.024.131-.069.259-.133.377a.772.772 0 0 1-.258.276.746.746 0 0 1-.41.105.971.971 0 0 1-.289-.046.635.635 0 0 1-.273-.177.994.994 0 0 1-.204-.358c-.059-.19-.086-.39-.08-.589a1.738 1.738 0 0 1 .093-.637.808.808 0 0 1 .226-.333.57.57 0 0 1 .275-.128 1.72 1.72 0 0 1 .252-.021c.098 0 .195.013.29.039a.632.632 0 0 1 .273.158.846.846 0 0 1 .201.34c.056.187.082.382.076.577 0 .14-.013.279-.039.416ZM90.94 30.677a1.653 1.653 0 0 0-.088-.558 1.313 1.313 0 0 0-.247-.427 1.074 1.074 0 0 0-.377-.275 1.152 1.152 0 0 0-.474-.096c-.41 0-.68.159-.807.477h-.02v-.419h-.439v3.877h.439V31.54h.02a.694.694 0 0 0 .33.378.907.907 0 0 0 .227.082c.241.052.493.028.72-.07a1.08 1.08 0 0 0 .378-.27c.11-.124.194-.268.246-.425.063-.18.094-.369.092-.559Zm-.556.493a.96.96 0 0 1-.175.338.66.66 0 0 1-.257.191.8.8 0 0 1-.302.06.65.65 0 0 1-.501-.235.897.897 0 0 1-.157-.282 1.1 1.1 0 0 1-.06-.378v-.453c0-.11.017-.22.054-.324a.793.793 0 0 1 .151-.264.735.735 0 0 1 .227-.176.632.632 0 0 1 .282-.065c.106 0 .21.02.307.06.1.04.188.105.256.188.079.1.138.214.173.336.045.162.067.33.064.498.004.17-.017.341-.062.506ZM94.029 29.73a1.304 1.304 0 0 0-.97-.41 1.359 1.359 0 0 0-.56.113 1.293 1.293 0 0 0-.693.729 1.416 1.416 0 0 0 0 1.02c.062.16.153.307.27.433.118.127.262.228.422.297.177.076.369.114.561.111a1.34 1.34 0 0 0 .55-.108c.16-.068.302-.169.42-.295.117-.125.207-.272.267-.432.122-.331.122-.695 0-1.026-.06-.16-.15-.307-.267-.431Zm-.211 1.526c-.04.13-.11.25-.202.349a.643.643 0 0 1-.273.168.973.973 0 0 1-.577 0 .668.668 0 0 1-.278-.168.893.893 0 0 1-.207-.35 2.182 2.182 0 0 1 0-1.165.909.909 0 0 1 .207-.349.658.658 0 0 1 .278-.17c.187-.059.389-.059.577 0 .104.033.198.091.273.17.093.1.162.22.202.35a2.2 2.2 0 0 1 0 1.165ZM42.817 34.977h-.26l-1.936 2.035v-2.035h-.469v3.616h.469v-1.27l.584-.626 1.373 1.896h.536l-1.61-2.216 1.313-1.4ZM45.789 36.337a.705.705 0 0 0-.307-.278 1.343 1.343 0 0 0-.595-.106 1.67 1.67 0 0 0-.386.039 1.242 1.242 0 0 0-.277.1.83.83 0 0 0-.196.14 3.718 3.718 0 0 0-.151.156l.267.265c.044-.074.092-.145.144-.213a.808.808 0 0 1 .158-.159.667.667 0 0 1 .194-.1.81.81 0 0 1 .254-.036c.223 0 .377.068.461.206.085.137.127.347.127.628v.22a.905.905 0 0 0-.343-.255 1.102 1.102 0 0 0-.854-.008.921.921 0 0 0-.492 1.16.83.83 0 0 0 .452.481.92.92 0 0 0 .39.076c.159 0 .317-.03.466-.086.142-.05.273-.128.383-.23v.253h.438v-1.407c0-.155-.005-.306-.016-.453a.915.915 0 0 0-.117-.393Zm-.307 1.63a.84.84 0 0 1-.473.444.588.588 0 0 1-.2.036.646.646 0 0 1-.633-.66.769.769 0 0 1 .178-.496.629.629 0 0 1 .21-.155c.085-.04.18-.061.274-.06a.574.574 0 0 1 .26.054.705.705 0 0 1 .186.132c.048.047.09.1.126.159.029.046.054.095.075.145l-.003.402ZM49.097 36.324a1.074 1.074 0 0 0-.377-.275 1.15 1.15 0 0 0-.474-.096c-.41 0-.679.159-.807.476h-.02v-.418h-.438v3.876h.438v-1.713h.02a.71.71 0 0 0 .33.378.907.907 0 0 0 .227.082 1.2 1.2 0 0 0 .72-.07c.145-.061.273-.154.378-.27.11-.124.194-.269.247-.425a1.797 1.797 0 0 0 0-1.113 1.303 1.303 0 0 0-.244-.432Zm-.221 1.477a.96.96 0 0 1-.175.339.67.67 0 0 1-.256.191.801.801 0 0 1-.303.059.644.644 0 0 1-.501-.235.89.89 0 0 1-.157-.282 1.102 1.102 0 0 1-.06-.377v-.45c0-.11.018-.22.054-.325a.749.749 0 0 1 .378-.44.643.643 0 0 1 .283-.064c.105 0 .209.02.306.06.1.04.188.105.256.188.08.1.138.214.173.336.046.162.068.33.064.498a1.7 1.7 0 0 1-.062.503ZM50.796 38.288v-2.276h-.439v2.58h.518l1.315-2.26v2.26h.44v-2.58h-.518l-1.316 2.276ZM55.455 37.184H54.15v-1.172h-.438v2.58h.438V37.36h1.306v1.233h.439v-2.581h-.439v1.172ZM58.68 37.285a1.128 1.128 0 0 0-.346-.084 3.863 3.863 0 0 0-.302-.016h-.62v-1.171h-.44v2.576h1.36a.856.856 0 0 0 .276-.046.71.71 0 0 0 .408-.353.613.613 0 0 0 .065-.284.644.644 0 0 0-.116-.409.697.697 0 0 0-.286-.213Zm-.227.995a.554.554 0 0 1-.354.121h-.68V37.36h.593c.03 0 .075 0 .145.01a.524.524 0 0 1 .377.23.55.55 0 0 1 .076.314.437.437 0 0 1-.155.365h-.002ZM60.066 36.012h-.441v2.581h.441v-2.581ZM63.418 38.593h.468v-3.33h2.163v3.33h.472v-3.616h-3.103v3.616ZM69.659 36.337a.71.71 0 0 0-.308-.278 1.344 1.344 0 0 0-.595-.106 1.67 1.67 0 0 0-.386.039c-.096.023-.19.056-.277.1a.823.823 0 0 0-.196.14 3.224 3.224 0 0 0-.151.156l.267.265c.043-.074.092-.145.144-.213a.682.682 0 0 1 .352-.26.804.804 0 0 1 .253-.035c.225 0 .379.068.463.206.084.137.126.347.126.628v.22a.895.895 0 0 0-.343-.255 1.102 1.102 0 0 0-.854-.008.92.92 0 0 0-.492 1.16.832.832 0 0 0 .452.481.92.92 0 0 0 .39.076c.159 0 .317-.03.466-.086.142-.05.273-.128.382-.23v.253h.44v-1.407c0-.155-.006-.306-.017-.453a.918.918 0 0 0-.116-.393Zm-.31 1.63a.841.841 0 0 1-.472.444.588.588 0 0 1-.416-.005.631.631 0 0 1-.36-.333.766.766 0 0 1 .119-.783.633.633 0 0 1 .21-.154c.086-.04.18-.061.275-.06a.577.577 0 0 1 .26.054.707.707 0 0 1 .185.132c.049.047.091.1.127.159.029.046.054.094.075.145l-.003.402ZM72.912 38.354a.806.806 0 0 1-.136-.096 1.834 1.834 0 0 1-.25-.266l-.68-.882 1.049-1.094h-.326l-1.284 1.331v-1.33h-.44v2.573h.44v-.907l.285-.302.64.842.129.156c.043.05.09.097.143.138.051.04.108.074.168.098a.497.497 0 0 0 .192.037.764.764 0 0 0 .182-.022c.059-.014.11-.028.156-.041v-.203l-.146.005a.271.271 0 0 1-.122-.037ZM74.604 36.411a.792.792 0 0 1 .29-.191.879.879 0 0 1 .303-.06.699.699 0 0 1 .413.125.58.58 0 0 1 .232.303h.358a.707.707 0 0 0-.165-.309.937.937 0 0 0-.263-.195c-.099-.05-.205-.085-.315-.104a1.932 1.932 0 0 0-.32-.029 1.459 1.459 0 0 0-.574.106 1.23 1.23 0 0 0-.419.288 1.208 1.208 0 0 0-.256.425 1.552 1.552 0 0 0-.085.517c-.002.184.03.366.093.539a1.244 1.244 0 0 0 .682.722c.173.073.36.109.548.106.205.004.408-.034.597-.113a2.2 2.2 0 0 0 .43-.245L76 38.099c-.108.09-.229.165-.36.22a1.15 1.15 0 0 1-.749.014.825.825 0 0 1-.306-.184.88.88 0 0 1-.214-.336c-.11-.342-.107-.71.008-1.05.05-.131.127-.25.224-.352ZM78.877 36.337a.703.703 0 0 0-.307-.278 1.345 1.345 0 0 0-.596-.106c-.13-.002-.26.011-.386.039a1.239 1.239 0 0 0-.276.1.843.843 0 0 0-.197.14 3.599 3.599 0 0 0-.151.156l.267.265a2.26 2.26 0 0 1 .143-.213.827.827 0 0 1 .158-.159.677.677 0 0 1 .194-.1.811.811 0 0 1 .254-.036c.224 0 .378.068.462.206.085.137.127.347.127.628v.22a.9.9 0 0 0-.344-.255 1.1 1.1 0 0 0-.853-.008.897.897 0 0 0-.486.511.93.93 0 0 0-.006.65.833.833 0 0 0 .452.48.925.925 0 0 0 .39.076c.16 0 .318-.03.467-.086.142-.05.272-.128.382-.23v.253h.439v-1.407c0-.155-.005-.306-.016-.453a.907.907 0 0 0-.117-.393Zm-.31 1.63a.842.842 0 0 1-.472.444.585.585 0 0 1-.416-.005.636.636 0 0 1-.358-.333.642.642 0 0 1-.06-.286c0-.092.015-.183.047-.27a.633.633 0 0 1 .341-.381.623.623 0 0 1 .274-.06c.09-.002.179.016.26.054.069.034.131.079.185.132.05.047.092.1.127.159.03.046.055.094.076.145l-.003.402ZM83.178 38.386h-1.116v-2.374h-.438v2.374h-1.115v-2.374h-.439v2.58h3.553v-2.58h-.445v2.374ZM86.55 37.382a.791.791 0 0 0-.247-.106 1.274 1.274 0 0 0-.24-.036v-.035c.07-.014.14-.036.206-.064a.637.637 0 0 0 .184-.12.524.524 0 0 0 .179-.402.74.74 0 0 0-.026-.176.479.479 0 0 0-.114-.2.673.673 0 0 0-.256-.163 1.236 1.236 0 0 0-.446-.066h-1.08v2.576h1.168c.147.004.292-.016.432-.058a.872.872 0 0 0 .293-.155.55.55 0 0 0 .16-.217.665.665 0 0 0 .047-.25.653.653 0 0 0-.076-.325.567.567 0 0 0-.183-.203Zm-1.402-1.164h.511a.634.634 0 0 1 .281.052c.063.029.118.071.162.124a.39.39 0 0 1 .075.151.618.618 0 0 1 .02.142.438.438 0 0 1-.182.365.603.603 0 0 1-.192.099.747.747 0 0 1-.227.033h-.448v-.966Zm1.115 1.96a.494.494 0 0 1-.194.15.717.717 0 0 1-.226.055 3.296 3.296 0 0 1-.161.007h-.534v-1.03h.453c.055 0 .125 0 .21.01a.749.749 0 0 1 .243.062c.08.036.151.09.205.16a.47.47 0 0 1 .085.297.448.448 0 0 1-.084.288h.003ZM88.182 38.288v-2.276h-.438v2.58h.517l1.315-2.26v2.26h.44v-2.58h-.518l-1.316 2.276ZM92.27 36.011l-.786 1.946-.056.133a1.034 1.034 0 0 1-.075.141.45.45 0 0 1-.096.11.183.183 0 0 1-.117.045.32.32 0 0 1-.151-.041.643.643 0 0 1-.123-.083l-.083.273c.093.08.213.122.336.116.06 0 .119-.01.175-.03a.377.377 0 0 0 .145-.103.95.95 0 0 0 .132-.196c.051-.1.097-.202.138-.307l.592-1.492h.03l.832 2.067h.464l-1.046-2.58-.31.002ZM94.84 38.288v-2.276h-.44v2.58h.517l1.316-2.26v2.26h.44v-2.58h-.518l-1.316 2.276Z" fill="#232323"/></svg>