<svg width="312" height="179" fill="none" xmlns="http://www.w3.org/2000/svg"><g filter="url(#a)"><rect x="17" y="13.414" width="278" height="137.653" rx="10" fill="#fff"/><g clip-path="url(#b)"><path d="M66.866 48.722c-1.302-.906-2.924-1.221-4.489-1.226a11.12 11.12 0 0 0-3.489.582c-.557.197-1.105.421-1.64.674-1.888.906-3.605 2.136-5.17 3.53a41.113 41.113 0 0 1-3.033-3.349 41.812 41.812 0 0 0 2.997-2.533c1.611-1.486 3.267-3.138 3.92-5.306.458-1.446.409-3.013.014-4.47-1.07-4.102-5.515-5.267-8.95-3.227a.042.042 0 0 0-.013.01c-2.075.622-3.249 3.097-3.237 5.607.011 3.008 1.254 5.703 2.951 8.122-.447.341-.906.67-1.37.982-2.57 1.738-5.385 3.07-8.197 4.373a.237.237 0 0 0-.136.322.231.231 0 0 0 .128.115c2.79 1.36 5.56 2.777 8.09 4.533.453.315.898.642 1.334.982-1.536 2.214-2.682 4.66-2.877 7.392-.22 2.541.876 5.658 3.309 6.367a.04.04 0 0 0 .022.026 7.503 7.503 0 0 0 2.023.712c3.083.61 6.164-1.012 6.967-4.14a8.573 8.573 0 0 0-.037-4.475 7.784 7.784 0 0 0-1.022-2.04c-.73-1.07-1.598-2-2.523-2.889a42.406 42.406 0 0 0-3.374-2.891 70.609 70.609 0 0 1 1.678-1.95c.44-.481.893-.953 1.36-1.414 1.424 1.276 2.975 2.413 4.678 3.284 1.742.921 3.683 1.508 5.666 1.498 1.756-.007 3.603-.397 4.967-1.561 1.08-.915 1.619-2.252 1.67-3.648-.124-1.604-.869-3.083-2.217-3.992Zm-12.222-13.89c.391.584.675 1.232.84 1.915.52 2.044.189 4.3-1.049 6.03-.803 1.159-1.842 2.132-2.887 3.074a41.007 41.007 0 0 1-2.998 2.468c-.255-.321-.507-.645-.755-.97a20.343 20.343 0 0 1-.329-.457c2.335-1.936 5.028-4.104 5.627-7.24.445-2.398-.906-5-3.155-5.977-.96-.407-1.824-.499-2.581-.355 2.412-1.153 5.717-.818 7.287 1.512ZM46.52 45.433c-1.526-2.548-2.589-5.678-1.76-8.632.697-2.422 2.564-3.671 4.998-2.696 2.104.85 3.428 3.26 3.038 5.497-.378 2.314-2.09 4.126-3.778 5.642-.557.487-1.123.968-1.703 1.43-.278-.407-.543-.82-.795-1.24Zm-4.967 9.101a94.737 94.737 0 0 0-3.784-1.829 95.493 95.493 0 0 0 3.738-1.913c1.867-1.019 3.692-2.133 5.377-3.437.341.477.7.943 1.07 1.397a36.139 36.139 0 0 1-6.193 3.502 38.792 38.792 0 0 0-.552-.24c-.481-.215-1.058.165-1.05.694a.755.755 0 0 0 1.05.7c.185-.075.37-.159.555-.24a36.342 36.342 0 0 1 6.162 3.488c-.325.398-.64.803-.946 1.217a37.206 37.206 0 0 0-5.427-3.339Zm3.339 14.08c-.445-1.405-.387-2.958-.072-4.388.44-1.913 1.314-3.65 2.398-5.267.555.453 1.098.92 1.63 1.393 2.116 1.894 4.458 4.591 3.57 7.624-.568 2.055-2.598 3.721-4.76 3.45-1.435-.186-2.37-1.484-2.767-2.812Zm6.655-9.042c1.044.947 2.053 1.946 2.87 3.093.416.566.745 1.19.978 1.853a8.185 8.185 0 0 1 .131 4.161c-.873 3.713-4.888 4.959-8.156 3.608.481.085.973.085 1.454 0 1.257-.196 2.418-.9 3.229-1.873 1.724-2.033 1.765-4.773.43-7.011-.808-1.399-1.945-2.55-3.14-3.604a31.417 31.417 0 0 0-1.716-1.43c.302-.425.616-.84.94-1.25a35.57 35.57 0 0 1 2.98 2.453Zm-1.325-5.5c-.6.634-1.2 1.29-1.781 1.97a35.659 35.659 0 0 0-5.68-3.33 35.83 35.83 0 0 0 5.703-3.347c.59.694 1.2 1.36 1.806 2.008.436.454.885.898 1.346 1.329-.48.444-.944.9-1.394 1.37Zm14.521 3.425c-1.696.378-3.488.235-5.143-.261-2.017-.66-3.849-1.802-5.491-3.13a28.636 28.636 0 0 1-1.578-1.389c1.334-1.271 2.783-2.423 4.391-3.324 1-.56 2.064-1.058 3.179-1.34 2.209-.546 4.738-.505 6.695.773 1.332.866 2.062 2.325 2.196 3.884-.108 2.596-1.78 4.249-4.249 4.787Z" fill="#C89D6C"/><path d="M77.153 49.702c0 2.074.581 3.005 2.87 3.005 1.086 0 1.706-.562 1.706-1.687v-.155h-.174v.155c0 1.009-.582 1.494-1.36 1.494-1.144 0-1.299-1.184-1.299-2.463V37.929h-3.412v.194h1.669v11.579ZM89.127 52.708c1.746 0 3.374-.446 4.596-1.765l-.097-.076c-1.125 1.125-2.773 1.61-4.208 1.61-2.735 0-4.596-1.804-4.596-5.003 1.28.698 2.579 1.125 4.422 1.125 3.005 0 4.945-1.145 4.945-2.929 0-1.784-1.978-3.103-5.12-3.103-3.82 0-6.225 1.92-6.225 4.987 0 3.254 2.737 5.154 6.283 5.154Zm-.174-9.968c2.266 0 3.374 1.455 3.374 2.967 0 1.785-1.396 2.696-3.336 2.696-1.415 0-2.928-.465-4.17-1.125.059-2.792 1.61-4.538 4.132-4.538ZM110.073 37.93h-6.003v.193h2.04v14.392h-2.04v.194h5.914v-.194h-2.055v-7.333h2.144c3.936 0 6.884-.659 6.884-3.645 0-2.812-2.948-3.608-6.884-3.608Zm-.175 7.077h-1.969v-6.883h1.988c3.551 0 5.023 1.028 5.023 3.413 0 2.405-1.532 3.471-5.042 3.471v-.001ZM123.078 52.708c2.578 0 4.014-1.163 4.731-3.335v1.047c0 1.687 1.086 2.288 2.773 2.288 1.26 0 1.784-.62 1.784-1.687v-.155h-.193v.155c0 .99-.563 1.494-1.32 1.494-1.202 0-1.338-1.222-1.338-2.463v-2.425c0-3.49-2.559-5.062-5.293-5.062-.338.006-.675.031-1.009.076-1.842.233-3.627 1.047-3.627 2.133a.956.956 0 0 0 .974.953.928.928 0 0 0 .951-.95c0-.543-.408-.95-1.106-.95.776-.563 1.706-.912 2.795-1.028.233-.019.446-.039.659-.039 2.812 0 3.956 2.095 3.956 4.674v.484c-1.086-.91-2.249-1.376-3.917-1.454-.194-.019-.407-.019-.64-.019-1.978 0-4.848.68-4.848 3.16-.006 2.114 2.03 3.103 4.668 3.103Zm.62-6.011c1.454-.059 2.928.388 4.092 1.415-.117 2.638-1.998 4.382-4.307 4.382-2.133 0-3.102-1.396-3.102-2.85.001-1.435.912-2.85 3.317-2.95v.003ZM144.411 52.517l-4.305-5.414 4.092-4.17h1.454v-.193h-3.355v.194h1.629l-3.936 4.014-3.356-4.014h1.571v-.194h-4.847v.194h1.221l4.131 5.023-4.305 4.56h-1.28v.194h2.986v-.194h-1.435l4.169-4.444 3.53 4.444h-1.978v.194h5.604v-.194h-1.59ZM81.614 63.295a1.849 1.849 0 0 0 .431-1.947 1.815 1.815 0 0 0-.948-1.058 1.98 1.98 0 0 0-.881-.178 1.976 1.976 0 0 0-1.345.483 1.828 1.828 0 0 0-.412.525c-.104.197-.172.41-.203.63h-.635v-1.578h-.469v3.615h.469v-1.806h.635c-.001.293.063.583.188.849a1.754 1.754 0 0 0 1.083.914c.224.07.457.105.692.106.268.002.533-.049.78-.151.23-.094.439-.23.615-.404Zm-1.398.328a1.464 1.464 0 0 1-.944-.37 1.6 1.6 0 0 1-.365-.513 1.796 1.796 0 0 1-.15-.765 1.776 1.776 0 0 1 .15-.761c.087-.192.21-.364.365-.506.137-.124.297-.22.472-.281.3-.116.634-.116.935 0 .172.06.33.155.465.279.153.142.276.314.36.506.194.492.194 1.039 0 1.531a1.587 1.587 0 0 1-.36.512 1.33 1.33 0 0 1-.465.284 1.424 1.424 0 0 1-.463.084ZM84.416 63.85c.163.002.325-.03.474-.096.144-.062.273-.154.378-.27.11-.125.193-.27.246-.426a1.795 1.795 0 0 0 0-1.113 1.309 1.309 0 0 0-.246-.426 1.073 1.073 0 0 0-.378-.276 1.157 1.157 0 0 0-.474-.096c-.41 0-.68.16-.807.477h-.02v-.418h-.439v3.876h.44v-1.714h.019a.69.69 0 0 0 .33.373.893.893 0 0 0 .228.083c.082.017.165.026.249.026Zm-.61-.5a.9.9 0 0 1-.158-.281 1.125 1.125 0 0 1-.059-.378v-.453c0-.11.018-.22.055-.324a.793.793 0 0 1 .15-.265.732.732 0 0 1 .228-.175.632.632 0 0 1 .282-.065c.105 0 .209.02.306.06.1.04.188.105.256.188.08.1.138.214.172.336.047.162.068.33.065.498.003.17-.018.339-.065.502a.958.958 0 0 1-.174.339.66.66 0 0 1-.256.19.801.801 0 0 1-.302.06.652.652 0 0 1-.5-.231ZM88.358 63.787h.438v-2.581h-.516l-1.316 2.276v-2.276h-.439v2.581h.517l1.316-2.262v2.262ZM92.153 64.329h.36v-.749h-.36l-.99-2.374h-.31l-.966 2.374h-.373v.749h.362v-.543h2.277v.543Zm-2.02-.749.757-1.863h.033l.768 1.863h-1.557ZM95.065 63.787h.44v-2.581h-.517l-1.317 2.276v-2.276h-.439v2.581h.517l1.316-2.262v2.262ZM97.921 62.506a2.51 2.51 0 0 1-.249.05l-.151.023a.993.993 0 0 1-.132.011.7.7 0 0 1-.302-.05.409.409 0 0 1-.152-.118.303.303 0 0 1-.06-.145 1.086 1.086 0 0 1-.01-.126v-.956h-.437v.956c0 .042 0 .1.011.174a.528.528 0 0 0 .278.41c.124.061.261.09.399.082a2.585 2.585 0 0 0 .8-.136v1.094h.439v-2.58h-.439l.005 1.311ZM101.224 63.733c.182-.077.346-.19.481-.334l-.163-.164a14.79 14.79 0 0 1-.201.17 1.09 1.09 0 0 1-.394.212.89.89 0 0 1-.233.029 1.184 1.184 0 0 1-.307-.044.818.818 0 0 1-.302-.158.87.87 0 0 1-.231-.315 1.24 1.24 0 0 1-.093-.517h1.949v-.108a1.675 1.675 0 0 0-.098-.599 1.169 1.169 0 0 0-.264-.419 1.077 1.077 0 0 0-.386-.247 1.312 1.312 0 0 0-.464-.081 1.303 1.303 0 0 0-.487.089c-.147.058-.28.148-.389.262-.114.12-.202.263-.259.419a1.545 1.545 0 0 0-.094.556c0 .17.028.34.081.503.052.16.135.31.244.438.114.133.256.238.415.31.186.082.389.122.592.118.207 0 .412-.04.603-.12Zm-1.4-1.73c.027-.12.072-.236.134-.343a.717.717 0 0 1 .227-.24.592.592 0 0 1 .33-.092.66.66 0 0 1 .569.287c.136.19.204.453.204.788h-1.505a1.778 1.778 0 0 1 .042-.4ZM104.709 63.294a1.359 1.359 0 0 1-.358.22 1.147 1.147 0 0 1-.749.014.82.82 0 0 1-.522-.52 1.454 1.454 0 0 1-.076-.515 1.419 1.419 0 0 1 .089-.535c.048-.131.123-.251.219-.353a.807.807 0 0 1 .291-.192.88.88 0 0 1 .302-.06.702.702 0 0 1 .411.126c.109.072.19.178.232.302h.357a.703.703 0 0 0-.165-.308.942.942 0 0 0-.262-.196 1.133 1.133 0 0 0-.315-.104 1.938 1.938 0 0 0-.322-.028 1.454 1.454 0 0 0-.573.106 1.233 1.233 0 0 0-.419.287c-.113.123-.2.267-.255.425a1.545 1.545 0 0 0-.086.517 1.5 1.5 0 0 0 .094.54 1.237 1.237 0 0 0 .681.722c.174.072.36.108.549.105.204.005.407-.034.596-.113.152-.065.296-.147.43-.245l-.149-.195ZM108.067 63.787v-.206l-.147.005a.28.28 0 0 1-.13-.037.802.802 0 0 1-.136-.096 1.596 1.596 0 0 1-.133-.129 2.284 2.284 0 0 1-.118-.137l-.675-.883 1.049-1.094h-.325l-1.285 1.332V61.21h-.438v2.577h.438v-.907l.285-.302.64.842c.043.052.085.104.129.151.043.051.091.098.143.139a.71.71 0 0 0 .168.099.507.507 0 0 0 .193.036.812.812 0 0 0 .182-.021c.062-.01.111-.024.16-.037ZM111.267 63.013a1.473 1.473 0 0 0 0-1.026 1.274 1.274 0 0 0-.686-.73 1.305 1.305 0 0 0-.551-.111 1.356 1.356 0 0 0-.56.111c-.16.07-.304.172-.424.298a1.405 1.405 0 0 0 0 1.884c.119.128.263.229.424.298.177.076.368.114.56.111.189.003.377-.034.551-.109a1.263 1.263 0 0 0 .686-.726Zm-.477.068a.924.924 0 0 1-.202.349.647.647 0 0 1-.274.167.972.972 0 0 1-.577 0 .661.661 0 0 1-.277-.167.885.885 0 0 1-.207-.35 2.176 2.176 0 0 1 0-1.165.889.889 0 0 1 .207-.35.656.656 0 0 1 .277-.168.956.956 0 0 1 .577 0 .63.63 0 0 1 .274.169c.092.1.161.219.202.349.103.382.103.784 0 1.166ZM114.546 63.399l-.162-.164c-.072.062-.139.118-.202.17a1.097 1.097 0 0 1-.393.21.896.896 0 0 1-.233.028 1.18 1.18 0 0 1-.307-.044.802.802 0 0 1-.533-.473 1.237 1.237 0 0 1-.093-.517h1.948v-.108a1.652 1.652 0 0 0-.097-.599 1.168 1.168 0 0 0-.264-.419 1.076 1.076 0 0 0-.386-.246 1.314 1.314 0 0 0-.464-.082 1.3 1.3 0 0 0-.487.089 1.1 1.1 0 0 0-.389.262c-.114.12-.202.263-.259.419a1.55 1.55 0 0 0-.094.556c0 .17.027.34.081.503.052.16.135.31.244.438.114.133.256.239.415.31.186.083.388.123.592.118.207.002.413-.038.604-.117a1.4 1.4 0 0 0 .479-.334Zm-1.879-1.396c.026-.12.071-.236.133-.343a.723.723 0 0 1 .226-.24.593.593 0 0 1 .331-.091.656.656 0 0 1 .568.286c.136.19.204.453.204.788h-1.511c.001-.135.018-.269.049-.4ZM117.666 63.323c.11.157.256.285.426.374.223.11.471.162.72.151.204.006.407-.036.592-.122.156-.075.293-.184.402-.318.103-.13.18-.279.226-.439a1.7 1.7 0 0 0 .076-.49 1.65 1.65 0 0 0-.076-.488 1.21 1.21 0 0 0-.226-.425 1.18 1.18 0 0 0-.399-.303 1.338 1.338 0 0 0-.585-.117 1.41 1.41 0 0 0-.422.058 1.21 1.21 0 0 0-.326.151c-.09.06-.171.135-.238.22a1.138 1.138 0 0 0-.151.253h-.02v-.024a1.623 1.623 0 0 1 .113-.605.995.995 0 0 1 .298-.424.93.93 0 0 1 .453-.187c.176-.02.353-.03.529-.029h.636l.278-.388h-.719c-.147 0-.294.004-.439.011a1.71 1.71 0 0 0-.417.076 1.178 1.178 0 0 0-.695.55 1.544 1.544 0 0 0-.16.362 2.57 2.57 0 0 0-.084.378 3.555 3.555 0 0 0-.031.372c-.004.121-.005.236-.005.344v.139c.002.15.019.3.051.447.033.169.099.33.193.473Zm.302-1.331a1.01 1.01 0 0 1 .175-.36.718.718 0 0 1 .266-.21.814.814 0 0 1 .334-.069c.075.002.149.01.222.022a.642.642 0 0 1 .289.13c.112.092.199.21.253.343.082.21.12.437.109.663.006.196-.023.392-.085.578a.952.952 0 0 1-.21.344.665.665 0 0 1-.263.166.837.837 0 0 1-.244.044 1.07 1.07 0 0 1-.294-.047.74.74 0 0 1-.296-.174.981.981 0 0 1-.226-.346 1.49 1.49 0 0 1-.091-.565c-.004-.175.016-.35.059-.52h.002ZM124.209 61.544a1.246 1.246 0 0 0-.419-.29 1.41 1.41 0 0 0-.558-.106 1.515 1.515 0 0 0-.513.086 1.189 1.189 0 0 0-.705.632 1.239 1.239 0 0 0-.114.515h-.429v-1.17h-.438v2.58h.438v-1.237h.429c.012.158.049.313.111.459.063.153.152.294.264.417.115.126.253.229.407.302.172.08.361.12.55.117a1.44 1.44 0 0 0 .566-.105c.159-.066.302-.166.419-.292.115-.127.204-.275.261-.436.063-.174.094-.358.092-.543a1.365 1.365 0 0 0-.094-.506 1.294 1.294 0 0 0-.267-.423Zm-.173 1.34c-.024.132-.069.26-.133.378a.778.778 0 0 1-.258.275.745.745 0 0 1-.41.105.97.97 0 0 1-.289-.046.644.644 0 0 1-.273-.176 1.012 1.012 0 0 1-.204-.359 1.804 1.804 0 0 1-.08-.588 1.724 1.724 0 0 1 .093-.637.81.81 0 0 1 .226-.333.575.575 0 0 1 .275-.128c.084-.013.168-.02.253-.022.097 0 .194.014.289.04a.637.637 0 0 1 .273.157.84.84 0 0 1 .201.34c.056.187.082.382.076.578 0 .14-.013.278-.039.416ZM127.94 62.504a1.655 1.655 0 0 0-.088-.559 1.313 1.313 0 0 0-.247-.426 1.069 1.069 0 0 0-.378-.276 1.146 1.146 0 0 0-.473-.096c-.41 0-.679.16-.807.477h-.021v-.418h-.438v3.876h.438v-1.714h.021a.69.69 0 0 0 .33.378.91.91 0 0 0 .227.082c.241.052.493.027.72-.07.144-.061.273-.153.378-.27.11-.124.193-.269.247-.425.062-.18.093-.37.091-.56Zm-.556.492a.963.963 0 0 1-.175.339.665.665 0 0 1-.257.19.795.795 0 0 1-.302.06.649.649 0 0 1-.501-.234.9.9 0 0 1-.158-.282 1.127 1.127 0 0 1-.059-.378v-.453a.942.942 0 0 1 .054-.324.749.749 0 0 1 .378-.44.636.636 0 0 1 .282-.065c.106 0 .21.02.307.06.1.04.188.105.256.188.079.1.138.214.173.336.045.162.067.33.064.498a1.76 1.76 0 0 1-.062.505ZM131.029 61.557a1.312 1.312 0 0 0-.969-.41 1.306 1.306 0 0 0-1.254.84 1.415 1.415 0 0 0 0 1.022c.061.16.153.307.269.432.119.128.263.23.423.298.177.076.369.114.562.111.188.003.376-.034.55-.109.158-.068.301-.168.419-.294.117-.125.207-.272.267-.433a1.484 1.484 0 0 0 0-1.026c-.06-.16-.15-.306-.267-.43Zm-.211 1.526a.9.9 0 0 1-.202.349.637.637 0 0 1-.273.167.972.972 0 0 1-.577 0 .675.675 0 0 1-.278-.167.9.9 0 0 1-.207-.35 2.197 2.197 0 0 1 0-1.165.916.916 0 0 1 .207-.35.656.656 0 0 1 .278-.169.955.955 0 0 1 .577 0c.104.032.198.09.273.17.093.1.162.219.202.349.105.381.105.784 0 1.166ZM79.817 66.804h-.26l-1.936 2.035v-2.035h-.469v3.615h.469v-1.27l.585-.625 1.371 1.895h.537l-1.61-2.216 1.313-1.399ZM82.789 68.163a.705.705 0 0 0-.307-.277 1.342 1.342 0 0 0-.595-.106 1.67 1.67 0 0 0-.386.039 1.237 1.237 0 0 0-.277.1.823.823 0 0 0-.196.14 3.657 3.657 0 0 0-.151.156l.267.265a2.29 2.29 0 0 1 .144-.213.807.807 0 0 1 .158-.159.667.667 0 0 1 .194-.1.812.812 0 0 1 .254-.037c.223 0 .377.069.461.206.084.138.127.347.127.628v.22a.906.906 0 0 0-.343-.254 1.102 1.102 0 0 0-.854-.009.924.924 0 0 0-.487.512.918.918 0 0 0-.005.649.83.83 0 0 0 .452.481c.123.053.256.08.39.076.159-.001.317-.03.466-.087.142-.049.273-.127.383-.23v.254h.438V69.01c0-.155-.005-.306-.016-.453a.916.916 0 0 0-.117-.394Zm-.307 1.631a.834.834 0 0 1-.473.443.588.588 0 0 1-.2.037.645.645 0 0 1-.633-.66.768.768 0 0 1 .178-.497.63.63 0 0 1 .21-.154c.085-.041.18-.061.274-.06a.573.573 0 0 1 .26.054.707.707 0 0 1 .186.132c.048.047.09.1.126.158.029.047.054.095.075.145l-.003.402ZM86.097 68.15a1.074 1.074 0 0 0-.377-.275 1.152 1.152 0 0 0-.474-.096c-.41 0-.679.16-.807.477h-.02v-.418h-.438v3.876h.438v-1.713h.02a.708.708 0 0 0 .33.378.903.903 0 0 0 .227.082 1.2 1.2 0 0 0 .72-.07 1.09 1.09 0 0 0 .378-.27c.11-.124.194-.269.247-.426a1.797 1.797 0 0 0 0-1.112 1.304 1.304 0 0 0-.244-.433Zm-.221 1.478a.961.961 0 0 1-.175.339.668.668 0 0 1-.256.19.8.8 0 0 1-.303.06.644.644 0 0 1-.501-.235.891.891 0 0 1-.157-.282 1.103 1.103 0 0 1-.06-.378v-.45c0-.11.018-.22.054-.324a.75.75 0 0 1 .378-.44.643.643 0 0 1 .283-.064c.105 0 .209.02.306.06.1.04.188.104.256.188.08.1.138.213.173.336.046.162.068.33.064.498a1.7 1.7 0 0 1-.062.503ZM87.796 70.115v-2.277h-.439v2.581h.518l1.315-2.261v2.261h.44v-2.58h-.517l-1.317 2.276ZM92.455 69.01H91.15v-1.172h-.438v2.581h.438v-1.232h1.306v1.232h.439v-2.58h-.439v1.171ZM95.68 69.112a1.129 1.129 0 0 0-.346-.085 3.863 3.863 0 0 0-.302-.015h-.62V67.84h-.44v2.577h1.36a.853.853 0 0 0 .276-.046.712.712 0 0 0 .408-.353.613.613 0 0 0 .065-.284.645.645 0 0 0-.116-.41.696.696 0 0 0-.286-.212Zm-.227.994a.554.554 0 0 1-.354.122h-.68v-1.041h.593c.03 0 .075 0 .144.01a.52.52 0 0 1 .378.23.549.549 0 0 1 .076.314.437.437 0 0 1-.155.365h-.002ZM97.066 67.838h-.441v2.582h.441v-2.582ZM100.418 70.42h.468v-3.331h2.163v3.33h.472v-3.615h-3.103v3.615ZM106.659 68.163a.711.711 0 0 0-.308-.277 1.338 1.338 0 0 0-.595-.106 1.67 1.67 0 0 0-.386.039 1.256 1.256 0 0 0-.277.1.815.815 0 0 0-.196.14 3.223 3.223 0 0 0-.151.156l.267.265c.043-.074.092-.145.144-.213a.836.836 0 0 1 .157-.159.679.679 0 0 1 .195-.1.806.806 0 0 1 .253-.037c.225 0 .379.069.463.206.084.138.126.347.126.628v.22a.897.897 0 0 0-.343-.254 1.103 1.103 0 0 0-.854-.009.923.923 0 0 0-.549.843c.001.109.02.216.057.318a.844.844 0 0 0 .452.481c.123.053.256.08.39.076.159-.001.317-.03.466-.087a1.07 1.07 0 0 0 .382-.23v.254h.439V69.01c0-.155-.005-.306-.016-.453a.91.91 0 0 0-.116-.394Zm-.31 1.631a.85.85 0 0 1-.472.443.586.586 0 0 1-.416-.004.628.628 0 0 1-.208-.127.629.629 0 0 1-.21-.492.753.753 0 0 1 .047-.27.638.638 0 0 1 .615-.441.58.58 0 0 1 .26.054.708.708 0 0 1 .185.132c.049.047.091.1.127.158a.99.99 0 0 1 .075.145l-.003.402ZM109.912 70.181a.831.831 0 0 1-.136-.096 1.949 1.949 0 0 1-.251-.266l-.68-.882 1.05-1.094h-.326l-1.284 1.331v-1.331h-.439v2.574h.439v-.907l.284-.302.641.842c.042.052.085.104.129.155.043.051.091.097.143.139.051.04.108.073.168.098a.493.493 0 0 0 .193.037.766.766 0 0 0 .181-.022 2.96 2.96 0 0 0 .156-.042v-.202l-.146.004a.268.268 0 0 1-.122-.036ZM111.604 68.238a.779.779 0 0 1 .291-.192.875.875 0 0 1 .302-.06.699.699 0 0 1 .413.126.58.58 0 0 1 .232.302h.358a.702.702 0 0 0-.165-.308.941.941 0 0 0-.263-.196 1.133 1.133 0 0 0-.315-.103 1.926 1.926 0 0 0-.321-.029 1.454 1.454 0 0 0-.573.106 1.233 1.233 0 0 0-.419.288 1.204 1.204 0 0 0-.256.424 1.57 1.57 0 0 0-.085.518c-.002.183.03.366.093.538a1.24 1.24 0 0 0 .682.722c.173.074.36.11.548.107.205.004.408-.035.597-.114.152-.065.296-.147.429-.245l-.151-.197a1.394 1.394 0 0 1-.359.22 1.148 1.148 0 0 1-.749.014.813.813 0 0 1-.521-.52c-.11-.341-.107-.71.008-1.05.05-.13.127-.25.224-.35ZM115.877 68.163a.702.702 0 0 0-.307-.277 1.345 1.345 0 0 0-.596-.106c-.13-.002-.259.01-.386.039a1.22 1.22 0 0 0-.276.1.852.852 0 0 0-.197.14 3.845 3.845 0 0 0-.151.156l.267.265c.043-.074.091-.145.143-.213a.839.839 0 0 1 .158-.159.686.686 0 0 1 .194-.1.812.812 0 0 1 .254-.037c.224 0 .378.069.463.206.084.138.126.347.126.628v.22a.907.907 0 0 0-.344-.254 1.102 1.102 0 0 0-.853-.009.929.929 0 0 0-.487.512.935.935 0 0 0-.005.649.845.845 0 0 0 .452.481.922.922 0 0 0 .39.076c.16-.001.318-.03.467-.087.142-.049.272-.127.382-.23v.254h.439V69.01a6.08 6.08 0 0 0-.016-.453.896.896 0 0 0-.117-.394Zm-.309 1.631a.82.82 0 0 1-.472.443.592.592 0 0 1-.417-.004.629.629 0 0 1-.207-.127.643.643 0 0 1-.211-.492.776.776 0 0 1 .178-.497.638.638 0 0 1 .484-.214.573.573 0 0 1 .26.054.796.796 0 0 1 .312.29c.029.047.055.095.076.145l-.003.402ZM120.178 70.213h-1.116v-2.375h-.438v2.375h-1.115v-2.375h-.439v2.581h3.553v-2.58h-.445v2.374ZM123.551 69.208a.792.792 0 0 0-.248-.105 1.276 1.276 0 0 0-.24-.037v-.034c.07-.014.139-.036.206-.065a.636.636 0 0 0 .314-.294.522.522 0 0 0 .049-.227.705.705 0 0 0-.026-.177.473.473 0 0 0-.114-.2.667.667 0 0 0-.256-.162 1.234 1.234 0 0 0-.446-.067h-1.079v2.577h1.167c.146.003.292-.017.432-.059a.86.86 0 0 0 .293-.155.542.542 0 0 0 .16-.216.686.686 0 0 0 .047-.25.659.659 0 0 0-.076-.325.558.558 0 0 0-.183-.204Zm-1.403-1.163h.511a.632.632 0 0 1 .281.052.45.45 0 0 1 .162.124.378.378 0 0 1 .075.151.612.612 0 0 1 .019.141.427.427 0 0 1-.049.21.502.502 0 0 1-.132.156.613.613 0 0 1-.192.098.747.747 0 0 1-.227.034h-.448v-.966Zm1.116 1.959a.492.492 0 0 1-.195.151.71.71 0 0 1-.226.054 3.237 3.237 0 0 1-.161.008h-.534v-1.03h.453c.055 0 .125 0 .209.01a.75.75 0 0 1 .244.062c.081.035.151.09.205.16a.469.469 0 0 1 .085.297.443.443 0 0 1-.084.288h.004ZM125.182 70.115v-2.277h-.438v2.581h.517l1.315-2.261v2.261h.439v-2.58h-.517l-1.316 2.276ZM129.27 67.838l-.786 1.946-.056.133a.96.96 0 0 1-.075.14.452.452 0 0 1-.096.111.185.185 0 0 1-.117.045.321.321 0 0 1-.151-.042.662.662 0 0 1-.123-.082l-.083.273c.093.08.213.122.336.115a.503.503 0 0 0 .175-.029.373.373 0 0 0 .145-.103.965.965 0 0 0 .132-.196c.051-.1.097-.203.138-.307l.592-1.492h.03l.832 2.067h.464l-1.046-2.581-.311.002ZM131.839 70.115v-2.277h-.439v2.581h.517l1.316-2.261v2.261h.439v-2.58h-.517l-1.316 2.276Z" fill="#232323"/></g><path d="M38.82 99.167c0-.765.168-1.432.504-2.002a3.823 3.823 0 0 1 1.344-1.358 3.45 3.45 0 0 1 1.792-.49 4.2 4.2 0 0 1 1.274.182c.392.122.747.294 1.064.518.317.215.588.467.812.756v-1.568a4.18 4.18 0 0 0-1.344-.812c-.485-.177-1.087-.266-1.806-.266-.681 0-1.32.126-1.918.378a4.622 4.622 0 0 0-1.554 1.05c-.448.448-.798.98-1.05 1.596a5.274 5.274 0 0 0-.378 2.016c0 .728.126 1.4.378 2.016a4.953 4.953 0 0 0 1.05 1.61c.448.448.966.798 1.554 1.05a5.04 5.04 0 0 0 1.918.364c.719 0 1.32-.088 1.806-.266a4.174 4.174 0 0 0 1.344-.812v-1.568c-.224.29-.495.546-.812.77a3.972 3.972 0 0 1-1.064.504 4.18 4.18 0 0 1-1.274.182 3.447 3.447 0 0 1-1.792-.49 3.816 3.816 0 0 1-1.344-1.358c-.336-.578-.504-1.246-.504-2.002Zm12.384-.49-3.99 5.39h5.74v-1.05h-3.71l3.99-5.39h-5.6v1.05h3.57Zm4.213 3.402c0-.233.056-.434.168-.602a1.09 1.09 0 0 1 .504-.392c.234-.093.532-.14.896-.14.392 0 .761.052 1.106.154a3.32 3.32 0 0 1 1.008.476v-.658a1.856 1.856 0 0 0-.378-.322 2.6 2.6 0 0 0-.756-.364c-.308-.112-.695-.168-1.162-.168-.793 0-1.414.192-1.862.574-.438.374-.658.873-.658 1.498 0 .439.103.812.308 1.12.206.308.476.546.812.714.346.159.714.238 1.106.238.355 0 .71-.065 1.064-.196.364-.13.668-.331.91-.602.252-.27.378-.611.378-1.022l-.224-.84a1.62 1.62 0 0 1-.91 1.484c-.27.14-.578.21-.924.21-.27 0-.513-.042-.728-.126a1.157 1.157 0 0 1-.49-.406 1.153 1.153 0 0 1-.168-.63Zm-.168-2.968c.103-.074.243-.163.42-.266a2.97 2.97 0 0 1 1.512-.378c.196 0 .383.019.56.056.178.038.332.098.462.182.14.084.248.201.322.35.075.14.112.322.112.546v4.466h1.12v-4.62c0-.42-.107-.774-.322-1.064-.205-.289-.499-.508-.882-.658-.373-.158-.812-.238-1.316-.238-.597 0-1.11.089-1.54.266-.42.178-.75.355-.994.532l.546.826Zm7.945-1.484h-1.12v6.44h1.12v-6.44Zm1.946 1.232.616-.924a1.206 1.206 0 0 0-.56-.35 2.024 2.024 0 0 0-.644-.098c-.299 0-.593.117-.882.35-.29.234-.528.551-.714.952-.178.392-.266.845-.266 1.358h.504c0-.308.028-.583.084-.826.065-.242.177-.434.336-.574.158-.14.378-.21.658-.21.186 0 .34.028.462.084.121.047.256.126.406.238Zm7.778.028H74.5c.588 0 1.096-.084 1.526-.252.438-.168.78-.415 1.022-.742.242-.326.364-.718.364-1.176 0-.56-.122-1.017-.364-1.372a2.168 2.168 0 0 0-1.022-.812c-.43-.177-.938-.266-1.526-.266h-2.52v9.8h2.66c.634 0 1.2-.102 1.694-.308a2.68 2.68 0 0 0 1.19-.952c.298-.429.448-.966.448-1.61 0-.448-.084-.835-.252-1.162a2.1 2.1 0 0 0-.714-.798 3.091 3.091 0 0 0-1.05-.476 5.302 5.302 0 0 0-1.316-.154h-1.722v.658h1.722c.317 0 .606.042.868.126.261.075.485.192.672.35.196.159.345.355.448.588.102.234.154.5.154.798 0 .402-.094.742-.28 1.022a1.71 1.71 0 0 1-.756.644c-.318.15-.686.224-1.106.224h-1.47v-7.7h1.33c.494 0 .905.131 1.232.392.326.252.49.612.49 1.078 0 .308-.075.57-.224.784-.15.215-.355.378-.616.49a2.219 2.219 0 0 1-.882.168h-1.582v.658Zm8.338 2.66v-3.92h-1.12v4.06c0 .766.201 1.377.602 1.834.402.458.938.686 1.61.686.43 0 .803-.093 1.12-.28.318-.196.584-.485.798-.868v1.008h1.12v-6.44h-1.12v3.92c0 .318-.07.598-.21.84-.13.243-.322.434-.574.574a1.771 1.771 0 0 1-.854.196c-.448 0-.788-.14-1.022-.42-.233-.28-.35-.676-.35-1.19Zm6.922.546-.882.546c.121.252.298.5.532.742.242.243.537.444.882.602.345.15.733.224 1.162.224.662 0 1.195-.186 1.596-.56.41-.373.616-.84.616-1.4 0-.382-.094-.695-.28-.938a2.175 2.175 0 0 0-.728-.616 8.146 8.146 0 0 0-1.022-.49 10.126 10.126 0 0 1-.644-.294 1.92 1.92 0 0 1-.504-.35.617.617 0 0 1-.196-.448c0-.214.084-.373.252-.476.168-.102.368-.154.602-.154.336 0 .635.08.896.238.27.159.495.36.672.602l.896-.574a2.095 2.095 0 0 0-.546-.644 2.844 2.844 0 0 0-.812-.448 2.87 2.87 0 0 0-1.974.014 1.836 1.836 0 0 0-.784.56c-.196.252-.294.57-.294.952 0 .374.093.686.28.938.196.243.434.444.714.602.29.15.574.28.854.392a7.3 7.3 0 0 1 .714.308c.224.103.406.234.546.392.15.15.224.336.224.56a.73.73 0 0 1-.28.602c-.177.14-.425.21-.742.21-.261 0-.504-.046-.728-.14a2.053 2.053 0 0 1-.574-.406 3.571 3.571 0 0 1-.448-.546Zm5.8-7.126c0 .206.075.388.224.546.159.15.341.224.546.224a.743.743 0 0 0 .546-.224.774.774 0 0 0 .224-.546.743.743 0 0 0-.224-.546.743.743 0 0 0-.546-.224.773.773 0 0 0-.546.224.743.743 0 0 0-.224.546Zm.21 2.66v6.44h1.12v-6.44h-1.12Zm7.977 2.52v3.92h1.12v-4.06c0-.774-.201-1.386-.602-1.834-.392-.457-.929-.686-1.61-.686-.42 0-.793.094-1.12.28-.317.187-.583.476-.798.868v-1.008h-1.12v6.44h1.12v-3.92c0-.317.065-.597.196-.84.14-.242.331-.429.574-.56.252-.14.541-.21.868-.21.448 0 .789.136 1.022.406.233.271.35.672.35 1.204Zm6.138 4.06c.69 0 1.288-.135 1.792-.406.513-.28.938-.69 1.274-1.232l-.91-.574c-.234.392-.518.686-.854.882-.336.187-.724.28-1.162.28-.439 0-.812-.093-1.12-.28a1.752 1.752 0 0 1-.7-.812c-.159-.354-.238-.784-.238-1.288.009-.494.093-.91.252-1.246.168-.345.401-.606.7-.784.308-.186.676-.28 1.106-.28.364 0 .681.08.952.238.27.159.48.378.63.658.158.28.238.612.238.994 0 .066-.014.15-.042.252a.94.94 0 0 1-.084.21l.448-.644h-4.62v.952h5.502v-.126c.009-.074.014-.144.014-.21 0-.681-.122-1.269-.364-1.764a2.581 2.581 0 0 0-1.05-1.134c-.448-.27-.99-.406-1.624-.406-.635 0-1.195.14-1.68.42-.476.28-.85.672-1.12 1.176-.262.504-.392 1.092-.392 1.764 0 .663.126 1.246.378 1.75.261.504.62.901 1.078 1.19.466.28.998.42 1.596.42Zm5.399-2.114-.882.546c.121.252.298.5.532.742.242.243.536.444.882.602.345.15.732.224 1.162.224.662 0 1.194-.186 1.596-.56.41-.373.616-.84.616-1.4 0-.382-.094-.695-.28-.938a2.181 2.181 0 0 0-.728-.616 8.166 8.166 0 0 0-1.022-.49 10.05 10.05 0 0 1-.644-.294 1.9 1.9 0 0 1-.504-.35.615.615 0 0 1-.196-.448c0-.214.084-.373.252-.476a1.13 1.13 0 0 1 .602-.154c.336 0 .634.08.896.238.27.159.494.36.672.602l.896-.574a2.103 2.103 0 0 0-.546-.644 2.852 2.852 0 0 0-.812-.448 2.732 2.732 0 0 0-.966-.168c-.346 0-.682.061-1.008.182a1.83 1.83 0 0 0-.784.56c-.196.252-.294.57-.294.952 0 .374.093.686.28.938.196.243.434.444.714.602.289.15.574.28.854.392a7.3 7.3 0 0 1 .714.308c.224.103.406.234.546.392.149.15.224.336.224.56a.732.732 0 0 1-.28.602c-.178.14-.425.21-.742.21a1.86 1.86 0 0 1-.728-.14 2.049 2.049 0 0 1-.574-.406 3.536 3.536 0 0 1-.448-.546Zm6.066 0-.882.546c.121.252.299.5.532.742.243.243.537.444.882.602.345.15.733.224 1.162.224.663 0 1.195-.186 1.596-.56.411-.373.616-.84.616-1.4 0-.382-.093-.695-.28-.938a2.171 2.171 0 0 0-.728-.616 8.166 8.166 0 0 0-1.022-.49 10.05 10.05 0 0 1-.644-.294 1.934 1.934 0 0 1-.504-.35.615.615 0 0 1-.196-.448c0-.214.084-.373.252-.476.168-.102.369-.154.602-.154.336 0 .635.08.896.238.271.159.495.36.672.602l.896-.574a2.103 2.103 0 0 0-.546-.644 2.838 2.838 0 0 0-.812-.448 2.874 2.874 0 0 0-1.974.014 1.837 1.837 0 0 0-.784.56c-.196.252-.294.57-.294.952 0 .374.093.686.28.938.196.243.434.444.714.602.289.15.574.28.854.392a7.3 7.3 0 0 1 .714.308c.224.103.406.234.546.392.149.15.224.336.224.56a.73.73 0 0 1-.28.602c-.177.14-.425.21-.742.21-.261 0-.504-.046-.728-.14a2.049 2.049 0 0 1-.574-.406 3.595 3.595 0 0 1-.448-.546Zm11.188-2.926c0-.765.168-1.432.504-2.002a3.819 3.819 0 0 1 1.344-1.358 3.45 3.45 0 0 1 1.792-.49 4.2 4.2 0 0 1 1.274.182c.392.122.747.294 1.064.518.317.215.588.467.812.756v-1.568a4.186 4.186 0 0 0-1.344-.812c-.485-.177-1.087-.266-1.806-.266-.681 0-1.321.126-1.918.378a4.622 4.622 0 0 0-1.554 1.05c-.448.448-.798.98-1.05 1.596a5.274 5.274 0 0 0-.378 2.016c0 .728.126 1.4.378 2.016a4.953 4.953 0 0 0 1.05 1.61c.448.448.966.798 1.554 1.05a5.04 5.04 0 0 0 1.918.364c.719 0 1.321-.088 1.806-.266a4.18 4.18 0 0 0 1.344-.812v-1.568c-.224.29-.495.546-.812.77a3.968 3.968 0 0 1-1.064.504 4.18 4.18 0 0 1-1.274.182 3.448 3.448 0 0 1-1.792-.49 3.811 3.811 0 0 1-1.344-1.358c-.336-.578-.504-1.246-.504-2.002Zm11.726 5.04c.691 0 1.288-.135 1.792-.406.513-.28.938-.69 1.274-1.232l-.91-.574c-.233.392-.518.686-.854.882-.336.187-.723.28-1.162.28-.439 0-.812-.093-1.12-.28a1.758 1.758 0 0 1-.7-.812c-.159-.354-.238-.784-.238-1.288.009-.494.093-.91.252-1.246.168-.345.401-.606.7-.784.308-.186.677-.28 1.106-.28.364 0 .681.08.952.238.271.159.481.378.63.658.159.28.238.612.238.994 0 .066-.014.15-.042.252a.94.94 0 0 1-.084.21l.448-.644h-4.62v.952h5.502v-.126c.009-.074.014-.144.014-.21 0-.681-.121-1.269-.364-1.764a2.581 2.581 0 0 0-1.05-1.134c-.448-.27-.989-.406-1.624-.406-.635 0-1.195.14-1.68.42-.476.28-.849.672-1.12 1.176-.261.504-.392 1.092-.392 1.764 0 .663.126 1.246.378 1.75.261.504.621.901 1.078 1.19.467.28.999.42 1.596.42Zm9.263-4.06v3.92h1.12v-4.06c0-.774-.201-1.386-.602-1.834-.392-.457-.929-.686-1.61-.686-.42 0-.793.094-1.12.28-.317.187-.583.476-.798.868v-1.008h-1.12v6.44h1.12v-3.92c0-.317.065-.597.196-.84.14-.242.331-.429.574-.56.252-.14.541-.21.868-.21.448 0 .789.136 1.022.406.233.271.35.672.35 1.204Zm2.665-2.52v1.05h3.22v-1.05h-3.22Zm1.05-2.24v8.68h1.12v-8.68h-1.12Zm6.206 8.82c.69 0 1.288-.135 1.792-.406.513-.28.938-.69 1.274-1.232l-.91-.574c-.234.392-.518.686-.854.882-.336.187-.724.28-1.162.28-.439 0-.812-.093-1.12-.28a1.752 1.752 0 0 1-.7-.812c-.159-.354-.238-.784-.238-1.288.009-.494.093-.91.252-1.246.168-.345.401-.606.7-.784.308-.186.676-.28 1.106-.28.364 0 .681.08.952.238.27.159.48.378.63.658.158.28.238.612.238.994 0 .066-.014.15-.042.252a.94.94 0 0 1-.084.21l.448-.644h-4.62v.952h5.502v-.126c.009-.074.014-.144.014-.21 0-.681-.122-1.269-.364-1.764a2.581 2.581 0 0 0-1.05-1.134c-.448-.27-.99-.406-1.624-.406-.635 0-1.195.14-1.68.42-.476.28-.85.672-1.12 1.176-.262.504-.392 1.092-.392 1.764 0 .663.126 1.246.378 1.75.261.504.62.901 1.078 1.19.466.28.998.42 1.596.42Zm6.253-6.58h-1.12v6.44h1.12v-6.44Zm1.946 1.232.616-.924a1.207 1.207 0 0 0-.56-.35 2.026 2.026 0 0 0-.644-.098c-.299 0-.593.117-.882.35-.29.234-.528.551-.714.952-.178.392-.266.845-.266 1.358h.504c0-.308.028-.583.084-.826.065-.242.177-.434.336-.574.158-.14.378-.21.658-.21.186 0 .34.028.462.084.121.047.256.126.406.238Zm2.341 3.668-1.232 3.626.812.294 1.54-3.5-1.12-.42Zm7.762-1.68c0 .644.144 1.223.434 1.736.298.504.7.901 1.204 1.19.504.29 1.068.434 1.694.434.634 0 1.199-.144 1.694-.434.504-.289.9-.686 1.19-1.19a3.394 3.394 0 0 0 .448-1.736c0-.653-.15-1.232-.448-1.736-.29-.504-.686-.9-1.19-1.19-.495-.289-1.06-.434-1.694-.434-.626 0-1.19.145-1.694.434-.504.29-.906.686-1.204 1.19-.29.504-.434 1.083-.434 1.736Zm1.134 0c0-.448.093-.844.28-1.19.196-.354.457-.63.784-.826a2.209 2.209 0 0 1 1.134-.294c.42 0 .793.098 1.12.294.336.196.597.472.784.826.196.346.294.742.294 1.19 0 .448-.098.845-.294 1.19a2.146 2.146 0 0 1-.784.826c-.327.196-.7.294-1.12.294-.42 0-.798-.098-1.134-.294a2.287 2.287 0 0 1-.784-.826 2.458 2.458 0 0 1-.28-1.19Zm6.998-3.22v1.05h3.22v-1.05h-3.22Zm3.108-3.136.616-.924a1.1 1.1 0 0 0-.28-.266 1.504 1.504 0 0 0-.406-.21 1.64 1.64 0 0 0-.546-.084c-.392 0-.728.084-1.008.252a1.564 1.564 0 0 0-.63.728c-.149.327-.224.747-.224 1.26v8.82h1.12v-8.68c0-.308.028-.555.084-.742.056-.186.131-.317.224-.392a.558.558 0 0 1 .364-.126c.112 0 .229.024.35.07.131.038.243.136.336.294Zm1.318 3.136v1.05h3.22v-1.05h-3.22Zm3.108-3.136.616-.924a1.1 1.1 0 0 0-.28-.266 1.504 1.504 0 0 0-.406-.21 1.64 1.64 0 0 0-.546-.084c-.392 0-.728.084-1.008.252a1.564 1.564 0 0 0-.63.728c-.149.327-.224.747-.224 1.26v8.82h1.12v-8.68c0-.308.028-.555.084-.742.056-.186.131-.317.224-.392a.558.558 0 0 1 .364-.126c.112 0 .229.024.35.07.131.038.243.136.336.294Zm1.808.476c0 .206.074.388.224.546.158.15.34.224.546.224a.745.745 0 0 0 .546-.224.775.775 0 0 0 .224-.546.744.744 0 0 0-.224-.546.745.745 0 0 0-.546-.224.771.771 0 0 0-.546.224.74.74 0 0 0-.224.546Zm.21 2.66v6.44h1.12v-6.44h-1.12Zm4.351 3.22c0-.448.093-.844.28-1.19.196-.354.457-.63.784-.826a2.209 2.209 0 0 1 1.134-.294c.345 0 .667.056.966.168.308.103.574.243.798.42.224.178.382.374.476.588v-1.4c-.224-.261-.546-.462-.966-.602a3.702 3.702 0 0 0-1.274-.224c-.626 0-1.19.145-1.694.434-.504.29-.906.686-1.204 1.19-.29.504-.434 1.083-.434 1.736 0 .644.144 1.223.434 1.736.298.504.7.901 1.204 1.19.504.29 1.068.434 1.694.434.438 0 .863-.07 1.274-.21.42-.149.742-.354.966-.616v-1.4a1.693 1.693 0 0 1-.476.588c-.224.178-.49.322-.798.434a2.946 2.946 0 0 1-.966.154c-.42 0-.798-.098-1.134-.294a2.287 2.287 0 0 1-.784-.826 2.458 2.458 0 0 1-.28-1.19Zm9.093 3.36c.691 0 1.288-.135 1.792-.406.513-.28.938-.69 1.274-1.232l-.91-.574c-.233.392-.518.686-.854.882-.336.187-.723.28-1.162.28-.439 0-.812-.093-1.12-.28a1.758 1.758 0 0 1-.7-.812c-.159-.354-.238-.784-.238-1.288.009-.494.093-.91.252-1.246.168-.345.401-.606.7-.784.308-.186.677-.28 1.106-.28.364 0 .681.08.952.238.271.159.481.378.63.658.159.28.238.612.238.994 0 .066-.014.15-.042.252a.94.94 0 0 1-.084.21l.448-.644h-4.62v.952h5.502v-.126c.009-.074.014-.144.014-.21 0-.681-.121-1.269-.364-1.764a2.581 2.581 0 0 0-1.05-1.134c-.448-.27-.989-.406-1.624-.406-.635 0-1.195.14-1.68.42-.476.28-.849.672-1.12 1.176-.261.504-.392 1.092-.392 1.764 0 .663.126 1.246.378 1.75.261.504.621.901 1.078 1.19.467.28.999.42 1.596.42Zm9.82-8.008 2.17-.644v8.512h1.19v-9.94l-3.36.84V96.2Zm6.723 0 2.17-.644v8.512h1.19v-9.94l-3.36.84V96.2Zm5.883 5.908h7.462v-1.05h-5.502l2.772-4.144v7.154h1.19v-9.8h-.49l-5.432 7.84Zm8.372-.84h2.8v-1.05h-2.8v1.05Zm5.039-2.1c0-.569.056-1.092.168-1.568.112-.485.276-.9.49-1.246.215-.354.472-.625.77-.812a1.866 1.866 0 0 1 1.022-.294c.383 0 .724.098 1.022.294.299.187.556.458.77.812.215.346.378.761.49 1.246.112.476.168.999.168 1.568 0 .57-.056 1.097-.168 1.582a4.272 4.272 0 0 1-.49 1.246 2.56 2.56 0 0 1-.77.812c-.298.187-.639.28-1.022.28-.373 0-.714-.093-1.022-.28a2.582 2.582 0 0 1-.77-.812 4.3 4.3 0 0 1-.49-1.246 7.025 7.025 0 0 1-.168-1.582Zm-1.19 0c0 .98.154 1.848.462 2.604.308.756.733 1.354 1.274 1.792.551.43 1.186.644 1.904.644.719 0 1.349-.214 1.89-.644.551-.438.98-1.036 1.288-1.792.308-.756.462-1.624.462-2.604s-.154-1.848-.462-2.604c-.308-.756-.737-1.348-1.288-1.778a2.912 2.912 0 0 0-1.89-.658c-.718 0-1.353.22-1.904.658-.541.43-.966 1.022-1.274 1.778-.308.756-.462 1.624-.462 2.604Zm8.535 2.94h7.462v-1.05h-5.502l2.772-4.144v7.154h1.19v-9.8h-.49l-5.432 7.84Zm8.582 1.96h6.916v-1.12h-4.466l3.122-3.178a5.12 5.12 0 0 0 .938-1.33c.243-.494.364-.994.364-1.498a2.7 2.7 0 0 0-.182-.938 2.822 2.822 0 0 0-.56-.91 2.773 2.773 0 0 0-.966-.7c-.392-.186-.859-.28-1.4-.28-.672 0-1.251.15-1.736.448-.476.29-.84.7-1.092 1.232-.252.523-.378 1.134-.378 1.834h1.19c0-.494.079-.919.238-1.274.159-.364.387-.639.686-.826.308-.196.672-.294 1.092-.294.299 0 .565.052.798.154.233.103.429.238.588.406.168.168.294.355.378.56.084.206.126.416.126.63 0 .262-.042.514-.126.756a2.73 2.73 0 0 1-.35.7 5.595 5.595 0 0 1-.546.686l-4.634 4.942Z" fill="#232323"/><path d="M38.692 122.307c0-.344.076-.648.228-.912.152-.264.356-.472.612-.624.264-.152.556-.228.876-.228.256 0 .504.04.744.12.24.08.452.192.636.336.192.136.332.296.42.48v-1.428c-.192-.192-.452-.344-.78-.456a3.324 3.324 0 0 0-1.08-.168c-.568 0-1.08.124-1.536.372-.448.24-.804.576-1.068 1.008-.256.432-.384.932-.384 1.5 0 .56.128 1.06.384 1.5.264.432.62.772 1.068 1.02.456.24.968.36 1.536.36.392 0 .752-.056 1.08-.168.328-.112.588-.264.78-.456v-1.428a1.424 1.424 0 0 1-.408.48 2.099 2.099 0 0 1-.636.336c-.24.08-.492.12-.756.12-.32 0-.612-.076-.876-.228a1.725 1.725 0 0 1-.612-.612 1.82 1.82 0 0 1-.228-.924Zm10.31-1.44c0-.448.044-.86.132-1.236.088-.376.212-.7.372-.972.168-.272.368-.48.6-.624.232-.152.488-.228.768-.228.296 0 .556.076.78.228.232.144.428.352.588.624.168.272.296.596.384.972.088.376.132.788.132 1.236 0 .448-.044.86-.132 1.236-.088.376-.216.7-.384.972-.16.272-.356.484-.588.636a1.41 1.41 0 0 1-.78.216c-.28 0-.536-.072-.768-.216a1.998 1.998 0 0 1-.6-.636 3.468 3.468 0 0 1-.372-.972 5.423 5.423 0 0 1-.132-1.236Zm-1.392 0c0 .872.136 1.632.408 2.28.28.648.664 1.152 1.152 1.512.496.36 1.064.54 1.704.54.656 0 1.228-.18 1.716-.54.496-.36.88-.864 1.152-1.512.272-.648.408-1.408.408-2.28 0-.872-.136-1.632-.408-2.28-.272-.648-.656-1.152-1.152-1.512-.488-.36-1.06-.54-1.716-.54-.64 0-1.208.18-1.704.54-.488.36-.872.864-1.152 1.512-.272.648-.408 1.408-.408 2.28Zm12.756-1.368c0 .344-.076.648-.228.912a1.607 1.607 0 0 1-.6.624 1.66 1.66 0 0 1-.864.228c-.328 0-.62-.076-.876-.228a1.696 1.696 0 0 1-.612-.624 1.874 1.874 0 0 1-.216-.912c0-.344.072-.644.216-.9.152-.264.356-.468.612-.612.256-.152.548-.228.876-.228.32 0 .608.076.864.228.256.144.456.348.6.612.152.256.228.556.228.9Zm-1.992 5.556 2.664-3.576c.208-.272.376-.572.504-.9.136-.328.204-.688.204-1.08 0-.624-.136-1.156-.408-1.596a2.66 2.66 0 0 0-1.104-1.02 3.345 3.345 0 0 0-1.56-.36c-.576 0-1.096.12-1.56.36a2.74 2.74 0 0 0-1.116 1.02c-.272.44-.408.972-.408 1.596 0 .4.068.768.204 1.104.136.336.32.628.552.876.24.24.512.424.816.552.304.128.624.192.96.192.28 0 .524-.032.732-.096.208-.064.408-.2.6-.408l-.216.036-2.664 3.3h1.8Zm5.343-.6c0 .224.08.42.24.588a.82.82 0 0 0 .6.252.808.808 0 0 0 .612-.252.826.826 0 0 0 .24-.588.8.8 0 0 0-.24-.588.808.808 0 0 0-.611-.252.82.82 0 0 0-.6.252.8.8 0 0 0-.24.588Zm0-4.536c0 .232.08.432.24.6a.84.84 0 0 0 .6.24c.248 0 .453-.08.612-.24a.84.84 0 0 0 .24-.6.8.8 0 0 0-.24-.588.808.808 0 0 0-.611-.252.82.82 0 0 0-.6.252.8.8 0 0 0-.24.588Zm4.928.948c0-.448.044-.86.132-1.236.088-.376.212-.7.372-.972.168-.272.368-.48.6-.624.232-.152.488-.228.768-.228.296 0 .556.076.78.228.232.144.428.352.588.624.168.272.296.596.384.972.088.376.132.788.132 1.236 0 .448-.044.86-.132 1.236-.088.376-.216.7-.384.972-.16.272-.356.484-.588.636a1.41 1.41 0 0 1-.78.216c-.28 0-.536-.072-.768-.216a1.998 1.998 0 0 1-.6-.636 3.468 3.468 0 0 1-.372-.972 5.423 5.423 0 0 1-.132-1.236Zm-1.392 0c0 .872.136 1.632.408 2.28.28.648.664 1.152 1.152 1.512.496.36 1.064.54 1.704.54.656 0 1.228-.18 1.716-.54.496-.36.88-.864 1.152-1.512.272-.648.408-1.408.408-2.28 0-.872-.136-1.632-.408-2.28-.272-.648-.656-1.152-1.152-1.512-.488-.36-1.06-.54-1.716-.54-.64 0-1.208.18-1.704.54-.488.36-.872.864-1.152 1.512-.272.648-.408 1.408-.408 2.28Zm9.252 0c0-.448.044-.86.132-1.236.088-.376.212-.7.372-.972.168-.272.368-.48.6-.624.232-.152.488-.228.768-.228.296 0 .556.076.78.228.232.144.428.352.588.624.168.272.296.596.384.972.088.376.132.788.132 1.236 0 .448-.044.86-.132 1.236-.088.376-.216.7-.384.972-.16.272-.356.484-.588.636a1.41 1.41 0 0 1-.78.216c-.28 0-.536-.072-.768-.216a1.998 1.998 0 0 1-.6-.636 3.468 3.468 0 0 1-.372-.972 5.423 5.423 0 0 1-.132-1.236Zm-1.392 0c0 .872.136 1.632.408 2.28.28.648.664 1.152 1.152 1.512.496.36 1.064.54 1.704.54.656 0 1.228-.18 1.716-.54.496-.36.88-.864 1.152-1.512.272-.648.408-1.408.408-2.28 0-.872-.136-1.632-.408-2.28-.272-.648-.656-1.152-1.152-1.512-.488-.36-1.06-.54-1.716-.54-.64 0-1.208.18-1.704.54-.488.36-.872.864-1.152 1.512-.272.648-.408 1.408-.408 2.28Zm11.397 1.932h2.46v-1.164h-2.46v1.164Zm7.076 2.268h6.408v-1.32h-3.648l2.388-2.34c.344-.32.62-.684.828-1.092.216-.408.324-.832.324-1.272 0-.28-.06-.568-.18-.864a2.382 2.382 0 0 0-.528-.816 2.557 2.557 0 0 0-.888-.6c-.36-.16-.784-.24-1.272-.24-.64 0-1.184.136-1.632.408a2.59 2.59 0 0 0-1.008 1.104c-.224.464-.336.996-.336 1.596h1.404c0-.368.06-.692.18-.972.128-.28.308-.492.54-.636.232-.152.508-.228.828-.228.232 0 .436.04.612.12.176.072.324.172.444.3.128.128.22.272.276.432.064.152.096.308.096.468 0 .224-.036.436-.108.636-.072.2-.18.4-.324.6-.144.2-.316.408-.516.624l-3.888 4.092Zm8.262-6.432 1.944-.54v6.972h1.404v-8.532l-3.348.756v1.344Zm6.152 5.82c0 .224.08.42.24.588a.82.82 0 0 0 .6.252.808.808 0 0 0 .612-.252.826.826 0 0 0 .24-.588.8.8 0 0 0-.24-.588.808.808 0 0 0-.612-.252.82.82 0 0 0-.6.252.8.8 0 0 0-.24.588Zm0-4.536c0 .232.08.432.24.6a.84.84 0 0 0 .6.24c.248 0 .452-.08.612-.24a.84.84 0 0 0 .24-.6.8.8 0 0 0-.24-.588.808.808 0 0 0-.612-.252.82.82 0 0 0-.6.252.8.8 0 0 0-.24.588Zm4.927.948c0-.448.044-.86.132-1.236.088-.376.212-.7.372-.972.168-.272.368-.48.6-.624.232-.152.488-.228.768-.228.296 0 .556.076.78.228.232.144.428.352.588.624.168.272.296.596.384.972.088.376.132.788.132 1.236 0 .448-.044.86-.132 1.236-.088.376-.216.7-.384.972-.16.272-.356.484-.588.636a1.41 1.41 0 0 1-.78.216c-.28 0-.536-.072-.768-.216a1.998 1.998 0 0 1-.6-.636 3.468 3.468 0 0 1-.372-.972 5.423 5.423 0 0 1-.132-1.236Zm-1.392 0c0 .872.136 1.632.408 2.28.28.648.664 1.152 1.152 1.512.496.36 1.064.54 1.704.54.656 0 1.228-.18 1.716-.54.496-.36.88-.864 1.152-1.512.272-.648.408-1.408.408-2.28 0-.872-.136-1.632-.408-2.28-.272-.648-.656-1.152-1.152-1.512-.488-.36-1.06-.54-1.716-.54-.64 0-1.208.18-1.704.54-.488.36-.872.864-1.152 1.512-.272.648-.408 1.408-.408 2.28Zm9.252 0c0-.448.044-.86.132-1.236.088-.376.212-.7.372-.972.168-.272.368-.48.6-.624.232-.152.488-.228.768-.228.296 0 .556.076.78.228.232.144.428.352.588.624.168.272.296.596.384.972.088.376.132.788.132 1.236 0 .448-.044.86-.132 1.236-.088.376-.216.7-.384.972-.16.272-.356.484-.588.636a1.41 1.41 0 0 1-.78.216c-.28 0-.536-.072-.768-.216a1.998 1.998 0 0 1-.6-.636 3.468 3.468 0 0 1-.372-.972 5.423 5.423 0 0 1-.132-1.236Zm-1.392 0c0 .872.136 1.632.408 2.28.28.648.664 1.152 1.152 1.512.496.36 1.064.54 1.704.54.656 0 1.228-.18 1.716-.54.496-.36.88-.864 1.152-1.512.272-.648.408-1.408.408-2.28 0-.872-.136-1.632-.408-2.28-.272-.648-.656-1.152-1.152-1.512-.488-.36-1.06-.54-1.716-.54-.64 0-1.208.18-1.704.54-.488.36-.872.864-1.152 1.512-.272.648-.408 1.408-.408 2.28Z" fill="#828281"/></g><path d="M155.812 134.942a16.126 16.126 0 0 0-16.124 16.125c0 8.157 13.5 22.594 15.787 24.994a.444.444 0 0 0 .328.142.442.442 0 0 0 .328-.142c2.288-2.381 15.788-16.875 15.788-24.994a16.124 16.124 0 0 0-16.107-16.125Zm0 21.882a5.757 5.757 0 1 1 .115-11.515 5.757 5.757 0 0 1-.115 11.515Z" fill="#C89D6C"/><defs><clipPath id="b"><path fill="#fff" transform="translate(37 32.414)" d="M0 0h109v40.653H0z"/></clipPath><filter id="a" x="0" y=".414" width="312" height="171.653" filterUnits="userSpaceOnUse" color-interpolation-filters="sRGB"><feFlood flood-opacity="0" result="BackgroundImageFix"/><feColorMatrix in="SourceAlpha" values="0 0 0 0 0 0 0 0 0 0 0 0 0 0 0 0 0 0 127 0" result="hardAlpha"/><feOffset dy="4"/><feGaussianBlur stdDeviation="8.5"/><feComposite in2="hardAlpha" operator="out"/><feColorMatrix values="0 0 0 0 0 0 0 0 0 0 0 0 0 0 0 0 0 0 0.11 0"/><feBlend in2="BackgroundImageFix" result="effect1_dropShadow_2521_1016"/><feBlend in="SourceGraphic" in2="effect1_dropShadow_2521_1016" result="shape"/></filter></defs></svg>