<svg width="20" height="21" fill="none" xmlns="http://www.w3.org/2000/svg"><g clip-path="url(#a)"><path d="M15.184 17.701c-.108 0-.217-.008-.317-.025C8.484 16.793 3.41 11.718 2.526 5.335A2.318 2.318 0 0 1 4.809 2.7h2.75c.717 0 1.317.509 1.442 1.209l.325 1.824a2.322 2.322 0 0 1-.934 2.284l-.275.191a13.385 13.385 0 0 0 3.884 3.859l.175-.242a2.321 2.321 0 0 1 2.283-.942l1.825.325c.7.126 1.208.734 1.208 1.442v2.75c0 .667-.291 1.3-.791 1.742a2.332 2.332 0 0 1-1.517.558ZM4.809 3.951c-.308 0-.592.125-.8.367-.2.233-.292.542-.25.85.808 5.825 5.45 10.466 11.275 11.275.308.041.617-.05.85-.25.233-.209.367-.484.367-.8v-2.75a.207.207 0 0 0-.175-.209l-1.825-.324c-.409-.067-.809.1-1.042.433l-.517.725a.629.629 0 0 1-.833.175A14.513 14.513 0 0 1 6.742 8.36a.617.617 0 0 1 .175-.825l.742-.525c.333-.234.5-.642.433-1.042l-.325-1.842a.214.214 0 0 0-.208-.175h-2.75Z" fill="#fff"/></g><defs><clipPath id="a"><path fill="#fff" transform="translate(0 .201)" d="M0 0h20v20H0z"/></clipPath></defs></svg>