<svg width="61" height="60" fill="none" xmlns="http://www.w3.org/2000/svg"><path d="M19.32 20.135a.835.835 0 0 1-.65-1.365 14.966 14.966 0 0 1 11.665-5.557c4.468 0 8.672 1.968 11.536 5.4a.838.838 0 0 1-1.285 1.074 13.317 13.317 0 0 0-10.25-4.799c-4.04 0-7.817 1.8-10.365 4.938a.84.84 0 0 1-.651.309ZM44.521 29.073a.838.838 0 0 1-.837-.837c0-2.46-.674-4.863-1.95-6.948-.005-.008-.01-.015-.013-.023a.837.837 0 0 1 1.45-.837 14.978 14.978 0 0 1 2.187 7.807.837.837 0 0 1-.837.838ZM16.148 29.073a.838.838 0 0 1-.838-.837c0-2.313.513-4.532 1.523-6.594a.837.837 0 1 1 1.504.737 13.2 13.2 0 0 0-1.352 5.857.837.837 0 0 1-.837.837ZM11.787 29.039H6.13a.838.838 0 0 1 0-1.675h5.657a.838.838 0 0 1 0 1.675ZM54.537 28.552H48.88a.838.838 0 0 1 0-1.675h5.657a.838.838 0 0 1 0 1.675ZM46.273 19.31a.838.838 0 0 1-.418-1.563l4.899-2.828a.838.838 0 1 1 .837 1.451L46.692 19.2a.844.844 0 0 1-.419.111ZM39.395 12.611a.835.835 0 0 1-.725-1.256L41.5 6.456a.839.839 0 0 1 1.45.837l-2.828 4.9a.84.84 0 0 1-.727.418ZM30.09 10.249a.838.838 0 0 1-.838-.837V3.755a.838.838 0 0 1 1.674 0v5.657a.837.837 0 0 1-.837.837ZM20.852 12.855a.838.838 0 0 1-.726-.418l-2.828-4.9a.838.838 0 0 1 1.451-.837l2.829 4.9a.838.838 0 0 1-.726 1.255ZM14.15 19.733a.835.835 0 0 1-.418-.112l-4.9-2.828a.839.839 0 0 1 .838-1.451l4.9 2.828a.839.839 0 0 1-.42 1.563Z" fill="#C89D6C"/><path d="M21.98 26.499h-1.81a3.425 3.425 0 0 1-3.422-3.421v-1.34a3.425 3.425 0 0 1 3.421-3.421 3.425 3.425 0 0 1 3.422 3.421v3.15c0 .89-.723 1.611-1.61 1.611Zm-1.812-6.508c-.964 0-1.747.784-1.747 1.747v1.34c0 .964.784 1.747 1.747 1.747h1.747v-3.087a1.748 1.748 0 0 0-1.747-1.747ZM20.158 56.915h-5.95a.836.836 0 0 1-.707-.39 1.907 1.907 0 0 1-.236-1.576c.289-1.023 1.356-1.8 2.02-2.196l-.34-12.252a.837.837 0 0 1 1.673-.046l.353 12.764a.837.837 0 0 1-.469.774c-.512.253-1.295.793-1.555 1.247h4.373l.002-10.914a.838.838 0 0 1 1.675 0l-.003 11.752a.834.834 0 0 1-.836.837Z" fill="#232323"/><path d="M26.114 56.915h-5.95a.838.838 0 0 1-.837-.837l-.003-11.752a.838.838 0 0 1 1.675 0L21 55.24h4.373c-.26-.454-1.043-.994-1.557-1.248a.841.841 0 0 1-.467-.775l.353-12.763a.837.837 0 0 1 .837-.813h.024a.837.837 0 0 1 .813.859l-.339 12.251c.663.397 1.73 1.174 2.02 2.197.153.545.072 1.09-.237 1.576a.834.834 0 0 1-.707.39Z" fill="#232323"/><path d="M24.54 41.316h-8.755a.837.837 0 0 1-.838-.837l-.004-7.656a.837.837 0 1 1 1.675 0l.004 6.819h7.083v-6.82a.838.838 0 0 1 1.674 0v7.657a.84.84 0 0 1-.838.837Z" fill="#232323"/><path d="M13.115 43.892c-.184 0-.311-.013-.351-.018a.837.837 0 0 1-.739-.832V32.547c0-2.491 1.855-4.586 4.316-4.873a33.163 33.163 0 0 1 3.81-.222h.015a.838.838 0 0 1 0 1.674h-.014c-1.201 0-2.418.072-3.617.211a3.22 3.22 0 0 0-2.834 3.21v9.595c.235-.06.487-.166.697-.356.364-.329.548-.873.548-1.618V32.82a.838.838 0 0 1 1.674 0v7.348c0 1.25-.377 2.218-1.119 2.877-.829.738-1.851.847-2.386.847Z" fill="#232323"/><path d="M27.212 43.892c-.536 0-1.557-.11-2.384-.844-.743-.66-1.12-1.629-1.12-2.877v-7.348a.838.838 0 0 1 1.675 0v7.348c0 .745.184 1.29.548 1.618.21.189.462.296.697.356V32.55a3.22 3.22 0 0 0-2.836-3.209 31.368 31.368 0 0 0-3.617-.21h-.014a.837.837 0 1 1 0-1.675h.014c1.267 0 2.548.074 3.811.222 2.46.286 4.316 2.382 4.316 4.872v10.496a.837.837 0 0 1-.738.832c-.042.002-.168.015-.352.015ZM32.988 44.06c-.184 0-.311-.012-.351-.017a.837.837 0 0 1-.739-.832V32.715c0-2.49 1.856-4.585 4.316-4.872a33.161 33.161 0 0 1 3.81-.222h.015a.838.838 0 0 1 0 1.674h-.014c-1.201 0-2.418.071-3.617.211a3.22 3.22 0 0 0-2.835 3.21v9.596c.234-.06.487-.165.697-.355.365-.33.549-.874.549-1.619V32.99a.838.838 0 0 1 1.674 0v7.348c0 1.25-.376 2.219-1.119 2.877-.829.736-1.85.846-2.386.846Z" fill="#232323"/><path d="M47.086 44.06c-.536 0-1.557-.11-2.385-.843-.742-.66-1.119-1.629-1.119-2.877v-7.348a.838.838 0 0 1 1.674 0v7.348c0 .745.185 1.29.549 1.618.21.189.462.296.697.356v-9.596a3.22 3.22 0 0 0-2.835-3.21 31.368 31.368 0 0 0-3.617-.21c-.004 0-.005.002-.014 0a.837.837 0 1 1 0-1.674h.014c1.267 0 2.548.074 3.811.222 2.46.286 4.316 2.381 4.316 4.872v10.496a.837.837 0 0 1-.738.832c-.042.001-.17.015-.353.015ZM41.536 26.589c-.051 0-.103-.003-.155-.009l-.03-.004-2.046-.285c-.012 0-.025-.004-.036-.005-.123-.022-2.997-.606-2.862-5.14.071-2.38 2.057-3.08 3.14-3.123.325-.04 1.657-.129 2.695.835.95.881 1.337 2.317 1.156 4.269-.085.982-.228 1.835-.404 2.393a1.53 1.53 0 0 1-1.458 1.069Zm-1.96-1.95 1.858.259c.122-.445.232-1.149.298-1.92.128-1.383-.084-2.378-.616-2.882-.554-.524-1.36-.413-1.369-.411a.6.6 0 0 1-.111.01c-.247.01-1.513.13-1.553 1.5-.088 2.907 1.316 3.396 1.493 3.445Z" fill="#232323"/><path d="M33.218 26.222a4.045 4.045 0 0 1-1.486-.285l-.306-.12a.838.838 0 0 1-.471-1.085l1.537-3.9a3.192 3.192 0 0 1 1.707-1.767 3.189 3.189 0 0 1 2.456-.042l1.084.427c.43.17.642.656.472 1.086l-1.231 3.121a4.02 4.02 0 0 1-2.152 2.227 4.03 4.03 0 0 1-1.61.338Zm-.377-1.707c.444.073.9.017 1.322-.167a2.35 2.35 0 0 0 1.261-1.306l.924-2.343-.306-.12a1.525 1.525 0 0 0-1.175.02 1.528 1.528 0 0 0-.816.844l-1.21 3.072ZM40.034 57.082h-5.95a.836.836 0 0 1-.708-.389 1.903 1.903 0 0 1-.235-1.577c.288-1.023 1.356-1.8 2.019-2.196l-.17-6.078a.837.837 0 0 1 .814-.86h.024c.452 0 .823.36.837.814l.183 6.589a.837.837 0 0 1-.469.774c-.512.253-1.295.793-1.555 1.248h4.373v-8.589a.838.838 0 0 1 1.675 0l-.001 9.426a.837.837 0 0 1-.837.838Z" fill="#232323"/><path d="M45.99 57.082h-5.95a.838.838 0 0 1-.837-.837L39.2 46.82a.838.838 0 0 1 1.675 0l.001 8.588h4.373c-.26-.455-1.044-.995-1.557-1.249a.841.841 0 0 1-.468-.774l.183-6.59a.838.838 0 0 1 1.673.047l-.169 6.078c.663.396 1.73 1.172 2.02 2.196a1.907 1.907 0 0 1-.236 1.577.832.832 0 0 1-.706.39ZM44.417 39.707a.838.838 0 0 1-.837-.837v-5.88a.838.838 0 0 1 1.675 0v5.88a.837.837 0 0 1-.838.837ZM35.658 39.702a.837.837 0 0 1-.837-.837l-.003-5.875a.837.837 0 1 1 1.675 0l.003 5.875a.836.836 0 0 1-.838.837Z" fill="#232323"/><path d="M46.347 47.657H33.722a.837.837 0 0 1-.813-1.036l1.934-7.955a.836.836 0 0 1 .813-.638h8.758c.386 0 .722.263.813.639l1.934 7.954a.835.835 0 0 1-.814 1.035Zm-11.559-1.675h10.495l-1.527-6.28h-7.441l-1.527 6.28Z" fill="#232323"/></svg>