<svg width="61" height="60" fill="none" xmlns="http://www.w3.org/2000/svg"><path d="M41.042 37.249a.837.837 0 0 1-.74-1.224 10.812 10.812 0 0 0-1.96-12.686 10.78 10.78 0 0 0-7.675-3.18 10.78 10.78 0 0 0-7.676 3.18 10.812 10.812 0 0 0-1.96 12.686.837.837 0 1 1-1.484.773 12.479 12.479 0 0 1 2.26-14.643 12.45 12.45 0 0 1 8.861-3.67c3.347 0 6.494 1.302 8.86 3.67a12.479 12.479 0 0 1 2.26 14.643.849.849 0 0 1-.746.45ZM52.437 31.852h-5.233a.838.838 0 0 1 0-1.675h5.233a.838.838 0 0 1 0 1.675ZM42.36 20.159a.839.839 0 0 1-.592-1.43l3.7-3.701a.837.837 0 1 1 1.184 1.185l-3.7 3.7a.831.831 0 0 1-.592.246ZM30.665 15.315a.838.838 0 0 1-.837-.837V9.246a.838.838 0 0 1 1.675 0v5.232a.838.838 0 0 1-.838.837ZM18.973 20.159a.833.833 0 0 1-.592-.246l-3.7-3.7a.837.837 0 1 1 1.183-1.185l3.7 3.7a.839.839 0 0 1-.591 1.43ZM14.128 31.852H8.896a.838.838 0 0 1 0-1.675h5.232a.838.838 0 0 1 0 1.675Z" fill="#C89D6C"/><path d="M56.732 44.644c-2.397 0-3.654-.727-4.764-1.369-1.062-.614-1.977-1.142-3.925-1.142-1.948 0-2.863.53-3.925 1.142-1.11.642-2.367 1.37-4.764 1.37-2.397 0-3.654-.728-4.763-1.37-1.062-.614-1.978-1.142-3.926-1.142-1.947 0-2.864.53-3.925 1.142-1.109.642-2.366 1.37-4.763 1.37-2.398 0-3.655-.728-4.764-1.37-1.062-.614-1.977-1.142-3.925-1.142-1.948 0-2.865.53-3.925 1.142-1.11.642-2.367 1.37-4.764 1.37a.838.838 0 0 1 0-1.675c1.948 0 2.865-.53 3.925-1.143 1.11-.642 2.367-1.369 4.764-1.369 2.397 0 3.654.727 4.764 1.369 1.061.614 1.977 1.143 3.925 1.143 1.947 0 2.864-.53 3.925-1.143 1.109-.642 2.366-1.369 4.763-1.369 2.398 0 3.655.727 4.764 1.369 1.062.614 1.977 1.143 3.925 1.143 1.948 0 2.864-.53 3.925-1.143 1.11-.642 2.367-1.369 4.763-1.369 2.397 0 3.654.727 4.763 1.369 1.062.614 1.978 1.143 3.926 1.143a.838.838 0 0 1 .001 1.674ZM56.732 51.593c-2.397 0-3.654-.727-4.764-1.369-1.062-.614-1.977-1.143-3.925-1.143-1.948 0-2.863.53-3.925 1.143-1.11.642-2.367 1.369-4.764 1.369-2.397 0-3.654-.727-4.763-1.369-1.062-.614-1.978-1.143-3.926-1.143-1.947 0-2.864.53-3.925 1.143-1.109.642-2.366 1.369-4.763 1.369-2.398 0-3.655-.727-4.764-1.369-1.062-.614-1.977-1.143-3.925-1.143-1.948 0-2.865.53-3.925 1.143-1.11.642-2.367 1.369-4.764 1.369a.838.838 0 0 1 0-1.674c1.948 0 2.865-.53 3.925-1.143 1.11-.642 2.367-1.369 4.764-1.369 2.397 0 3.654.727 4.764 1.369 1.061.614 1.977 1.143 3.925 1.143 1.947 0 2.864-.53 3.925-1.143 1.109-.642 2.366-1.369 4.763-1.369 2.398 0 3.655.727 4.764 1.369 1.062.614 1.977 1.143 3.925 1.143 1.948 0 2.864-.53 3.925-1.143 1.11-.642 2.367-1.369 4.763-1.369 2.397 0 3.654.727 4.763 1.369 1.062.614 1.978 1.143 3.926 1.143a.838.838 0 0 1 .001 1.674ZM56.731 37.249H5.316a.838.838 0 0 1 0-1.675H56.73a.838.838 0 0 1 .002 1.675Z" fill="#232323"/></svg>