<svg width="60" height="60" fill="none" xmlns="http://www.w3.org/2000/svg"><path fill="#fff" d="M0 0h60v60H0z"/><path d="M32.734 50.823h-2.676a.838.838 0 0 1 0-1.675h2.676a.838.838 0 0 1 0 1.675ZM32.734 46.61h-2.676a.838.838 0 0 1 0-1.674h2.676a.838.838 0 0 1 0 1.674ZM26.43 50.822h-2.677a.838.838 0 0 1 0-1.674h2.677a.838.838 0 0 1 0 1.674ZM26.43 46.61h-2.677a.838.838 0 0 1 0-1.674h2.677a.838.838 0 0 1 0 1.675ZM32.748 42.55h-2.676a.838.838 0 0 1 0-1.675h2.676a.838.838 0 0 1 0 1.675ZM17.19 16.182h-1.443a.838.838 0 0 1 0-1.674h1.443a.838.838 0 0 1 0 1.674ZM17.19 19.85h-1.443a.838.838 0 0 1 0-1.674h1.443a.838.838 0 0 1 0 1.675ZM17.19 23.518h-1.443a.838.838 0 0 1 0-1.675h1.443a.838.838 0 0 1 0 1.675ZM17.19 27.185h-1.443a.838.838 0 0 1 0-1.675h1.443a.838.838 0 0 1 0 1.675Z" fill="#C89D6C"/><path d="M32.734 35.782h-.624v-9.794a.838.838 0 0 0-.837-.837h-.486v-4.667a.84.84 0 0 0-.573-.796v-5.553a.838.838 0 0 0-.837-.837h-.296V5.775a.838.838 0 0 0-1.675 0V13.3h-.59a.838.838 0 0 0-.837.837v3.846a.837.837 0 0 0-.713.827v12.024h-.311a.838.838 0 0 0-.838.837v8.827h-.364a.838.838 0 0 0-.837.837v12.85c0 .462.375.837.837.837h8.98a.838.838 0 0 0 .838-.837V36.62a.838.838 0 0 0-.837-.838Zm-.838 17.565H24.59V42.172h.365a.838.838 0 0 0 .837-.837v-8.828h.311a.838.838 0 0 0 .837-.837V19.637a.837.837 0 0 0 .713-.828v-3.836h.886v5.51c0 .37.24.684.574.796v4.71c0 .461.375.837.837.837h.486v9.794c0 .461.375.837.837.837h.623v15.89Z" fill="#232323"/><path d="M12.868 27.283c.305.116.623.25.947.402V10.197h5.31v22a15.815 15.815 0 0 1 1.674 3.157V9.36a.838.838 0 0 0-.837-.837h-6.984a.838.838 0 0 0-.837.837v17.672c.238.076.481.16.727.251ZM11.44 41.002H9.76a.838.838 0 0 1 0-1.675h1.682a.838.838 0 1 1-.002 1.675ZM15.398 41.002h-1.682a.838.838 0 0 1 0-1.675H15.4a.838.838 0 1 1-.001 1.675ZM11.44 43.806H9.76a.838.838 0 0 1 0-1.675h1.682a.838.838 0 1 1-.002 1.675ZM11.44 35.408H9.76a.838.838 0 0 1 0-1.674h1.682a.838.838 0 0 1-.002 1.674ZM15.398 43.806h-1.682a.838.838 0 0 1 0-1.675H15.4a.838.838 0 1 1-.001 1.675ZM11.44 49.413H9.76a.838.838 0 0 1 0-1.674h1.682a.838.838 0 1 1-.002 1.675ZM15.398 49.413h-1.682a.838.838 0 0 1 0-1.674H15.4a.838.838 0 1 1-.001 1.675ZM11.44 52.218H9.76a.838.838 0 0 1 0-1.674h1.682a.838.838 0 0 1-.002 1.674ZM15.398 52.218h-1.682a.838.838 0 0 1 0-1.674H15.4a.838.838 0 1 1-.001 1.674Z" fill="#C89D6C"/><path d="M19.7 37.326c-.022-.073-.046-.143-.068-.212a1.525 1.525 0 0 0-.024-.076c-1.645-5.037-4.882-7.203-7.332-8.132a12.749 12.749 0 0 0-4.184-.813v-1.835a.838.838 0 0 0-1.674 0v27.928c0 .462.375.837.837.837h10.767c.336 0 .639-.201.77-.51.145-.347 3.56-8.564.908-17.187Zm-11.609.842h10.11c.672 2.338.867 4.657.806 6.767H8.09v-6.767Zm9.536-1.674H8.09v-6.727c.807.021 2.173.155 3.654.728 2.7 1.044 4.675 3.06 5.882 5.999Zm-.184 16.853H8.09V46.61h10.814c-.296 3.19-1.093 5.705-1.462 6.737ZM45.59 30.995V25.57c.46-.54.717-1.23.717-1.945 0-1.05-.534-2.006-1.427-2.557a.838.838 0 0 0-.88 1.426 1.329 1.329 0 0 1 .19 2.12c-.242.22-.56.342-.888.342-.32 0-.626-.113-.865-.321l-.026-.024a1.313 1.313 0 0 1-.424-1.186.837.837 0 0 0-1.653-.258 3 3 0 0 0 .68 2.4v28.655c0 .462.376.837.838.837h2.904a.838.838 0 0 0 .837-.837V31.006c-.004-.001-.003-.006-.003-.011Zm-2.905.837h1.23v4.008h-1.23v-4.008Zm0 5.682h1.23v4.007h-1.23v-4.007Zm1.23-10.95v3.594h-1.23v-3.593c.2.041.406.065.614.065.21 0 .414-.023.615-.065Zm-1.23 26.823V43.196h1.23v10.191h-1.23Z" fill="#232323"/><path d="M40.891 28.909a.88.88 0 0 1-.231-.032c-1.877-.54-3.118-1.712-3.492-3.299-.322-1.364.059-2.848 1.029-4.143-1.391-.291-2.813.119-3.712 1.14a.837.837 0 0 1-1.458-.664 5.68 5.68 0 0 1 2.42-3.951 5.54 5.54 0 0 1 1.445-.7 3.406 3.406 0 0 0-1.51.045.837.837 0 0 1-.838-1.367c1.578-1.772 3.841-2.513 5.91-1.934a4.994 4.994 0 0 1 2.848 2.068 4.992 4.992 0 0 1 2.848-2.068c2.068-.58 4.333.162 5.91 1.934a.837.837 0 0 1-.839 1.367 3.406 3.406 0 0 0-1.509-.044c.506.157.991.392 1.445.699a5.68 5.68 0 0 1 2.42 3.951.838.838 0 0 1-1.457.664c-.58-.66-1.387-1.071-2.272-1.194.437.706.671 1.488.666 2.276-.01 1.392-.751 2.724-2.087 3.75a.837.837 0 0 1-1.302-.935c.21-.612.846-2.475-2.559-3.764-.471-.179-.951-.301-1.112-.307l-.004.001c-.075.031-.291.15-.833.62-1.875 1.628-2.24 3.145-1.084 4.508a.837.837 0 0 1-.642 1.379Zm-3.57-9.239c.908 0 1.839.211 2.71.648a.839.839 0 0 1 .192 1.364c-1.16 1.07-1.694 2.382-1.426 3.513.07.302.2.583.384.835-.041-1.419.747-2.89 2.335-4.27.625-.544 1.146-.923 1.634-1.004.43-.084 1.104.046 2.007.388 1.904.721 3.128 1.796 3.598 3.102a2.35 2.35 0 0 0 .081-.599c.006-.851-.449-1.681-1.28-2.338a.839.839 0 0 1 .32-1.471 5.828 5.828 0 0 1 2.975.049 3.821 3.821 0 0 0-3.75-1.074.838.838 0 0 1-.84-1.356 5.52 5.52 0 0 1 2.669-1.727 3.729 3.729 0 0 0-2.332-.113c-1.29.361-2.217 1.422-2.477 2.837a.837.837 0 0 1-1.646 0c-.26-1.415-1.185-2.476-2.476-2.837a3.728 3.728 0 0 0-2.331.113 5.53 5.53 0 0 1 2.67 1.727.838.838 0 0 1-.842 1.355 3.822 3.822 0 0 0-3.75 1.076 5.787 5.787 0 0 1 1.575-.218Z" fill="#C89D6C"/></svg>