<svg width="60" height="60" fill="none" xmlns="http://www.w3.org/2000/svg"><path d="M52.197 50.265H7.805a.903.903 0 0 1-.903-.904V10.64a.904.904 0 1 1 1.806 0v37.816h43.489c.5 0 .903.405.903.904 0 .5-.404.905-.903.905Z" fill="#232323"/><path d="M15.737 41.813a3.23 3.23 0 0 1-3.227-3.227 3.23 3.23 0 0 1 3.227-3.228 3.23 3.23 0 0 1 3.228 3.228 3.233 3.233 0 0 1-3.228 3.227Zm0-4.647c-.783 0-1.42.637-1.42 1.42 0 .782.637 1.42 1.42 1.42.783 0 1.42-.636 1.42-1.42a1.422 1.422 0 0 0-1.42-1.42Zm20.068-3.485a3.23 3.23 0 0 1-3.227-3.227 3.23 3.23 0 0 1 3.227-3.228 3.229 3.229 0 0 1 3.226 3.227 3.23 3.23 0 0 1-3.226 3.228Zm0-4.647c-.783 0-1.42.637-1.42 1.42a1.42 1.42 0 1 0 1.42-1.42Zm-6.841-1.229a3.23 3.23 0 0 1-3.228-3.227 3.23 3.23 0 0 1 3.228-3.228 3.23 3.23 0 0 1 3.227 3.228 3.23 3.23 0 0 1-3.227 3.227Zm0-4.645c-.783 0-1.42.636-1.42 1.42a1.421 1.421 0 0 0 2.84 0c0-.784-.637-1.42-1.42-1.42Zm19.748-3.356a3.231 3.231 0 0 1-3.227-3.227 3.23 3.23 0 0 1 3.227-3.228 3.229 3.229 0 0 1 3.226 3.228 3.23 3.23 0 0 1-3.226 3.227Zm0-4.646c-.783 0-1.42.636-1.42 1.419a1.42 1.42 0 1 0 1.42-1.419Z" fill="#C89D6C"/><path d="M26.493 25.193 16.426 36.099l1.328 1.226L27.82 26.418l-1.328-1.225ZM31.637 25.2l-1.342 1.21 2.968 3.29 1.342-1.21-2.968-3.29ZM46.52 17.878l-9.938 10.067 1.286 1.27 9.938-10.068-1.286-1.27Z" fill="#C89D6C"/></svg>