<svg width="61" height="60" fill="none" xmlns="http://www.w3.org/2000/svg"><path d="M53.018 53.407H7.649a.87.87 0 0 1-.771-1.271l6.54-12.554a.868.868 0 0 1 .771-.468h7.654a.87.87 0 0 1 0 1.739h-7.126L9.082 51.668h42.5l-5.634-10.815h-7.15a.87.87 0 0 1 0-1.739h7.677c.324 0 .62.18.772.468l6.541 12.554a.868.868 0 0 1-.77 1.271Z" fill="#232323"/><path d="M30.389 48.066a.871.871 0 0 1-.755-.437L18.189 27.695c-.522-.91-.905-1.743-1.175-2.545a14.077 14.077 0 0 1-.721-4.465c0-3.88 1.624-7.626 4.454-10.28 2.872-2.693 6.625-4.035 10.574-3.781 6.978.449 12.62 6.049 13.122 13.024a14.124 14.124 0 0 1-.585 5.186c-.287.935-.707 1.879-1.285 2.886l-11.43 19.91a.866.866 0 0 1-.754.436Zm-10.69-21.238L30.39 45.45l10.676-18.595c.512-.893.883-1.722 1.132-2.532.45-1.466.623-2.998.512-4.55-.441-6.113-5.383-11.019-11.5-11.412-3.461-.224-6.754.954-9.271 3.314a12.236 12.236 0 0 0-3.905 9.01c0 1.342.213 2.657.633 3.913.23.694.567 1.423 1.032 2.231Z" fill="#C89D6C"/><path d="M30.387 27.777c-3.91 0-7.092-3.181-7.092-7.091s3.181-7.092 7.092-7.092c3.912 0 7.092 3.18 7.092 7.092a7.098 7.098 0 0 1-7.091 7.091Zm0-12.444a5.359 5.359 0 0 0-5.352 5.353 5.359 5.359 0 0 0 5.352 5.353 5.359 5.359 0 0 0 5.353-5.353c0-2.951-2.4-5.352-5.353-5.352Z" fill="#232323"/></svg>