<svg width="61" height="60" fill="none" xmlns="http://www.w3.org/2000/svg"><path d="M45.764 49.744H30.219a.84.84 0 0 1-.837-.837.84.84 0 0 1 .837-.837h15.559c.85 0 1.549-.698 1.549-1.55V12.517h-25.34v26.512a.84.84 0 0 1-.837.837.84.84 0 0 1-.837-.837V11.679a.84.84 0 0 1 .837-.837h27a.84.84 0 0 1 .837.837v34.856a3.213 3.213 0 0 1-3.223 3.21Z" fill="#232323"/><path d="M33.33 45.698a3.05 3.05 0 0 0-1.73-2.75c.322-.487.517-1.074.517-1.688a3.055 3.055 0 0 0-3.056-3.055H16.126a3.055 3.055 0 0 0-3.056 3.056 3.05 3.05 0 0 0 1.73 2.748 3.087 3.087 0 0 0-.516 1.689c0 .544.14 1.046.391 1.493a3.056 3.056 0 0 0 .768 6.014h12.92a3.055 3.055 0 0 0 2.666-4.55 3.053 3.053 0 0 0 2.302-2.957Zm-17.204-5.833h12.921c.768 0 1.382.628 1.382 1.381 0 .754-.628 1.382-1.382 1.382H16.126a1.385 1.385 0 0 1-1.381-1.382c0-.753.628-1.38 1.381-1.38ZM28.363 51.53h-12.92a1.385 1.385 0 0 1-1.382-1.381c0-.754.628-1.382 1.382-1.382h12.92c.768 0 1.382.628 1.382 1.382 0 .753-.614 1.381-1.382 1.381Zm1.898-4.437H17.34a1.385 1.385 0 0 1-1.381-1.381c0-.754.628-1.382 1.381-1.382H30.261c.768 0 1.381.628 1.381 1.382 0 .753-.613 1.381-1.38 1.381ZM25.712 14.833a.84.84 0 0 1-.837-.838v-6.32a.84.84 0 0 1 .837-.838.84.84 0 0 1 .837.837v6.321a.83.83 0 0 1-.837.838ZM43.587 14.833a.84.84 0 0 1-.837-.838v-6.32a.84.84 0 0 1 .837-.838.84.84 0 0 1 .837.837v6.321a.83.83 0 0 1-.837.838ZM34.657 14.833a.84.84 0 0 1-.837-.838v-6.32a.84.84 0 0 1 .837-.838.84.84 0 0 1 .838.837v6.321a.84.84 0 0 1-.837.838Z" fill="#C89D6C"/><path d="M42.96 23.819H26.354a.84.84 0 0 1-.837-.838.84.84 0 0 1 .837-.837h16.604a.84.84 0 0 1 .838.837.84.84 0 0 1-.838.838ZM42.96 29.456H26.354a.84.84 0 0 1-.837-.837.84.84 0 0 1 .837-.838h16.604a.84.84 0 0 1 .838.838.84.84 0 0 1-.838.837ZM34.894 35.093h-8.54a.84.84 0 0 1-.836-.837.84.84 0 0 1 .837-.837h8.54a.84.84 0 0 1 .836.837.84.84 0 0 1-.837.837ZM42.96 35.093h-4.535a.84.84 0 0 1-.837-.837.84.84 0 0 1 .837-.837h4.535a.84.84 0 0 1 .837.837.84.84 0 0 1-.837.837Z" fill="#232323"/></svg>