<svg width="24" height="25" fill="none" xmlns="http://www.w3.org/2000/svg"><g clip-path="url(#a)" fill="#C89D6C"><path d="M12 2.415c-4.41 0-8 3.59-8 8 0 .58.06 1.12.17 1.62.25 1.26.83 2.46 1.67 3.47l1.09 1.3c.03.03.06.07.09.1l4.41 5.24c.14.17.35.27.57.27.22 0 .43-.1.57-.27l4.49-5.33 1.11-1.31c.83-1.01 1.41-2.21 1.65-3.44.12-.53.18-1.07.18-1.65 0-4.41-3.59-8-8-8Zm0 18.09-3.6-4.28c.35-.75 1.11-1.24 1.95-1.24h3.3c.84 0 1.6.49 1.95 1.24l-3.6 4.28Zm6.35-8.75c-.19 1.01-.66 1.97-1.33 2.79l-.4.47a3.666 3.666 0 0 0-2.97-1.53h-3.3c-1.19 0-2.29.59-2.97 1.52l-.39-.46a6.27 6.27 0 0 1-1.35-2.82c-.09-.41-.14-.84-.14-1.31 0-3.58 2.92-6.5 6.5-6.5s6.5 2.92 6.5 6.5c0 .47-.05.9-.15 1.34Z"/><path d="M14 11.915h-2c-1.52 0-2.75-1.23-2.75-2.75v-1c0-1.52 1.23-2.75 2.75-2.75s2.75 1.23 2.75 2.75v3c0 .41-.34.75-.75.75Zm-2-5c-.69 0-1.25.56-1.25 1.25v1c0 .69.56 1.25 1.25 1.25h1.25v-2.25c0-.69-.56-1.25-1.25-1.25Z"/></g><defs><clipPath id="a"><path fill="#fff" transform="translate(0 .415)" d="M0 0h24v24H0z"/></clipPath></defs></svg>