<svg width="24" height="25" fill="none" xmlns="http://www.w3.org/2000/svg"><g clip-path="url(#a)" fill="#C89D6C"><path d="M5.25 11.444c-.19 0-.38-.07-.53-.22l-2.5-2.5a.754.754 0 0 1 0-1.06c.29-.29.77-.29 1.06 0l1.97 1.97 4.97-4.96c.29-.29.77-.29 1.06 0 .29.29.29.77 0 1.06l-5.5 5.49c-.15.14-.34.22-.53.22ZM5.25 20.384c-.19 0-.38-.07-.53-.22l-2.5-2.5a.754.754 0 0 1 0-1.06c.29-.29.77-.29 1.06 0l1.97 1.97 4.97-4.96c.29-.29.77-.29 1.06 0 .29.29.29.77 0 1.06l-5.5 5.49c-.15.14-.34.22-.53.22ZM21.25 9.165h-7.5c-.41 0-.75-.34-.75-.75s.34-.75.75-.75h7.5c.41 0 .75.34.75.75s-.34.75-.75.75ZM21.25 18.165h-7.5c-.41 0-.75-.34-.75-.75s.34-.75.75-.75h7.5c.41 0 .75.34.75.75s-.34.75-.75.75Z"/></g><defs><clipPath id="a"><path fill="#fff" transform="translate(0 .415)" d="M0 0h24v24H0z"/></clipPath></defs></svg>