<svg width="24" height="25" fill="none" xmlns="http://www.w3.org/2000/svg"><g clip-path="url(#a)" fill="#C89D6C"><path d="M20.25 18.415H3.75c-.41 0-.75-.34-.75-.75s.34-.75.75-.75h16.5c.41 0 .75.34.75.75s-.34.75-.75.75ZM12 12.415c-1.65 0-3-1.35-3-3s1.35-3 3-3 3 1.35 3 3-1.35 3-3 3Zm0-4.5c-.83 0-1.5.67-1.5 1.5s.67 1.5 1.5 1.5 1.5-.67 1.5-1.5-.67-1.5-1.5-1.5Z"/><path d="M20.25 3.415H3.75c-.41 0-.75.34-.75.75v10.5c0 .41.34.75.75.75h16.5c.41 0 .75-.34.75-.75v-10.5c0-.41-.34-.75-.75-.75Zm-2.17 10.5H5.93c-.2-.69-.74-1.23-1.43-1.42v-6.21c.64-.23 1.14-.73 1.37-1.37h12.21c.19.69.73 1.23 1.42 1.43v6.15c-.69.19-1.23.73-1.42 1.42ZM20.25 21.415H3.75c-.41 0-.75-.34-.75-.75s.34-.75.75-.75h16.5c.41 0 .75.34.75.75s-.34.75-.75.75Z"/></g><defs><clipPath id="a"><path fill="#fff" transform="translate(0 .415)" d="M0 0h24v24H0z"/></clipPath></defs></svg>