<svg width="29" height="30" fill="none" xmlns="http://www.w3.org/2000/svg"><path d="m24.848 20.308 1.775-1.719a1.984 1.984 0 0 0 .044-2.805l-5.146-5.313a4.985 4.985 0 0 0-7.007-.094l-.792.768c-.14.12-.274.25-.4.386l-2.516-2.598a2.206 2.206 0 0 0-3.046-.12 2.3 2.3 0 0 0-.04 3.288l6.503 6.713M14.455 19.042l-2.019-.032a2.214 2.214 0 0 0-2.24 2.063 2.293 2.293 0 0 0 2.284 2.358l6.324.1" stroke="#fff" stroke-width="1.71" stroke-linecap="round" stroke-linejoin="round"/><path d="M23.439 22.862a.855.855 0 1 0-1.19-1.229.855.855 0 0 0 1.19 1.229Z" fill="#fff"/><path d="M12.745 6.424a5.198 5.198 0 0 0-7.376-.081 5.199 5.199 0 0 0-.074 7.298" stroke="#C89D6C" stroke-width="1.71" stroke-linecap="round" stroke-linejoin="round"/></svg>