<svg width="156" height="72" fill="none" xmlns="http://www.w3.org/2000/svg"><g clip-path="url(#a)"><path d="M42.742 23.754c-1.864-1.297-4.186-1.748-6.425-1.755-1.699.01-3.384.29-4.994.833a25.13 25.13 0 0 0-2.346.964c-2.703 1.298-5.161 3.057-7.401 5.053a58.815 58.815 0 0 1-4.34-4.793 59.86 59.86 0 0 0 4.289-3.626c2.306-2.127 4.675-4.49 5.61-7.594.656-2.07.585-4.31.02-6.395-1.53-5.873-7.892-7.54-12.81-4.62a.058.058 0 0 0-.017.013c-2.97.891-4.65 4.434-4.632 8.026.015 4.305 1.793 8.162 4.223 11.625-.64.487-1.298.959-1.963 1.405C8.28 25.377 4.25 27.285.226 29.15a.34.34 0 0 0-.195.46.33.33 0 0 0 .184.165c3.993 1.946 7.956 3.973 11.578 6.487.649.45 1.285.919 1.909 1.406-2.197 3.168-3.839 6.67-4.118 10.58-.314 3.636 1.254 8.097 4.736 9.111a.058.058 0 0 0 .031.038c.912.477 1.887.82 2.896 1.019 4.413.872 8.822-1.45 9.972-5.925a12.27 12.27 0 0 0-.053-6.405 11.133 11.133 0 0 0-1.463-2.92c-1.044-1.532-2.287-2.863-3.61-4.134a60.676 60.676 0 0 0-4.83-4.139 101.18 101.18 0 0 1 2.4-2.79c.63-.688 1.279-1.363 1.947-2.023 2.04 1.825 4.258 3.452 6.695 4.7 2.495 1.318 5.272 2.157 8.11 2.143 2.513-.01 5.157-.568 7.11-2.234 1.546-1.31 2.316-3.223 2.388-5.222-.176-2.295-1.242-4.411-3.171-5.712ZM25.25 3.874a8.48 8.48 0 0 1 1.2 2.742c.746 2.925.271 6.154-1.5 8.628-1.15 1.66-2.636 3.053-4.131 4.401a58.69 58.69 0 0 1-4.29 3.532c-.366-.46-.727-.922-1.082-1.389-.16-.216-.317-.434-.47-.654 3.34-2.77 7.195-5.872 8.053-10.362.636-3.43-1.298-7.156-4.515-8.553-1.374-.583-2.61-.714-3.695-.508C18.272.06 23.002.54 25.25 3.875ZM13.623 19.048c-2.184-3.647-3.706-8.127-2.52-12.354.998-3.467 3.67-5.254 7.153-3.858 3.011 1.215 4.907 4.664 4.348 7.866-.54 3.312-2.99 5.906-5.406 8.075a70.248 70.248 0 0 1-2.439 2.047 35.492 35.492 0 0 1-1.136-1.776Zm-7.11 13.025a135.588 135.588 0 0 0-5.416-2.617c1.797-.88 3.59-1.778 5.35-2.738 2.673-1.459 5.285-3.054 7.696-4.919a41.695 41.695 0 0 0 1.53 2 51.724 51.724 0 0 1-8.862 5.011 53.61 53.61 0 0 0-.79-.344c-.688-.307-1.513.236-1.502.994a1.081 1.081 0 0 0 1.502 1.002c.265-.108.53-.228.795-.345a52.005 52.005 0 0 1 8.818 4.993c-.465.57-.916 1.15-1.353 1.742a53.256 53.256 0 0 0-7.768-4.779Zm4.778 20.151c-.635-2.011-.552-4.233-.101-6.28.628-2.738 1.88-5.224 3.43-7.539a71.311 71.311 0 0 1 2.335 1.995c3.028 2.71 6.38 6.57 5.108 10.912-.813 2.94-3.718 5.325-6.812 4.938-2.054-.268-3.39-2.126-3.96-4.026Zm9.526-12.94c1.494 1.354 2.939 2.785 4.108 4.426a10.2 10.2 0 0 1 1.398 2.653c.575 1.935.64 3.986.189 5.954-1.25 5.314-6.996 7.097-11.673 5.164a5.997 5.997 0 0 0 2.08 0c1.8-.28 3.46-1.288 4.622-2.681 2.468-2.91 2.526-6.83.614-10.035-1.156-2-2.782-3.649-4.492-5.157a44.95 44.95 0 0 0-2.456-2.047c.432-.607.88-1.203 1.345-1.787a50.92 50.92 0 0 1 4.265 3.51ZM18.92 31.41a74.944 74.944 0 0 0-2.55 2.82 51.027 51.027 0 0 0-8.128-4.767 51.292 51.292 0 0 0 8.162-4.79 79.496 79.496 0 0 0 2.584 2.874 49.865 49.865 0 0 0 1.927 1.901 47.05 47.05 0 0 0-1.995 1.962Zm20.782 4.902c-2.427.54-4.992.335-7.361-.374-2.886-.945-5.508-2.579-7.859-4.48a40.935 40.935 0 0 1-2.259-1.987c1.911-1.82 3.984-3.469 6.286-4.758 1.43-.802 2.954-1.513 4.549-1.918 3.162-.782 6.782-.722 9.582 1.107 1.907 1.24 2.951 3.327 3.142 5.558-.154 3.717-2.546 6.081-6.08 6.852Z" fill="#C89D6C"/><path d="M57.464 25.157c0 2.969.832 4.301 4.108 4.301 1.554 0 2.442-.804 2.442-2.414v-.222h-.25v.222c0 1.443-.832 2.137-1.946 2.137-1.637 0-1.859-1.693-1.859-3.525V8.308h-4.883v.277h2.388v16.572ZM74.6 29.458c2.498 0 4.83-.638 6.578-2.526l-.14-.108c-1.608 1.61-3.968 2.303-6.021 2.303-3.914 0-6.579-2.581-6.579-7.16 1.832.999 3.692 1.61 6.329 1.61 4.301 0 7.077-1.638 7.077-4.191s-2.83-4.441-7.327-4.441c-5.468 0-8.91 2.747-8.91 7.136 0 4.657 3.918 7.377 8.993 7.377Zm-.25-14.266c3.245 0 4.83 2.082 4.83 4.247 0 2.554-1.999 3.858-4.774 3.858-2.027 0-4.191-.666-5.968-1.61.084-3.997 2.304-6.495 5.913-6.495ZM104.577 8.308h-8.59v.277h2.919v20.598h-2.92v.278h8.464v-.278h-2.94V18.688h3.067c5.634 0 9.853-.942 9.853-5.217 0-4.023-4.219-5.163-9.853-5.163Zm-.25 10.13h-2.817v-9.85h2.844c5.082 0 7.189 1.47 7.189 4.884 0 3.442-2.192 4.968-7.216 4.968v-.002ZM123.19 29.458c3.69 0 5.745-1.665 6.771-4.774v1.499c0 2.414 1.555 3.275 3.969 3.275 1.804 0 2.553-.888 2.553-2.414v-.222h-.277v.222c0 1.415-.805 2.137-1.887 2.137-1.721 0-1.915-1.748-1.915-3.525v-3.47c0-4.995-3.664-7.244-7.577-7.244-.483.008-.965.044-1.444.108-2.636.333-5.19 1.499-5.19 3.052a1.371 1.371 0 0 0 1.394 1.365 1.329 1.329 0 0 0 1.36-1.36c0-.777-.584-1.36-1.583-1.36 1.111-.805 2.443-1.304 4.001-1.471.333-.027.638-.055.943-.055 4.025 0 5.662 2.997 5.662 6.689v.693c-1.554-1.304-3.219-1.97-5.606-2.082-.278-.027-.583-.027-.916-.027-2.832 0-6.938.973-6.938 4.523-.009 3.026 2.905 4.441 6.68 4.441Zm.888-8.604c2.081-.083 4.191.556 5.856 2.027-.167 3.774-2.859 6.271-6.163 6.271-3.054 0-4.441-1.998-4.441-4.08.002-2.053 1.306-4.078 4.748-4.22v.002ZM153.723 29.186l-6.162-7.749 5.857-5.966h2.081v-.278h-4.802v.278h2.331l-5.633 5.745-4.802-5.745h2.248v-.278h-6.938v.278h1.749l5.911 7.188-6.161 6.527h-1.832v.278h4.274v-.278h-2.054l5.967-6.36 5.051 6.36h-2.83v.278h8.021v-.278h-2.276ZM63.849 44.61a2.647 2.647 0 0 0 .617-2.787 2.596 2.596 0 0 0-1.358-1.513 2.834 2.834 0 0 0-1.26-.256 2.967 2.967 0 0 0-1.082.188 2.823 2.823 0 0 0-.843.505 2.613 2.613 0 0 0-.59.75 2.759 2.759 0 0 0-.29.903h-.91v-2.26h-.67v5.175h.67V42.73h.91c-.002.42.09.835.268 1.215.156.32.38.603.654.83.264.217.569.38.896.478.321.1.655.15.99.152.384.003.764-.07 1.118-.217.328-.134.627-.33.88-.578Zm-2.002.47a2.098 2.098 0 0 1-.675-.125 1.916 1.916 0 0 1-.675-.406 2.286 2.286 0 0 1-.522-.733 2.571 2.571 0 0 1-.217-1.094c-.009-.375.065-.747.217-1.09.123-.274.3-.52.522-.724a1.99 1.99 0 0 1 .675-.403c.43-.165.908-.165 1.338 0 .247.087.474.223.666.4.219.204.394.45.515.724a2.996 2.996 0 0 1 0 2.192 2.272 2.272 0 0 1-.515.733c-.191.18-.418.317-.666.405a2.037 2.037 0 0 1-.663.121ZM67.858 45.405c.233.003.465-.044.68-.137.205-.089.39-.22.54-.388.156-.177.276-.384.351-.608a2.57 2.57 0 0 0 0-1.593 1.876 1.876 0 0 0-.351-.61 1.536 1.536 0 0 0-.54-.395 1.657 1.657 0 0 0-.68-.137c-.587 0-.973.227-1.155.682h-.028v-.599h-.628v5.549h.628v-2.454h.028c.086.23.255.421.474.534.102.054.211.094.324.118.117.026.237.038.357.038Zm-.873-.715a1.289 1.289 0 0 1-.226-.403 1.607 1.607 0 0 1-.084-.54v-.65a1.372 1.372 0 0 1 .078-.463c.047-.14.12-.268.216-.379.09-.104.201-.19.325-.25a.904.904 0 0 1 .404-.094c.15 0 .299.03.438.086.143.057.269.15.367.269.113.142.197.306.246.481.066.232.097.472.092.713.005.243-.026.485-.092.719-.05.176-.135.341-.25.484a.945.945 0 0 1-.366.274 1.146 1.146 0 0 1-.433.085.935.935 0 0 1-.715-.332ZM73.5 45.315h.627V41.62h-.74l-1.882 3.258V41.62h-.628v3.695h.74l1.883-3.237v3.237ZM78.932 46.09h.516V45.02h-.516l-1.417-3.399h-.444L75.69 45.02h-.535v1.071h.52v-.776h3.258v.776Zm-2.89-1.071 1.081-2.667h.048l1.1 2.667h-2.229ZM83.1 45.315h.628V41.62h-.74l-1.883 3.258V41.62h-.628v3.695h.74l1.883-3.237v3.237ZM87.189 43.481a5.794 5.794 0 0 1-.357.072l-.217.033c-.062.01-.125.014-.189.015a1 1 0 0 1-.432-.071.584.584 0 0 1-.217-.169.433.433 0 0 1-.086-.208 1.581 1.581 0 0 1-.013-.18v-1.368h-.627v1.368c0 .06 0 .142.016.248a.757.757 0 0 0 .398.589c.177.086.374.126.57.115a3.696 3.696 0 0 0 1.146-.194v1.566h.628v-3.692h-.628l.008 1.876ZM91.914 45.237c.26-.11.494-.273.688-.478l-.233-.235c-.103.089-.199.17-.287.244a1.617 1.617 0 0 1-.565.303c-.108.029-.22.043-.333.041a1.685 1.685 0 0 1-.439-.062 1.155 1.155 0 0 1-.763-.677 1.776 1.776 0 0 1-.133-.74h2.788v-.154a2.39 2.39 0 0 0-.14-.858 1.686 1.686 0 0 0-.376-.599 1.55 1.55 0 0 0-.553-.353 1.885 1.885 0 0 0-.664-.117 1.864 1.864 0 0 0-.697.127c-.21.084-.4.212-.557.376-.163.172-.29.376-.371.599a2.214 2.214 0 0 0-.134.795c0 .245.039.488.115.72.075.23.194.444.35.628.163.19.366.34.593.444.267.117.557.175.848.168.296.002.59-.057.863-.172Zm-2.002-2.475c.037-.173.101-.338.19-.491.08-.139.19-.257.324-.345a.85.85 0 0 1 .474-.13.94.94 0 0 1 .813.41c.195.272.292.648.292 1.128h-2.153a2.546 2.546 0 0 1 .06-.572ZM96.903 44.61c-.154.13-.327.237-.514.315a1.505 1.505 0 0 1-.558.101c-.174 0-.347-.028-.513-.082a1.173 1.173 0 0 1-.44-.262 1.259 1.259 0 0 1-.307-.48 2.092 2.092 0 0 1-.108-.738 2.053 2.053 0 0 1 .126-.767c.07-.188.176-.36.314-.505.117-.12.259-.215.416-.275a1.27 1.27 0 0 1 .432-.085c.21-.003.416.06.589.18a.84.84 0 0 1 .331.432h.512a1.008 1.008 0 0 0-.236-.441 1.355 1.355 0 0 0-.375-.28 1.637 1.637 0 0 0-.45-.148 2.767 2.767 0 0 0-.462-.041 2.084 2.084 0 0 0-.82.151 1.76 1.76 0 0 0-.6.412 1.712 1.712 0 0 0-.365.608 2.2 2.2 0 0 0-.123.74c-.002.263.043.525.134.771a1.779 1.779 0 0 0 .975 1.034c.249.104.516.155.785.151.293.006.584-.049.854-.162.217-.093.424-.21.615-.35l-.212-.28ZM101.708 45.314v-.295l-.21.007a.396.396 0 0 1-.186-.053 1.053 1.053 0 0 1-.194-.137 2.196 2.196 0 0 1-.192-.184 3.212 3.212 0 0 1-.167-.197l-.967-1.263 1.501-1.566h-.465l-1.838 1.906v-1.905h-.629v3.687h.629v-1.298l.407-.432.916 1.205c.061.075.121.148.184.216.062.073.13.14.205.198.073.058.154.106.24.142a.729.729 0 0 0 .277.052c.088 0 .175-.01.26-.03.089-.013.16-.034.229-.053ZM106.288 44.207a2.108 2.108 0 0 0 0-1.469 1.84 1.84 0 0 0-.982-1.043 1.872 1.872 0 0 0-.788-.16 1.945 1.945 0 0 0-.802.16 1.87 1.87 0 0 0-.607.426c-.166.18-.296.39-.384.617a2.012 2.012 0 0 0 .384 2.08c.171.182.377.327.607.426.253.108.526.163.802.159a1.92 1.92 0 0 0 .788-.156 1.8 1.8 0 0 0 .982-1.04Zm-.683.097a1.31 1.31 0 0 1-.289.5.923.923 0 0 1-.391.24 1.395 1.395 0 0 1-.827 0 .945.945 0 0 1-.396-.24 1.26 1.26 0 0 1-.297-.5 3.129 3.129 0 0 1 0-1.668c.06-.187.161-.358.297-.5a.93.93 0 0 1 .396-.242c.269-.085.558-.085.827 0 .149.046.284.129.391.242.132.143.231.314.289.5a3.19 3.19 0 0 1 0 1.668ZM110.981 44.76l-.233-.235c-.103.088-.199.17-.289.243a1.561 1.561 0 0 1-.563.3 1.271 1.271 0 0 1-.333.04 1.687 1.687 0 0 1-.439-.062 1.146 1.146 0 0 1-.432-.226 1.226 1.226 0 0 1-.331-.451 1.768 1.768 0 0 1-.133-.74h2.788v-.154a2.385 2.385 0 0 0-.139-.858 1.685 1.685 0 0 0-.378-.599 1.544 1.544 0 0 0-.552-.353 1.894 1.894 0 0 0-.664-.117 1.856 1.856 0 0 0-.697.127 1.568 1.568 0 0 0-.557.376 1.754 1.754 0 0 0-.371.599 2.203 2.203 0 0 0-.134.796c0 .244.039.487.115.72.075.23.193.443.35.627.163.19.366.341.593.444.267.117.557.175.848.168.297.003.591-.054.865-.168.259-.11.493-.272.686-.478Zm-2.691-1.998c.038-.172.102-.338.191-.49.08-.14.191-.257.324-.346a.848.848 0 0 1 .474-.13.936.936 0 0 1 .813.41c.194.273.292.649.292 1.128h-2.163c.002-.192.025-.384.069-.572ZM115.447 44.651c.158.224.367.408.61.535.32.158.674.233 1.03.217.293.008.583-.052.848-.175.222-.108.419-.263.574-.455.148-.186.259-.4.324-.628.07-.227.107-.464.109-.702a2.333 2.333 0 0 0-.109-.698 1.727 1.727 0 0 0-.324-.609 1.68 1.68 0 0 0-.57-.432 1.915 1.915 0 0 0-.838-.168 2.022 2.022 0 0 0-.604.083 1.756 1.756 0 0 0-.466.217 1.513 1.513 0 0 0-.557.675h-.028v-.034c-.002-.296.053-.59.162-.865.086-.237.233-.447.426-.608.189-.145.413-.238.649-.267.251-.029.504-.043.757-.041h.909l.399-.556h-1.029c-.211 0-.421.005-.629.016-.202.011-.403.048-.596.108-.194.061-.377.153-.541.273-.186.139-.34.314-.454.516a2.143 2.143 0 0 0-.229.518 3.572 3.572 0 0 0-.12.54 4.74 4.74 0 0 0-.045.532c-.005.174-.007.339-.007.492v.2c.003.215.028.429.073.64.047.24.141.47.276.676Zm.432-1.905a1.46 1.46 0 0 1 .251-.516 1.02 1.02 0 0 1 .381-.3c.15-.066.313-.099.478-.098.106.004.213.014.318.032.151.026.293.09.413.186.159.13.284.3.362.49.118.302.171.625.156.949.009.281-.033.562-.122.828a1.364 1.364 0 0 1-.3.492.954.954 0 0 1-.377.237c-.113.038-.23.06-.349.063a1.508 1.508 0 0 1-.42-.066 1.056 1.056 0 0 1-.424-.25 1.393 1.393 0 0 1-.324-.495 2.144 2.144 0 0 1-.13-.81c-.006-.25.023-.5.084-.742h.003ZM124.809 42.105a1.777 1.777 0 0 0-.6-.417 2.014 2.014 0 0 0-.798-.151c-.25-.002-.499.04-.735.123a1.701 1.701 0 0 0-1.009.904 1.788 1.788 0 0 0-.163.737h-.613v-1.674h-.627v3.694h.627v-1.77h.613c.017.225.071.447.159.655.09.22.218.422.377.597.165.18.364.328.584.433.246.115.516.173.787.168.277.004.552-.047.809-.152.228-.094.433-.236.6-.417.165-.181.292-.393.374-.624.09-.25.134-.513.131-.778a1.966 1.966 0 0 0-.134-.723 1.85 1.85 0 0 0-.382-.605Zm-.247 1.917c-.035.189-.099.371-.192.54-.088.16-.215.296-.368.395a1.068 1.068 0 0 1-.587.15 1.393 1.393 0 0 1-.414-.066.913.913 0 0 1-.39-.252 1.421 1.421 0 0 1-.292-.513 2.585 2.585 0 0 1-.116-.843 2.52 2.52 0 0 1 .133-.911c.067-.184.178-.348.325-.477a.815.815 0 0 1 .393-.183 2.5 2.5 0 0 1 .362-.031c.139.001.279.02.414.056a.906.906 0 0 1 .39.226c.133.137.232.304.289.487.08.267.117.547.108.826 0 .2-.019.4-.055.596ZM130.151 43.478a2.36 2.36 0 0 0-.126-.799 1.883 1.883 0 0 0-.353-.61 1.533 1.533 0 0 0-.54-.395 1.65 1.65 0 0 0-.678-.137c-.587 0-.972.228-1.155.682h-.029v-.599h-.627v5.549h.627v-2.454h.029a1 1 0 0 0 .472.54c.103.054.212.094.325.119.346.073.706.039 1.031-.1.207-.088.391-.22.541-.387a1.78 1.78 0 0 0 .353-.609c.089-.257.133-.528.13-.8Zm-.795.705a1.386 1.386 0 0 1-.251.484.944.944 0 0 1-.367.274 1.143 1.143 0 0 1-.432.085.93.93 0 0 1-.718-.336 1.279 1.279 0 0 1-.225-.403 1.578 1.578 0 0 1-.086-.54v-.65a1.383 1.383 0 0 1 .078-.463 1.15 1.15 0 0 1 .216-.379c.091-.104.201-.19.325-.25a.906.906 0 0 1 .404-.094c.151 0 .3.03.439.086.143.057.268.15.366.269.113.142.198.306.247.481.066.232.097.472.092.713.007.244-.023.488-.088.723ZM134.569 42.123a1.867 1.867 0 0 0-1.387-.586c-.276-.004-.55.05-.803.16a1.847 1.847 0 0 0-.991 1.043c-.181.47-.181.991 0 1.461.088.229.219.439.385.619.17.182.377.327.606.426.253.108.527.163.803.159.27.004.539-.05.787-.156.227-.098.432-.241.6-.422.167-.178.297-.389.382-.618a2.108 2.108 0 0 0 0-1.469 1.82 1.82 0 0 0-.382-.617Zm-.301 2.183a1.311 1.311 0 0 1-.289.5.919.919 0 0 1-.392.24 1.392 1.392 0 0 1-.826 0 .95.95 0 0 1-.396-.24 1.276 1.276 0 0 1-.297-.5 3.129 3.129 0 0 1 0-1.668c.06-.187.161-.358.297-.5a.941.941 0 0 1 .396-.242 1.37 1.37 0 0 1 .826 0 .9.9 0 0 1 .392.242c.132.143.231.314.289.5a3.15 3.15 0 0 1 0 1.668ZM61.277 49.632h-.372l-2.772 2.912v-2.912h-.67v5.174h.67V52.99l.837-.896 1.964 2.713h.768l-2.306-3.171 1.88-2.003ZM65.53 51.578a1.009 1.009 0 0 0-.44-.397 1.921 1.921 0 0 0-.851-.152 2.387 2.387 0 0 0-.553.055c-.137.033-.27.08-.396.144-.103.053-.197.12-.28.2a5.167 5.167 0 0 0-.217.223l.382.38c.063-.106.132-.208.206-.305.065-.086.14-.163.226-.227a.954.954 0 0 1 .278-.144c.118-.037.24-.054.363-.052.32 0 .54.098.661.295.12.197.18.496.182.899v.315a1.296 1.296 0 0 0-.492-.365c-.2-.087-.415-.13-.633-.13a1.399 1.399 0 0 0-.59.118c-.163.072-.31.177-.432.307a1.266 1.266 0 0 0-.264.425 1.313 1.313 0 0 0-.007.929 1.19 1.19 0 0 0 .646.689c.176.076.367.113.558.108.228-.001.454-.043.668-.123.203-.07.39-.183.548-.33v.363h.627V52.79c0-.222-.008-.439-.023-.65a1.31 1.31 0 0 0-.167-.562Zm-.44 2.334a1.199 1.199 0 0 1-.677.635.84.84 0 0 1-.285.052.925.925 0 0 1-.907-.945 1.098 1.098 0 0 1 .255-.71.901.901 0 0 1 .3-.222.89.89 0 0 1 .392-.086.822.822 0 0 1 .372.078c.098.048.188.111.266.188.07.068.13.144.18.227.042.067.078.136.109.208l-.004.575ZM70.264 51.56a1.536 1.536 0 0 0-.54-.394 1.647 1.647 0 0 0-.678-.138c-.587 0-.972.228-1.155.683h-.03v-.6h-.627v5.549h.628v-2.453h.029c.042.12.108.23.194.325.08.088.174.16.278.216.103.054.212.093.325.118.346.074.706.039 1.031-.1.206-.088.39-.22.54-.387.158-.177.277-.384.353-.608a2.57 2.57 0 0 0 0-1.593 1.867 1.867 0 0 0-.348-.619Zm-.317 2.114c-.05.177-.135.342-.25.485a.956.956 0 0 1-.367.273 1.145 1.145 0 0 1-.433.085.921.921 0 0 1-.718-.337 1.275 1.275 0 0 1-.225-.403 1.576 1.576 0 0 1-.085-.54v-.644c0-.158.025-.316.078-.465.047-.139.12-.267.216-.377.091-.104.201-.19.325-.252a.919.919 0 0 1 .404-.092c.15 0 .3.029.439.085.142.058.268.15.365.27.114.142.198.306.248.48.066.232.097.473.092.713a2.44 2.44 0 0 1-.089.72ZM72.697 54.37v-3.257h-.629v3.694h.741l1.883-3.237v3.236h.628v-3.693h-.74l-1.883 3.258ZM79.366 52.79h-1.87v-1.677h-.627v3.694h.627v-1.764h1.87v1.764h.627v-3.694h-.627v1.677ZM83.98 52.936a1.615 1.615 0 0 0-.494-.121 5.49 5.49 0 0 0-.433-.022h-.888v-1.677h-.628v3.687h1.946c.135 0 .268-.022.395-.066.127-.042.244-.108.345-.195a1.02 1.02 0 0 0 .239-.31.876.876 0 0 0 .093-.406.924.924 0 0 0-.167-.585.998.998 0 0 0-.408-.305Zm-.325 1.423a.793.793 0 0 1-.506.174h-.973v-1.49h.848c.043 0 .108 0 .207.014a.749.749 0 0 1 .541.33c.08.136.118.292.108.45a.627.627 0 0 1-.221.522h-.004ZM85.962 51.113h-.632v3.694h.632v-3.694ZM90.76 54.806h.67V50.04h3.096v4.766h.675v-5.174H90.76v5.174ZM99.693 51.578a1.015 1.015 0 0 0-.44-.397 1.922 1.922 0 0 0-.852-.152 2.386 2.386 0 0 0-.553.055c-.137.033-.27.081-.397.144-.102.053-.197.12-.28.2-.075.074-.149.149-.216.223l.382.38c.062-.106.131-.208.206-.305.065-.086.14-.162.225-.227a.974.974 0 0 1 .28-.144c.116-.037.239-.054.361-.052.322 0 .542.098.662.295.121.197.18.496.18.899v.315c-.131-.16-.3-.285-.49-.365-.2-.087-.415-.13-.633-.13a1.399 1.399 0 0 0-.59.118 1.323 1.323 0 0 0-.697.732 1.325 1.325 0 0 0-.007.929 1.19 1.19 0 0 0 .648.689c.175.076.366.113.558.108.227-.001.453-.043.667-.123.203-.07.39-.183.547-.33v.363h.628V52.79a9.01 9.01 0 0 0-.023-.65 1.312 1.312 0 0 0-.166-.562Zm-.444 2.334a1.198 1.198 0 0 1-.676.635.84.84 0 0 1-.595-.008.905.905 0 0 1-.297-.181.92.92 0 0 1-.3-.704 1.098 1.098 0 0 1 .253-.71.906.906 0 0 1 .3-.222.89.89 0 0 1 .393-.086.825.825 0 0 1 .372.078c.098.048.188.111.266.188.07.068.13.144.18.227.042.066.078.136.109.208l-.005.575ZM104.348 54.466a1.132 1.132 0 0 1-.195-.137 2.673 2.673 0 0 1-.359-.38l-.973-1.264 1.502-1.565h-.466l-1.838 1.905V51.12h-.628v3.684h.628v-1.298l.407-.432.917 1.204c.06.075.122.15.184.223.062.073.131.139.206.198a.94.94 0 0 0 .24.14.705.705 0 0 0 .275.053c.088 0 .175-.01.26-.031.084-.02.159-.04.224-.06v-.29l-.209.007a.384.384 0 0 1-.175-.052ZM106.769 51.685c.117-.122.259-.216.417-.275.138-.054.284-.082.432-.085.211-.004.418.058.592.18a.833.833 0 0 1 .332.432h.512a1.011 1.011 0 0 0-.237-.441 1.324 1.324 0 0 0-.375-.28 1.631 1.631 0 0 0-.451-.149 2.751 2.751 0 0 0-.459-.04 2.085 2.085 0 0 0-.821.15c-.226.095-.43.235-.599.413a1.732 1.732 0 0 0-.367.607 2.248 2.248 0 0 0-.122.741c-.002.263.043.524.133.77a1.781 1.781 0 0 0 .977 1.034c.248.105.515.156.785.152.292.006.583-.049.853-.162a3.16 3.16 0 0 0 .615-.35l-.216-.283c-.155.13-.328.237-.515.315a1.65 1.65 0 0 1-1.072.02 1.182 1.182 0 0 1-.44-.262 1.266 1.266 0 0 1-.306-.481 2.416 2.416 0 0 1 .012-1.505 1.5 1.5 0 0 1 .32-.501ZM112.885 51.578a1.004 1.004 0 0 0-.439-.397 1.924 1.924 0 0 0-.853-.152 2.403 2.403 0 0 0-.553.055c-.137.033-.27.08-.395.144-.103.053-.198.12-.281.2a4.96 4.96 0 0 0-.217.223l.382.38c.063-.106.131-.208.205-.305.065-.086.141-.162.226-.227a.975.975 0 0 1 .278-.144c.118-.037.241-.054.364-.052.32 0 .541.098.661.295.121.197.181.496.181.899v.315a1.284 1.284 0 0 0-.492-.365c-.2-.087-.415-.13-.633-.13a1.395 1.395 0 0 0-.588.118c-.163.072-.31.177-.432.307a1.331 1.331 0 0 0-.272 1.354 1.22 1.22 0 0 0 .647.689c.176.076.367.113.559.108.228-.001.454-.043.667-.123.204-.07.39-.183.547-.33v.363h.628V52.79a9.13 9.13 0 0 0-.022-.649 1.3 1.3 0 0 0-.168-.563Zm-.442 2.334a1.204 1.204 0 0 1-.676.635.838.838 0 0 1-.597-.008.912.912 0 0 1-.512-.476.92.92 0 0 1-.086-.41c0-.13.022-.262.067-.385a.905.905 0 0 1 .489-.546.89.89 0 0 1 .391-.086.824.824 0 0 1 .373.078c.098.048.188.112.265.188a1.368 1.368 0 0 1 .29.435l-.004.575ZM119.042 54.511h-1.598v-3.398h-.627v3.398h-1.595v-3.398h-.628v3.694h5.084v-3.694h-.636v3.398ZM123.867 53.073a1.121 1.121 0 0 0-.354-.151 1.83 1.83 0 0 0-.344-.052v-.05c.101-.02.2-.05.295-.092a.924.924 0 0 0 .264-.17.756.756 0 0 0 .256-.575 1.032 1.032 0 0 0-.038-.254.688.688 0 0 0-.162-.285.962.962 0 0 0-.367-.234 1.767 1.767 0 0 0-.639-.095h-1.544v3.688h1.671c.209.005.418-.024.618-.084.153-.047.296-.122.42-.222a.781.781 0 0 0 .228-.31.947.947 0 0 0 .067-.357.933.933 0 0 0-.108-.466.808.808 0 0 0-.263-.29Zm-2.008-1.665h.732a.914.914 0 0 1 .403.075c.089.04.169.1.231.177a.566.566 0 0 1 .108.216.863.863 0 0 1 .027.202.628.628 0 0 1-.259.524.876.876 0 0 1-.275.14c-.105.033-.214.05-.324.049h-.643v-1.383Zm1.597 2.804a.7.7 0 0 1-.277.216c-.104.043-.213.07-.325.078-.108.006-.183.01-.23.01h-.765v-1.473h.649c.079 0 .179 0 .3.014.12.01.238.04.349.089a.75.75 0 0 1 .293.229.671.671 0 0 1 .122.425.639.639 0 0 1-.12.412h.004ZM126.203 54.37v-3.257h-.627v3.694h.74l1.882-3.237v3.236h.629v-3.693h-.74l-1.884 3.258ZM132.054 51.113l-1.126 2.784-.079.19a1.53 1.53 0 0 1-.108.202.649.649 0 0 1-.137.158.264.264 0 0 1-.168.064.458.458 0 0 1-.216-.06.891.891 0 0 1-.175-.117l-.119.39a.676.676 0 0 0 .48.166.725.725 0 0 0 .251-.041.537.537 0 0 0 .207-.149 1.38 1.38 0 0 0 .19-.28c.073-.144.138-.29.196-.44l.848-2.135h.043l1.191 2.958h.664l-1.498-3.694-.444.004ZM135.732 54.37v-3.257h-.628v3.694h.739l1.884-3.237v3.236h.628v-3.693h-.74l-1.883 3.258Z" fill="#fff"/></g><defs><clipPath id="a"><path fill="#fff" transform="translate(0 .414)" d="M0 0h155.998v71.182H0z"/></clipPath></defs></svg>