<svg width="156" height="59" viewBox="0 0 156 59" fill="none" xmlns="http://www.w3.org/2000/svg">
<g clip-path="url(#clip0_2521_7)">
<path d="M42.7437 23.3393C40.8795 22.0418 38.558 21.5909 36.3187 21.5844C34.6205 21.5937 32.9347 21.8748 31.3253 22.417C30.5274 22.6988 29.7443 23.0207 28.9789 23.3815C26.2757 24.679 23.818 26.4383 21.5775 28.4343C20.0443 26.9173 18.5958 25.3171 17.2383 23.641C18.7348 22.5024 20.1578 21.2762 21.5267 20.0155C23.8331 17.8886 26.2022 15.5249 27.1375 12.4216C27.7928 10.352 27.7225 8.11052 27.157 6.02581C25.6269 0.153358 19.2647 -1.51398 14.347 1.40548C14.3404 1.40899 14.3345 1.41377 14.3297 1.41954C11.3605 2.31052 9.68018 5.8528 9.69748 9.44483C9.71262 13.7505 11.4913 17.6074 13.921 21.0697C13.2809 21.5574 12.6234 22.0288 11.9584 22.4754C8.28208 24.9623 4.25214 26.8697 0.2276 28.7338C0.183233 28.7495 0.142624 28.7743 0.108367 28.8065C0.0741093 28.8388 0.0469559 28.8779 0.0286405 28.9212C0.0103252 28.9646 0.00125034 29.0112 0.00199557 29.0583C0.0027408 29.1053 0.0132897 29.1517 0.0329687 29.1945C0.0707761 29.2709 0.136626 29.3298 0.216787 29.3588C4.20997 31.3051 8.17287 33.3325 11.7952 35.8465C12.4439 36.2963 13.0801 36.7649 13.7036 37.2522C11.5065 40.4204 9.86508 43.9215 9.58611 47.8315C9.27145 51.4678 10.8404 55.9292 14.3221 56.9434C14.3242 56.9517 14.3281 56.9594 14.3335 56.9659C14.339 56.9724 14.3458 56.9777 14.3535 56.9813C15.265 57.4577 16.2401 57.8008 17.2492 57.9999C21.6619 58.8725 26.0714 56.5509 27.2208 52.0755C27.7706 49.9733 27.7523 47.7628 27.1678 45.67C26.8262 44.6302 26.3333 43.6465 25.7048 42.7505C24.6614 41.2183 23.4179 39.8873 22.0944 38.6157C20.5581 37.1529 18.9463 35.7716 17.2654 34.4776C18.0504 33.525 18.8592 32.5973 19.6658 31.6879C20.2951 30.9988 20.9439 30.324 21.6121 29.6637C23.6514 31.489 25.8702 33.1163 28.3074 34.3641C30.802 35.6822 33.5787 36.5212 36.4171 36.5072C38.93 36.4975 41.5737 35.9395 43.5265 34.2733C45.0728 32.9638 45.8426 31.0499 45.9151 29.0517C45.7388 26.7562 44.6727 24.6401 42.7437 23.3393ZM25.2517 3.45992C25.8111 4.29524 26.2175 5.22337 26.452 6.20098C27.1981 9.12585 26.7234 12.3556 24.9522 14.8296C23.8028 16.4894 22.3161 17.8821 20.8206 19.2304C19.4409 20.4696 18.019 21.6601 16.5301 22.7619C16.1646 22.3027 15.8042 21.8399 15.4488 21.3735C15.2888 21.1573 15.132 20.9392 14.9785 20.7194C18.3196 17.9491 22.1744 14.8469 23.0319 10.3574C23.6677 6.92652 21.7343 3.2015 18.5164 1.80448C17.1432 1.22167 15.9062 1.08975 14.8217 1.29627C18.2742 -0.354845 23.0038 0.125245 25.2517 3.45992ZM13.6247 18.6325C11.4405 14.9853 9.91914 10.5056 11.1053 6.27775C12.1033 2.81115 14.7752 1.02379 18.258 2.41973C21.2694 3.63509 23.1649 7.08438 22.6058 10.2861C22.0652 13.598 19.6161 16.192 17.1994 18.3611C16.4014 19.0585 15.5916 19.7462 14.7611 20.408C14.3639 19.8262 13.9851 19.2344 13.6247 18.6325ZM6.51526 31.6576C4.72898 30.7364 2.92 29.8789 1.09911 29.0398C2.89621 28.1597 4.68897 27.2622 6.4493 26.302C9.12224 24.8434 11.7335 23.2485 14.1448 21.3833C14.6335 22.0656 15.1471 22.7316 15.6759 23.3826C12.8935 25.3406 9.92469 27.0193 6.81262 28.3943C6.55022 28.2775 6.28711 28.1629 6.02328 28.0505C5.3345 27.7434 4.50948 28.2862 4.52138 29.0442C4.52034 29.2231 4.56375 29.3996 4.64771 29.5576C4.73166 29.7157 4.85354 29.8504 5.00241 29.9498C5.15127 30.0491 5.32247 30.11 5.50065 30.1269C5.67882 30.1438 5.8584 30.1161 6.02328 30.0465C6.28819 29.9384 6.55311 29.8184 6.81802 29.7016C9.9128 31.0747 12.8661 32.7467 15.6359 34.6939C15.1709 35.2634 14.72 35.844 14.2832 36.4358C11.8353 34.6239 9.23647 33.0253 6.51526 31.6576ZM11.2935 51.8084C10.6577 49.7972 10.7409 47.5752 11.1918 45.5283C11.82 42.7905 13.0722 40.3047 14.6227 37.9896C15.4175 38.6384 16.1949 39.3055 16.9572 39.9846C19.9848 42.6943 23.3368 46.5545 22.0652 50.8958C21.2521 53.8369 18.3467 56.2211 15.2531 55.834C13.1987 55.5659 11.8622 53.7082 11.2935 51.8084ZM20.8185 38.8676C22.3128 40.2225 23.7574 41.653 24.9274 43.2944C25.5215 44.1048 25.9926 44.9986 26.3255 45.9468C26.9003 47.8823 26.9651 49.9335 26.5136 51.9014C25.2636 57.2148 19.5177 58.9979 14.8411 57.0656C15.5293 57.1868 16.2334 57.1868 16.9215 57.0656C18.7208 56.7845 20.3816 55.7767 21.5429 54.384C24.0104 51.4743 24.0688 47.5536 22.1571 44.3497C21.0012 42.3483 19.375 40.7004 17.6655 39.192C16.8725 38.482 16.0536 37.7997 15.2088 37.1451C15.6413 36.5382 16.0897 35.9424 16.5539 35.3578C18.0379 36.4497 19.4615 37.6214 20.8185 38.8676ZM18.923 30.9959C18.0645 31.9031 17.2048 32.8427 16.3733 33.8159C13.8168 31.9798 11.0958 30.3843 8.24532 29.0496C11.1076 27.7078 13.8397 26.1043 16.4068 24.2595C17.2502 25.2532 18.1228 26.2058 18.9911 27.1335C19.615 27.7823 20.2573 28.4181 20.918 29.0344C20.2317 29.6702 19.5667 30.3241 18.923 30.9959ZM39.7053 35.8984C37.2778 36.4391 34.713 36.2336 32.3439 35.5243C29.4579 34.5793 26.8358 32.9454 24.4851 31.0435C23.7077 30.4109 22.9562 29.7459 22.2263 29.0571C24.1369 27.2373 26.2098 25.5884 28.5118 24.2995C29.9423 23.4972 31.4659 22.7857 33.0608 22.3813C36.2224 21.5995 39.8426 21.659 42.6431 23.4885C44.5494 24.7277 45.5939 26.8156 45.7853 29.0463C45.6307 32.7627 43.2389 35.1275 39.7053 35.8984Z" fill="#C89D6C"/>
<path d="M57.4656 24.7419C57.4656 27.7111 58.2982 29.0432 61.5745 29.0432C63.1283 29.0432 64.016 28.2387 64.016 26.6287V26.407H63.7662V26.6287C63.7662 28.0722 62.9336 28.7664 61.8199 28.7664C60.1829 28.7664 59.9612 27.0731 59.9612 25.2414V7.89331H55.0781V8.17012H57.4656V24.7419Z" fill="white"/>
<path d="M74.6024 29.0433C77.1002 29.0433 79.4314 28.4053 81.1799 26.5174L81.0404 26.4093C79.4314 28.0193 77.0721 28.7124 75.0187 28.7124C71.1045 28.7124 68.4402 26.1314 68.4402 21.5521C70.2719 22.5512 72.1317 23.1622 74.7689 23.1622C79.0703 23.1622 81.8459 21.524 81.8459 18.9711C81.8459 16.4182 79.0151 14.5303 74.5191 14.5303C69.0511 14.5303 65.6094 17.2778 65.6094 21.6667C65.6094 26.3238 69.5269 29.0433 74.6024 29.0433ZM74.3526 14.7779C77.5965 14.7779 79.1816 16.8594 79.1816 19.0241C79.1816 21.5781 77.1834 22.8821 74.4078 22.8821C72.3815 22.8821 70.2167 22.216 68.4402 21.2721C68.5234 17.2757 70.7444 14.7779 74.3526 14.7779Z" fill="white"/>
<path d="M104.579 7.89331H95.9883V8.17012H98.9077V28.7686H95.9883V29.0465H104.451V28.7686H101.511V18.2736H104.579C110.213 18.2736 114.432 17.3308 114.432 13.0564C114.432 9.03298 110.213 7.89331 104.579 7.89331ZM104.329 18.0228H101.511V8.17228H104.356C109.438 8.17228 111.545 9.64391 111.545 13.0575C111.545 16.4992 109.353 18.0249 104.329 18.0249V18.0228Z" fill="white"/>
<path d="M123.192 29.0433C126.882 29.0433 128.937 27.3782 129.963 24.2695V25.7681C129.963 28.1826 131.518 29.0433 133.932 29.0433C135.736 29.0433 136.485 28.1556 136.485 26.6288V26.4072H136.208V26.6288C136.208 28.0442 135.403 28.7665 134.32 28.7665C132.6 28.7665 132.406 27.0181 132.406 25.2415V21.7717C132.406 16.7762 128.742 14.5271 124.829 14.5271C124.346 14.5352 123.864 14.5713 123.385 14.6352C120.749 14.9683 118.195 16.1339 118.195 17.6877C118.196 17.8692 118.232 18.0488 118.303 18.216C118.374 18.3832 118.477 18.5348 118.607 18.6617C118.736 18.7887 118.89 18.8887 119.059 18.9557C119.227 19.0227 119.408 19.0556 119.589 19.0523C119.769 19.0567 119.948 19.0246 120.115 18.9578C120.282 18.891 120.434 18.791 120.561 18.6638C120.688 18.5366 120.788 18.3848 120.855 18.2178C120.922 18.0507 120.954 17.8719 120.949 17.692C120.949 16.9157 120.365 16.3328 119.366 16.3328C120.477 15.5273 121.809 15.0277 123.367 14.8612C123.7 14.8342 124.005 14.8061 124.31 14.8061C128.334 14.8061 129.972 17.8034 129.972 21.4949V22.188C128.418 20.884 126.753 20.2179 124.366 20.1065C124.088 20.0795 123.783 20.0795 123.45 20.0795C120.618 20.0795 116.512 21.0526 116.512 24.6025C116.503 27.6279 119.417 29.0433 123.192 29.0433ZM124.08 20.4396C126.161 20.3563 128.271 20.9953 129.936 22.4659C129.769 26.2406 127.077 28.7373 123.773 28.7373C120.719 28.7373 119.332 26.7391 119.332 24.6576C119.334 22.6043 120.638 20.579 124.08 20.4363V20.4396Z" fill="white"/>
<path d="M153.724 28.771L147.563 21.0225L153.42 15.056H155.501V14.7781H150.699V15.056H153.03L147.397 20.8008L142.595 15.056H144.843V14.7781H137.905V15.056H139.654L145.565 22.2443L139.404 28.771H137.572V29.0489H141.845V28.771H139.792L145.759 22.4109L150.81 28.771H147.98V29.0489H156.001V28.771H153.724Z" fill="white"/>
<path d="M63.8509 44.1953C64.0969 43.9518 64.292 43.6618 64.4251 43.3422C64.5623 43.0146 64.6322 42.6626 64.6305 42.3074C64.627 42.001 64.5722 41.6972 64.4683 41.4089C64.3555 41.0781 64.1771 40.7735 63.9437 40.5134C63.7104 40.2533 63.4269 40.043 63.1102 39.8951C62.7151 39.7144 62.2837 39.6271 61.8494 39.6399C61.4805 39.6344 61.1138 39.6978 60.7682 39.827C60.4597 39.9447 60.1742 40.1156 59.9248 40.3319C59.6836 40.5437 59.4834 40.7981 59.3344 41.0823C59.1864 41.3643 59.0884 41.6698 59.0446 41.9852H58.1352V39.7264H57.4648V44.9003H58.1352V42.315H59.0446C59.0424 42.735 59.134 43.1502 59.3128 43.5304C59.4694 43.8505 59.6924 44.1336 59.9669 44.3608C60.2313 44.5776 60.536 44.74 60.8633 44.8387C61.1842 44.9379 61.5179 44.9889 61.8538 44.9901C62.2368 44.9937 62.6167 44.9202 62.9707 44.7738C63.2989 44.64 63.5979 44.4435 63.8509 44.1953ZM61.8494 44.6657C61.6188 44.6613 61.3905 44.619 61.1736 44.5403C60.9231 44.4532 60.6934 44.3152 60.4989 44.1348C60.278 43.9274 60.1005 43.6782 59.9767 43.4017C59.8254 43.0571 59.7516 42.6836 59.7604 42.3074C59.7513 41.9326 59.8252 41.5604 59.9767 41.2175C60.1 40.9432 60.2776 40.6967 60.4989 40.493C60.6949 40.3155 60.9243 40.1787 61.1736 40.0908C61.6045 39.9251 62.0815 39.9251 62.5123 40.0908C62.759 40.1774 62.9856 40.3131 63.1783 40.4898C63.397 40.6941 63.5721 40.9405 63.693 41.2142C63.9698 41.9186 63.9698 42.7016 63.693 43.406C63.5718 43.6821 63.3969 43.9313 63.1783 44.1391C62.9867 44.3188 62.7599 44.4569 62.5123 44.5446C62.2996 44.6215 62.0756 44.6624 61.8494 44.6657Z" fill="white"/>
<path d="M67.86 44.9902C68.0935 44.9928 68.3249 44.946 68.539 44.8528C68.7452 44.7645 68.9297 44.6325 69.0797 44.4657C69.2361 44.2882 69.3556 44.0812 69.4311 43.857C69.5997 43.3395 69.5997 42.7818 69.4311 42.2643C69.3536 42.0402 69.2343 41.8329 69.0797 41.6533C68.9305 41.484 68.7459 41.3497 68.539 41.2597C68.3249 41.1666 68.0935 41.1198 67.86 41.1224C67.2728 41.1224 66.8868 41.3495 66.7052 41.8047H66.6771V41.2057H66.0488V46.7537H66.6771V44.3003H66.7052C66.791 44.5312 66.9599 44.7216 67.1788 44.8345C67.281 44.8883 67.3902 44.9279 67.5031 44.9523C67.6204 44.9777 67.74 44.9903 67.86 44.9902ZM66.9874 44.2754C66.8883 44.1557 66.8118 44.0191 66.7614 43.8721C66.7026 43.698 66.6741 43.5152 66.6771 43.3315V42.6827C66.6761 42.5248 66.7024 42.3678 66.7549 42.2188C66.8018 42.0799 66.8753 41.9514 66.9712 41.8404C67.0617 41.7362 67.1719 41.6509 67.2955 41.5895C67.4213 41.5276 67.5598 41.4957 67.6999 41.4965C67.85 41.4967 67.9987 41.5257 68.1379 41.582C68.2806 41.6397 68.4066 41.7323 68.5044 41.8512C68.6178 41.9936 68.7016 42.1572 68.751 42.3324C68.817 42.564 68.848 42.8042 68.8429 43.0449C68.8482 43.2879 68.8173 43.5302 68.751 43.764C68.7009 43.9405 68.616 44.1053 68.5012 44.2484C68.4032 44.3682 68.2774 44.4622 68.1346 44.522C67.9973 44.5782 67.8505 44.6072 67.7021 44.6074C67.567 44.6076 67.4334 44.5784 67.3107 44.522C67.1859 44.4648 67.0755 44.3806 66.9874 44.2754Z" fill="white"/>
<path d="M73.5021 44.9003H74.1292V41.2056H73.3896L71.5071 44.4635V41.2056H70.8789V44.9003H71.6185L73.5021 41.663V44.9003Z" fill="white"/>
<path d="M78.9343 45.6756H79.45V44.604H78.9343L77.5167 41.2056H77.0734L75.6904 44.604H75.1562V45.6756H75.6753V44.8992H78.9343V45.6756ZM76.044 44.604L77.1253 41.9376H77.1728L78.2725 44.604H76.044Z" fill="white"/>
<path d="M83.1017 44.9003H83.7299V41.2056H82.9903L81.1067 44.4635V41.2056H80.4785V44.9003H81.2181L83.1017 41.663V44.9003Z" fill="white"/>
<path d="M87.1904 43.0665C87.1515 43.0762 87.1007 43.0881 87.0369 43.1011C86.9731 43.114 86.905 43.127 86.8336 43.1389L86.6173 43.1713C86.5547 43.1806 86.4915 43.1857 86.4281 43.1865C86.2805 43.1949 86.1327 43.1706 85.9956 43.1151C85.9112 43.0768 85.8371 43.019 85.7794 42.9464C85.7327 42.8861 85.7029 42.8144 85.6929 42.7388C85.685 42.6789 85.6807 42.6186 85.6799 42.5583V41.1904H85.0527V42.5583C85.0527 42.6188 85.0527 42.701 85.0689 42.8069C85.0821 42.9301 85.1253 43.0481 85.1946 43.1506C85.264 43.2532 85.3575 43.3371 85.4669 43.3952C85.6442 43.4819 85.8407 43.5217 86.0378 43.5109C86.2189 43.509 86.3996 43.4938 86.5784 43.4655C86.7838 43.433 86.986 43.3831 87.1829 43.3162V44.8819H87.8111V41.1904H87.1829L87.1904 43.0665Z" fill="white"/>
<path d="M91.9159 44.8223C92.176 44.7127 92.4102 44.5499 92.6036 44.3444L92.3712 44.1098C92.2684 44.1984 92.1722 44.2795 92.0835 44.353C91.9985 44.4235 91.9065 44.4851 91.8089 44.5369C91.717 44.5874 91.6198 44.6277 91.5191 44.6569C91.4104 44.6852 91.2984 44.6991 91.1861 44.698C91.0376 44.6965 90.89 44.6754 90.7471 44.6353C90.5885 44.5916 90.441 44.5145 90.3146 44.4093C90.1714 44.2861 90.0583 44.1319 89.9837 43.9584C89.8871 43.7242 89.8417 43.472 89.8507 43.2188H92.6393V43.0642C92.6457 42.7722 92.5984 42.4816 92.4998 42.2067C92.4179 41.9825 92.2893 41.7784 92.1225 41.6077C91.9656 41.4517 91.7772 41.3312 91.5699 41.2541C91.3574 41.1756 91.1325 41.136 90.906 41.1373C90.6675 41.1349 90.4308 41.1782 90.2086 41.2649C89.9982 41.3486 89.8083 41.4765 89.6517 41.6401C89.4889 41.8126 89.3627 42.0164 89.2809 42.2391C89.1878 42.494 89.1423 42.7637 89.1468 43.035C89.1468 43.2796 89.1859 43.5227 89.2625 43.7551C89.3369 43.9849 89.4555 44.198 89.6117 44.3822C89.775 44.5717 89.9775 44.7234 90.2054 44.8266C90.4723 44.9437 90.7617 45.0009 91.0531 44.9942C91.3494 44.9959 91.6429 44.9374 91.9159 44.8223ZM89.9134 42.3473C89.9512 42.1748 90.0154 42.0092 90.1037 41.8564C90.1838 41.7179 90.2948 41.5998 90.4281 41.5114C90.5697 41.4225 90.7345 41.3773 90.9017 41.3817C91.0609 41.3755 91.219 41.4098 91.3612 41.4815C91.5035 41.5532 91.6251 41.6599 91.7148 41.7915C91.9095 42.064 92.0068 42.4399 92.0068 42.9193H89.8539C89.8521 42.727 89.8721 42.5351 89.9134 42.3473Z" fill="white"/>
<path d="M96.9049 44.1953C96.7509 44.326 96.5777 44.4322 96.3913 44.5099C96.2134 44.5788 96.0241 44.6133 95.8333 44.6116C95.6588 44.6117 95.4854 44.584 95.3197 44.5294C95.1555 44.4757 95.0052 44.3863 94.8796 44.2677C94.7418 44.133 94.6367 43.9683 94.5725 43.7866C94.4927 43.5492 94.4561 43.2994 94.4644 43.0491C94.4574 42.7879 94.5004 42.5277 94.5909 42.2825C94.6604 42.0948 94.767 41.923 94.9045 41.7775C95.0216 41.6567 95.1637 41.563 95.3208 41.5029C95.4589 41.4494 95.6053 41.4205 95.7533 41.4175C95.9633 41.4143 96.1691 41.477 96.3415 41.597C96.4971 41.7003 96.6139 41.8525 96.6735 42.0295H97.1849C97.1447 41.8649 97.0636 41.7132 96.9492 41.5883C96.8413 41.4739 96.7144 41.3791 96.574 41.3083C96.4317 41.2372 96.2798 41.1873 96.1231 41.1601C95.971 41.1336 95.8169 41.1199 95.6625 41.119C95.3815 41.1137 95.1023 41.1652 94.8418 41.2704C94.6156 41.3646 94.4116 41.5049 94.2428 41.6824C94.0798 41.8572 93.9553 42.0642 93.8773 42.2901C93.7941 42.5281 93.7524 42.7786 93.754 43.0307C93.7514 43.2937 93.7969 43.555 93.8881 43.8017C93.9718 44.0318 94.1013 44.2426 94.2687 44.4213C94.4364 44.5987 94.6388 44.7397 94.8634 44.8354C95.1119 44.9393 95.3791 44.9908 95.6484 44.9868C95.941 44.993 96.2316 44.9377 96.5015 44.8246C96.7194 44.7318 96.9258 44.6142 97.1168 44.4743L96.9049 44.1953Z" fill="white"/>
<path d="M101.71 44.8991V44.6039L101.5 44.6115C101.435 44.6095 101.371 44.5913 101.314 44.5585C101.244 44.5199 101.179 44.4739 101.119 44.4212C101.052 44.3636 100.988 44.3022 100.928 44.2373C100.868 44.1714 100.811 44.1054 100.76 44.0405L99.7938 42.7776L101.295 41.2119H100.83L98.9915 43.1171V41.2119H98.3633V44.8991H98.9915V43.6015L99.3992 43.169L100.315 44.3747C100.376 44.4493 100.436 44.5228 100.499 44.5909C100.56 44.6636 100.629 44.7299 100.704 44.7888C100.777 44.847 100.858 44.8947 100.944 44.9304C101.032 44.9656 101.126 44.9832 101.221 44.9823C101.308 44.9821 101.396 44.972 101.481 44.9521C101.57 44.9391 101.641 44.9186 101.71 44.8991Z" fill="white"/>
<path d="M106.29 43.7917C106.466 43.3181 106.466 42.797 106.29 42.3233C106.205 42.0942 106.075 41.8843 105.908 41.7059C105.738 41.5264 105.534 41.3817 105.308 41.2799C105.06 41.17 104.791 41.1154 104.52 41.1199C104.244 41.1158 103.971 41.1703 103.718 41.2799C103.489 41.38 103.283 41.5249 103.111 41.7059C102.945 41.8857 102.815 42.0952 102.727 42.3233C102.544 42.7931 102.544 43.3144 102.727 43.7842C102.815 44.0126 102.945 44.2225 103.111 44.4027C103.282 44.5847 103.488 44.7297 103.718 44.8287C103.971 44.9375 104.244 44.9916 104.52 44.9876C104.791 44.9919 105.059 44.9388 105.308 44.8319C105.535 44.7339 105.739 44.5904 105.908 44.4102C106.075 44.2312 106.205 44.021 106.29 43.7917ZM105.607 43.889C105.549 44.0751 105.45 44.2459 105.318 44.3886C105.21 44.5004 105.075 44.583 104.926 44.6286C104.657 44.7123 104.369 44.7123 104.1 44.6286C103.95 44.5826 103.814 44.5002 103.704 44.3886C103.567 44.2473 103.466 44.0763 103.407 43.889C103.256 43.3432 103.256 42.7665 103.407 42.2206C103.466 42.0336 103.568 41.8627 103.704 41.7211C103.813 41.6082 103.95 41.5249 104.1 41.4789C104.369 41.3938 104.658 41.3938 104.926 41.4789C105.076 41.5245 105.211 41.608 105.318 41.7211C105.45 41.8641 105.549 42.0348 105.607 42.2206C105.755 42.7669 105.755 43.3428 105.607 43.889Z" fill="white"/>
<path d="M110.983 44.3446L110.75 44.1099C110.647 44.1986 110.551 44.2797 110.461 44.3532C110.377 44.4239 110.285 44.4855 110.188 44.537C110.096 44.5861 109.999 44.6249 109.898 44.6527C109.789 44.6811 109.677 44.6949 109.565 44.6938C109.417 44.6923 109.269 44.6713 109.126 44.6311C108.967 44.5875 108.82 44.5104 108.693 44.4051C108.55 44.2819 108.437 44.1277 108.363 43.9542C108.266 43.72 108.221 43.4678 108.23 43.2146H111.018V43.06C111.025 42.7681 110.977 42.4774 110.879 42.2026C110.797 41.9784 110.668 41.7742 110.501 41.6035C110.345 41.4476 110.156 41.327 109.949 41.2499C109.736 41.1715 109.511 41.132 109.285 41.1332C109.046 41.1306 108.81 41.1739 108.588 41.2608C108.377 41.3444 108.187 41.4724 108.031 41.636C107.868 41.8085 107.742 42.0123 107.66 42.235C107.567 42.4898 107.521 42.7596 107.526 43.0308C107.526 43.2755 107.565 43.5186 107.641 43.751C107.716 43.9808 107.834 44.1938 107.991 44.3781C108.154 44.5676 108.356 44.7193 108.584 44.8225C108.851 44.9397 109.141 44.9969 109.432 44.9901C109.729 44.9935 110.023 44.9364 110.297 44.8225C110.556 44.7126 110.79 44.5498 110.983 44.3446ZM108.292 42.3474C108.33 42.175 108.394 42.0094 108.483 41.8565C108.563 41.7181 108.674 41.6 108.807 41.5116C108.949 41.4226 109.113 41.3775 109.281 41.3819C109.44 41.3756 109.598 41.41 109.74 41.4817C109.882 41.5534 110.004 41.66 110.094 41.7917C110.288 42.0641 110.386 42.4401 110.386 42.9194H108.223C108.224 42.7268 108.248 42.5349 108.292 42.3474Z" fill="white"/>
<path d="M115.449 44.2365C115.607 44.4607 115.816 44.6441 116.059 44.7717C116.379 44.9294 116.733 45.0037 117.089 44.9879C117.382 44.996 117.672 44.936 117.937 44.8128C118.159 44.7056 118.356 44.5505 118.511 44.3586C118.659 44.1725 118.77 43.9591 118.835 43.7304C118.905 43.503 118.942 43.2666 118.944 43.0287C118.943 42.7917 118.907 42.5562 118.835 42.3302C118.769 42.1076 118.659 41.9006 118.511 41.7214C118.354 41.538 118.16 41.3904 117.941 41.2889C117.678 41.1707 117.392 41.1134 117.103 41.1213C116.899 41.1183 116.695 41.1464 116.499 41.2045C116.334 41.2533 116.177 41.3262 116.033 41.4208C115.904 41.5071 115.789 41.6129 115.692 41.7344C115.605 41.8453 115.532 41.967 115.476 42.0966H115.448V42.062C115.446 41.7659 115.501 41.4721 115.61 41.197C115.696 40.9602 115.843 40.7505 116.036 40.5893C116.224 40.4438 116.449 40.3516 116.685 40.3222C116.936 40.2933 117.189 40.2796 117.442 40.2811H118.351L118.75 39.7253H117.721C117.51 39.7253 117.3 39.7307 117.092 39.7416C116.89 39.7526 116.689 39.7889 116.496 39.8497C116.302 39.9102 116.119 40.0022 115.955 40.1222C115.769 40.2608 115.615 40.4364 115.501 40.6379C115.402 40.8 115.325 40.974 115.272 41.1559C115.218 41.3328 115.178 41.5135 115.152 41.6965C115.127 41.8729 115.112 42.0505 115.107 42.2285C115.102 42.4026 115.1 42.567 115.1 42.7205V42.9195C115.103 43.1347 115.128 43.3492 115.173 43.5596C115.22 43.801 115.314 44.0308 115.449 44.2365ZM115.881 42.3312C115.929 42.1442 116.015 41.9688 116.132 41.8155C116.233 41.6864 116.364 41.5837 116.513 41.5159C116.663 41.4497 116.826 41.4162 116.991 41.4175C117.097 41.4207 117.204 41.4312 117.309 41.4489C117.46 41.4754 117.602 41.5393 117.722 41.6349C117.881 41.7658 118.006 41.9346 118.084 42.1258C118.202 42.4275 118.255 42.7506 118.24 43.0741C118.249 43.3552 118.207 43.6357 118.117 43.9023C118.054 44.0858 117.952 44.2536 117.818 44.3943C117.713 44.502 117.583 44.5831 117.441 44.6311C117.328 44.6694 117.211 44.6905 117.092 44.6938C116.95 44.6918 116.808 44.6696 116.672 44.6279C116.513 44.5793 116.367 44.4937 116.248 44.3781C116.106 44.2381 115.995 44.0692 115.924 43.8829C115.829 43.6241 115.785 43.3495 115.794 43.0741C115.788 42.8238 115.817 42.5739 115.878 42.3312H115.881Z" fill="white"/>
<path d="M124.811 41.69C124.642 41.5113 124.438 41.3696 124.211 41.2737C123.958 41.1696 123.687 41.1181 123.413 41.1223C123.163 41.1207 122.914 41.1624 122.678 41.2456C122.458 41.3218 122.254 41.44 122.079 41.5938C121.906 41.749 121.766 41.9382 121.669 42.1495C121.563 42.3809 121.507 42.6323 121.506 42.887H120.893V41.2121H120.266V44.9068H120.893V43.1357H121.506C121.523 43.3615 121.577 43.5831 121.665 43.792C121.755 44.0113 121.883 44.2133 122.042 44.3889C122.207 44.5691 122.405 44.716 122.626 44.8214C122.872 44.9368 123.141 44.9941 123.413 44.989C123.69 44.9936 123.965 44.9421 124.222 44.8376C124.45 44.7435 124.655 44.6011 124.822 44.4202C124.987 44.2391 125.114 44.027 125.196 43.7963C125.286 43.547 125.33 43.2837 125.327 43.0189C125.328 42.7715 125.283 42.526 125.193 42.2955C125.106 42.0708 124.977 41.8651 124.811 41.69ZM124.564 43.6071C124.529 43.7963 124.464 43.9789 124.372 44.1477C124.284 44.3078 124.157 44.4434 124.004 44.5424C123.827 44.6482 123.623 44.7004 123.416 44.6927C123.276 44.6917 123.137 44.6695 123.003 44.6267C122.854 44.578 122.719 44.4912 122.613 44.3748C122.481 44.2259 122.381 44.051 122.321 43.8612C122.236 43.5887 122.197 43.3041 122.205 43.0189C122.193 42.7094 122.238 42.4003 122.338 42.1074C122.405 41.9236 122.516 41.7595 122.663 41.6305C122.775 41.5352 122.911 41.4721 123.056 41.4478C123.176 41.4286 123.297 41.4181 123.418 41.4164C123.557 41.4175 123.697 41.4364 123.832 41.4726C123.979 41.5139 124.113 41.5916 124.222 41.6986C124.355 41.8358 124.454 42.0025 124.511 42.1852C124.591 42.453 124.628 42.7319 124.619 43.0113C124.619 43.2112 124.6 43.4106 124.564 43.6071Z" fill="white"/>
<path d="M130.153 43.0633C130.157 42.7917 130.114 42.5214 130.027 42.2643C129.949 42.0402 129.829 41.8329 129.674 41.6533C129.525 41.484 129.341 41.3497 129.134 41.2597C128.92 41.1665 128.689 41.1197 128.456 41.1224C127.869 41.1224 127.484 41.3499 127.301 41.8047H127.272V41.2057H126.645V46.7538H127.272V44.3003H127.301C127.343 44.4204 127.41 44.5307 127.496 44.6247C127.575 44.7128 127.669 44.786 127.773 44.841C127.876 44.8945 127.985 44.9342 128.098 44.9588C128.444 45.0327 128.804 44.9979 129.129 44.8593C129.335 44.771 129.52 44.639 129.67 44.4722C129.827 44.2948 129.947 44.0878 130.022 43.8635C130.112 43.6063 130.156 43.3356 130.153 43.0633ZM129.357 43.7683C129.307 43.9449 129.222 44.1097 129.107 44.2527C129.009 44.3726 128.883 44.4665 128.74 44.5263C128.603 44.5825 128.456 44.6115 128.308 44.6117C128.17 44.6121 128.035 44.5821 127.911 44.5239C127.787 44.4658 127.677 44.3809 127.59 44.2754C127.491 44.1557 127.415 44.0191 127.365 43.8721C127.305 43.6983 127.276 43.5153 127.279 43.3315V42.6827C127.278 42.5248 127.305 42.3678 127.357 42.2188C127.404 42.0799 127.478 41.9514 127.573 41.8404C127.664 41.7363 127.774 41.6511 127.898 41.5895C128.024 41.5277 128.162 41.4958 128.302 41.4965C128.453 41.4968 128.602 41.5258 128.741 41.582C128.884 41.6395 129.009 41.7321 129.107 41.8512C129.22 41.9935 129.305 42.1571 129.354 42.3324C129.42 42.5641 129.451 42.8042 129.446 43.0449C129.452 43.2891 129.423 43.5329 129.357 43.7683Z" fill="white"/>
<path d="M134.571 41.7084C134.401 41.5284 134.197 41.3836 133.971 41.2823C133.723 41.1726 133.455 41.118 133.184 41.1223C132.908 41.1181 132.634 41.1726 132.381 41.2823C132.152 41.3822 131.946 41.5271 131.775 41.7084C131.609 41.8878 131.478 42.0973 131.39 42.3258C131.208 42.7958 131.208 43.3166 131.39 43.7866C131.478 44.0154 131.609 44.2253 131.775 44.4051C131.945 44.5874 132.152 44.7324 132.381 44.8311C132.634 44.9399 132.908 44.9941 133.184 44.9901C133.454 44.9942 133.723 44.9411 133.971 44.8344C134.198 44.7369 134.403 44.5933 134.571 44.4127C134.738 44.2339 134.868 44.0237 134.953 43.7942C135.129 43.3205 135.129 42.7994 134.953 42.3258C134.868 42.0965 134.739 41.8865 134.571 41.7084ZM134.27 43.8915C134.212 44.0776 134.113 44.2483 133.981 44.391C133.873 44.5028 133.738 44.5854 133.589 44.6311C133.32 44.7147 133.032 44.7147 132.763 44.6311C132.613 44.5848 132.477 44.5024 132.367 44.391C132.231 44.2495 132.129 44.0785 132.07 43.8915C131.919 43.3456 131.919 42.7689 132.07 42.2231C132.13 42.0363 132.231 41.8655 132.367 41.7235C132.476 41.6108 132.613 41.5276 132.763 41.4813C133.032 41.3962 133.321 41.3962 133.589 41.4813C133.739 41.5269 133.873 41.6104 133.981 41.7235C134.113 41.8665 134.212 42.0372 134.27 42.2231C134.42 42.7691 134.42 43.3454 134.27 43.8915Z" fill="white"/>
<path d="M61.2785 49.2178H60.9066L58.1352 52.1297V49.2178H57.4648V54.3917H58.1352V52.5741L58.9722 51.6788L60.9358 54.3917H61.7035L59.3982 51.2203L61.2785 49.2178Z" fill="white"/>
<path d="M65.5316 51.163C65.4282 50.9899 65.2753 50.8517 65.0926 50.7662C64.8238 50.6516 64.5324 50.5999 64.2405 50.6148C64.0548 50.6117 63.8694 50.6302 63.688 50.67C63.5508 50.702 63.418 50.7503 63.2922 50.8138C63.1893 50.8664 63.0945 50.9338 63.0111 51.0138C62.9354 51.0873 62.863 51.162 62.7949 51.2366L63.1766 51.6161C63.2396 51.5106 63.3085 51.4088 63.3831 51.3112C63.4475 51.2253 63.5235 51.1489 63.6091 51.0841C63.6931 51.0212 63.787 50.9726 63.8869 50.9403C64.0045 50.9038 64.1272 50.8863 64.2503 50.8884C64.5703 50.8884 64.7905 50.9868 64.9109 51.1836C65.0313 51.3804 65.0919 51.6799 65.0926 52.0821V52.3979C64.9601 52.2385 64.7914 52.1132 64.6006 52.0324C64.401 51.946 64.1856 51.9018 63.968 51.9026C63.7654 51.8988 63.5643 51.939 63.3788 52.0205C63.2153 52.0925 63.0681 52.197 62.9462 52.3276C62.8309 52.4503 62.7412 52.5947 62.6824 52.7525C62.5669 53.0509 62.5642 53.3811 62.6748 53.6813C62.7284 53.829 62.8107 53.9646 62.917 54.0803C63.0308 54.2034 63.1684 54.302 63.3214 54.3701C63.4973 54.4464 63.6877 54.4833 63.8794 54.4782C64.1073 54.4771 64.3332 54.4354 64.5465 54.355C64.7504 54.2847 64.9371 54.1723 65.0947 54.0252V54.3885H65.7219V52.3752C65.7219 52.1531 65.7143 51.9369 65.6992 51.7264C65.6866 51.5283 65.6293 51.3357 65.5316 51.163ZM65.0926 53.4975C65.0486 53.5962 64.9911 53.6883 64.9217 53.7711C64.8542 53.8532 64.776 53.9259 64.6893 53.9873C64.6054 54.0484 64.5133 54.0972 64.4157 54.1322C64.3243 54.166 64.2277 54.1835 64.1302 54.1841C63.9054 54.1802 63.6898 54.0945 63.5236 53.943C63.4343 53.8589 63.361 53.7593 63.3074 53.6489C63.2482 53.5206 63.2193 53.3804 63.223 53.2391C63.2221 53.1074 63.2448 52.9767 63.2901 52.8531C63.3312 52.7338 63.3951 52.6236 63.4782 52.5287C63.5615 52.4348 63.6636 52.3593 63.7777 52.307C63.9004 52.2491 64.0346 52.2199 64.1702 52.2216C64.2986 52.2181 64.426 52.2448 64.5422 52.2995C64.6404 52.3474 64.7303 52.411 64.8082 52.4876C64.8778 52.5553 64.9384 52.6316 64.9888 52.7147C65.0298 52.7811 65.066 52.8505 65.0969 52.9223L65.0926 53.4975Z" fill="white"/>
<path d="M70.2661 51.1448C70.117 50.9755 69.9324 50.8411 69.7254 50.7512C69.5117 50.658 69.2806 50.6112 69.0475 50.6139C68.4607 50.6139 68.0758 50.8413 67.8927 51.2962H67.8635V50.6971H67.2363V56.2452H67.8635V53.7929H67.8927C67.9352 53.9129 68.0014 54.0232 68.0873 54.1172C68.1666 54.205 68.2606 54.2782 68.3652 54.3335C68.4676 54.3871 68.5767 54.4267 68.6896 54.4514C69.0355 54.5252 69.3957 54.4905 69.7211 54.3519C69.927 54.2632 70.1115 54.1312 70.2618 53.9648C70.4185 53.7873 70.5384 53.5803 70.6143 53.356C70.7829 52.8385 70.7829 52.2808 70.6143 51.7633C70.5388 51.5368 70.4206 51.3268 70.2661 51.1448ZM69.9493 53.2598C69.8989 53.4364 69.8136 53.6011 69.6984 53.7442C69.6002 53.8637 69.4744 53.9576 69.3319 54.0178C69.1945 54.0736 69.0476 54.1023 68.8993 54.1021C68.7622 54.103 68.6265 54.0733 68.5023 54.0151C68.3781 53.957 68.2685 53.8718 68.1814 53.7658C68.0824 53.6462 68.0062 53.5095 67.9565 53.3625C67.8967 53.1887 67.8678 53.0057 67.871 52.8219V52.1785C67.8701 52.0202 67.8965 51.8629 67.9489 51.7135C67.9959 51.575 68.0693 51.4468 68.1651 51.3362C68.256 51.2321 68.3662 51.1465 68.4895 51.0842C68.6156 51.0232 68.7539 50.9918 68.8939 50.9923C69.0444 50.992 69.1935 51.021 69.3329 51.0778C69.4755 51.1353 69.6012 51.2279 69.6984 51.347C69.8121 51.4893 69.8963 51.6529 69.946 51.8282C70.0121 52.0598 70.0431 52.2999 70.0379 52.5407C70.0445 52.7839 70.0146 53.0266 69.9493 53.2609V53.2598Z" fill="white"/>
<path d="M72.6985 53.9559V50.698H72.0703V54.3917H72.811L74.6935 51.1554V54.3917H75.3217V50.698H74.5821L72.6985 53.9559Z" fill="white"/>
<path d="M79.3678 52.3751H77.4982V50.698H76.8711V54.3917H77.4982V52.6281H79.3678V54.3917H79.9949V50.698H79.3678V52.3751Z" fill="white"/>
<path d="M83.9817 52.5212C83.8244 52.455 83.6576 52.4141 83.4875 52.4001C83.3156 52.3861 83.1707 52.3785 83.055 52.3785H82.1673V50.7014H81.5391V54.3886H83.4854C83.6197 54.3884 83.753 54.3661 83.88 54.3226C84.0066 54.2803 84.1237 54.2138 84.225 54.1269C84.3238 54.0402 84.405 53.9352 84.4639 53.8177C84.5272 53.6916 84.5591 53.5521 84.5569 53.4111C84.5691 53.2029 84.5104 52.9967 84.3904 52.8261C84.2829 52.6908 84.1421 52.5857 83.9817 52.5212ZM83.6573 53.9442C83.5139 54.0591 83.335 54.1207 83.1513 54.1183H82.1781V52.6283H83.0258C83.0691 52.6283 83.134 52.6283 83.2334 52.6423C83.3343 52.6536 83.4317 52.6852 83.52 52.7353C83.6223 52.793 83.7094 52.8741 83.7741 52.9721C83.8544 53.1078 83.8921 53.2645 83.8822 53.4219C83.8888 53.5203 83.8722 53.6188 83.8337 53.7095C83.7952 53.8002 83.7359 53.8806 83.6605 53.9442H83.6573Z" fill="white"/>
<path d="M85.9635 50.698H85.332V54.3927H85.9635V50.698Z" fill="white"/>
<path d="M90.7617 54.3917H91.4321V49.6254H94.5278V54.3917H95.2026V49.2178H90.7617V54.3917Z" fill="white"/>
<path d="M99.6948 51.163C99.5908 50.9899 99.4376 50.8518 99.2547 50.7662C98.9859 50.6516 98.6945 50.5999 98.4027 50.6148C98.217 50.6117 98.0315 50.6302 97.8501 50.67C97.7127 50.7022 97.5795 50.7505 97.4533 50.8138C97.3506 50.8664 97.2563 50.9338 97.1732 51.0138C97.0975 51.0873 97.024 51.162 96.957 51.2366L97.3387 51.6161C97.4013 51.5104 97.4703 51.4086 97.5452 51.3112C97.6095 51.2256 97.6852 51.1492 97.7701 51.0841C97.8547 51.0214 97.9489 50.9728 98.0491 50.9403C98.1663 50.9038 98.2886 50.8863 98.4113 50.8884C98.7328 50.8884 98.9534 50.9868 99.073 51.1836C99.1942 51.3804 99.2536 51.6799 99.2536 52.0821V52.3979C99.1219 52.2382 98.9535 52.1128 98.7627 52.0324C98.5631 51.946 98.3477 51.9018 98.1302 51.9026C97.9275 51.8988 97.7264 51.939 97.5409 52.0205C97.3774 52.0925 97.2303 52.197 97.1084 52.3276C96.9931 52.4505 96.9031 52.5949 96.8434 52.7525C96.786 52.9042 96.7563 53.065 96.7559 53.2272C96.7561 53.3822 96.7836 53.5359 96.837 53.6813C96.8905 53.829 96.9729 53.9646 97.0792 54.0803C97.1929 54.2034 97.3305 54.302 97.4836 54.3701C97.6594 54.4464 97.8499 54.4833 98.0415 54.4782C98.2694 54.4771 98.4954 54.4354 98.7087 54.355C98.9123 54.2849 99.0987 54.1725 99.2558 54.0252V54.3885H99.884V52.3752C99.884 52.1531 99.8764 51.9369 99.8613 51.7264C99.8491 51.5284 99.7921 51.3358 99.6948 51.163ZM99.2515 53.4975C99.2083 53.5964 99.1511 53.6885 99.0817 53.7711C99.0141 53.8532 98.936 53.9259 98.8492 53.9873C98.7651 54.048 98.6731 54.0967 98.5757 54.1322C98.4842 54.166 98.3876 54.1835 98.2902 54.1841C98.184 54.1829 98.079 54.1628 97.9799 54.1247C97.8699 54.084 97.7689 54.0223 97.6825 53.943C97.5935 53.8587 97.5202 53.7591 97.4663 53.6489C97.4071 53.5206 97.3782 53.3804 97.3819 53.2391C97.381 53.1074 97.4037 52.9767 97.449 52.8531C97.49 52.734 97.5535 52.6239 97.636 52.5287C97.7197 52.4347 97.8221 52.3592 97.9366 52.307C98.0593 52.2491 98.1935 52.2199 98.3291 52.2216C98.4575 52.2183 98.5848 52.2449 98.7011 52.2995C98.7993 52.3474 98.8892 52.411 98.9671 52.4876C99.0363 52.5556 99.097 52.6319 99.1477 52.7147C99.1892 52.7809 99.2254 52.8503 99.2558 52.9223L99.2515 53.4975Z" fill="white"/>
<path d="M104.35 54.0514C104.28 54.0125 104.215 53.9665 104.155 53.9141C104.088 53.8567 104.024 53.7954 103.964 53.7303C103.902 53.6643 103.846 53.5983 103.796 53.5335L102.823 52.2705L104.325 50.7048H103.859L102.021 52.6101V50.7048H101.393V54.3888H102.021V53.0912L102.428 52.6587L103.345 53.8633C103.405 53.9379 103.466 54.0125 103.529 54.086C103.591 54.1587 103.66 54.225 103.735 54.2839C103.807 54.3421 103.888 54.3895 103.975 54.4244C104.062 54.4603 104.156 54.4784 104.25 54.4774C104.338 54.4774 104.425 54.4669 104.51 54.4461C104.594 54.4255 104.669 54.4061 104.734 54.3866V54.0968L104.525 54.1033C104.463 54.1002 104.403 54.0824 104.35 54.0514Z" fill="white"/>
<path d="M106.771 51.27C106.888 51.1486 107.03 51.0548 107.188 50.9953C107.326 50.9416 107.472 50.9127 107.62 50.9099C107.831 50.9058 108.038 50.9686 108.212 51.0894C108.368 51.1922 108.485 51.3445 108.543 51.5219H109.056C109.015 51.3573 108.934 51.2056 108.819 51.0807C108.712 50.9661 108.585 50.8713 108.444 50.8007C108.302 50.7297 108.15 50.6798 107.993 50.6526C107.841 50.626 107.688 50.6123 107.534 50.6115C107.253 50.6061 106.973 50.6576 106.713 50.7628C106.487 50.857 106.283 50.9973 106.114 51.1748C105.951 51.3499 105.826 51.5568 105.747 51.7825C105.665 52.0207 105.624 52.2711 105.625 52.5232C105.623 52.7861 105.668 53.0472 105.758 53.2941C105.842 53.5241 105.972 53.7347 106.139 53.9137C106.307 54.0911 106.51 54.2321 106.734 54.3278C106.983 54.4321 107.25 54.4836 107.519 54.4792C107.812 54.4854 108.103 54.4302 108.373 54.317C108.59 54.2237 108.797 54.1062 108.988 53.9667L108.772 53.6845C108.617 53.8149 108.443 53.921 108.257 53.9991C108.079 54.0677 107.89 54.1018 107.7 54.0997C107.525 54.1002 107.352 54.0728 107.185 54.0186C107.021 53.9646 106.871 53.8753 106.745 53.7569C106.608 53.6221 106.503 53.4574 106.439 53.2757C106.282 52.786 106.287 52.2589 106.451 51.7717C106.523 51.5848 106.632 51.4142 106.771 51.27Z" fill="white"/>
<path d="M112.887 51.1631C112.784 50.9898 112.631 50.8515 112.448 50.7662C112.179 50.6516 111.887 50.5998 111.595 50.6148C111.409 50.6117 111.224 50.6302 111.042 50.67C110.905 50.702 110.772 50.7503 110.647 50.8138C110.544 50.8667 110.449 50.934 110.365 51.0138C110.29 51.0874 110.217 51.162 110.149 51.2366L110.531 51.6161C110.594 51.5107 110.662 51.4089 110.736 51.3112C110.801 51.2256 110.877 51.1492 110.962 51.0841C111.047 51.0214 111.14 50.9728 111.24 50.9403C111.358 50.9038 111.48 50.8863 111.604 50.8884C111.924 50.8884 112.145 50.9868 112.265 51.1836C112.386 51.3804 112.446 51.6799 112.446 52.0822V52.3979C112.314 52.2382 112.145 52.1128 111.954 52.0324C111.754 51.9459 111.539 51.9017 111.321 51.9027C111.119 51.8989 110.918 51.9391 110.733 52.0205C110.57 52.093 110.423 52.1974 110.301 52.3276C110.186 52.4506 110.096 52.595 110.037 52.7525C109.923 53.0512 109.92 53.3809 110.029 53.6814C110.083 53.8291 110.166 53.9648 110.272 54.0804C110.386 54.2034 110.523 54.302 110.676 54.3701C110.852 54.4463 111.043 54.4832 111.235 54.4783C111.463 54.4772 111.689 54.4354 111.902 54.355C112.106 54.2849 112.292 54.1726 112.449 54.0252V54.3885H113.077V52.3752C113.077 52.1532 113.07 51.9369 113.055 51.7264C113.043 51.5283 112.985 51.3356 112.887 51.1631ZM112.445 53.4976C112.402 53.5964 112.344 53.6886 112.275 53.7711C112.207 53.8532 112.129 53.9259 112.041 53.9874C111.958 54.0482 111.866 54.097 111.769 54.1323C111.678 54.166 111.581 54.1835 111.484 54.1842C111.377 54.1829 111.272 54.1628 111.172 54.1247C111.063 54.0837 110.962 54.0221 110.876 53.943C110.786 53.859 110.713 53.7593 110.66 53.6489C110.6 53.5207 110.571 53.3805 110.574 53.2391C110.574 53.1075 110.596 52.9769 110.641 52.8531C110.682 52.7338 110.746 52.6236 110.829 52.5287C110.913 52.4348 111.015 52.3593 111.13 52.3071C111.252 52.2492 111.386 52.22 111.521 52.2216C111.65 52.2182 111.778 52.2448 111.894 52.2995C111.992 52.3477 112.082 52.4112 112.159 52.4876C112.229 52.5557 112.29 52.6319 112.341 52.7147C112.383 52.7809 112.419 52.8503 112.449 52.9223L112.445 53.4976Z" fill="white"/>
<path d="M119.044 54.0965H117.446V50.698H116.819V54.0965H115.224V50.698H114.596V54.3917H119.68V50.698H119.044V54.0965Z" fill="white"/>
<path d="M123.869 52.6586C123.761 52.5882 123.641 52.537 123.515 52.5072C123.402 52.4789 123.287 52.4616 123.171 52.4553V52.4055C123.272 52.3853 123.371 52.3545 123.466 52.3136C123.563 52.2723 123.652 52.2145 123.73 52.1428C123.807 52.0715 123.87 51.9864 123.916 51.8919C123.963 51.7904 123.987 51.6796 123.986 51.5675C123.984 51.482 123.971 51.397 123.948 51.3145C123.918 51.2076 123.862 51.1096 123.786 51.0291C123.683 50.9244 123.558 50.8445 123.419 50.7955C123.214 50.7248 122.997 50.6926 122.78 50.7004H121.236V54.3886H122.907C123.116 54.393 123.325 54.3645 123.525 54.3043C123.678 54.2579 123.821 54.1826 123.945 54.0826C124.046 53.9997 124.124 53.893 124.173 53.7723C124.218 53.6588 124.241 53.5376 124.24 53.4155C124.245 53.2534 124.208 53.0927 124.132 52.9494C124.07 52.8324 123.979 52.7326 123.869 52.6586ZM121.861 50.9934H122.593C122.731 50.9873 122.869 51.0129 122.996 51.068C123.085 51.1085 123.164 51.1692 123.227 51.2453C123.278 51.3087 123.315 51.3825 123.335 51.4616C123.352 51.5277 123.361 51.5956 123.362 51.6638C123.364 51.7683 123.34 51.8716 123.292 51.9644C123.245 52.051 123.181 52.1269 123.103 52.1871C123.02 52.2501 122.927 52.2977 122.828 52.3277C122.723 52.3605 122.614 52.3769 122.504 52.3763H121.861V50.9934ZM123.458 53.7971C123.385 53.8915 123.29 53.9659 123.18 54.0134C123.077 54.0569 122.968 54.0832 122.856 54.0913C122.748 54.0977 122.673 54.1021 122.626 54.1021H121.861V52.6283H122.51C122.589 52.6283 122.688 52.6283 122.81 52.6423C122.93 52.652 123.048 52.682 123.159 52.731C123.274 52.7815 123.375 52.8603 123.452 52.9602C123.539 53.084 123.582 53.2338 123.574 53.3852C123.583 53.5322 123.54 53.6777 123.454 53.7971H123.458Z" fill="white"/>
<path d="M126.205 53.9559V50.698H125.578V54.3917H126.318L128.2 51.1554V54.3917H128.828V50.698H128.089L126.205 53.9559Z" fill="white"/>
<path d="M132.056 50.6981L130.93 53.4824C130.906 53.5386 130.88 53.6013 130.851 53.6727C130.82 53.7428 130.784 53.8104 130.743 53.8749C130.706 53.9346 130.66 53.9879 130.606 54.0327C130.559 54.073 130.5 54.0956 130.438 54.0965C130.362 54.0949 130.288 54.0745 130.222 54.0371C130.159 54.0046 130.1 53.9651 130.047 53.9192L129.928 54.3096C130.06 54.4247 130.232 54.484 130.408 54.475C130.493 54.4762 130.578 54.4623 130.659 54.4339C130.739 54.4018 130.81 54.351 130.866 54.2858C130.941 54.2003 131.004 54.1059 131.056 54.0046C131.129 53.8618 131.194 53.7153 131.252 53.5656L132.1 51.4301H132.143L133.334 54.3885H133.998L132.5 50.6948L132.056 50.6981Z" fill="white"/>
<path d="M135.734 53.9559V50.698H135.105V54.3917H135.845L137.729 51.1554V54.3917H138.357V50.698H137.617L135.734 53.9559Z" fill="white"/>
</g>
<defs>
<clipPath id="clip0_2521_7">
<rect width="156" height="58.1828" fill="white"/>
</clipPath>
</defs>
</svg>
