<svg width="31" height="25" fill="none" xmlns="http://www.w3.org/2000/svg"><path d="M4.293.925v8.776h1.793V.925H4.293Zm1.09 1.517h1.743c.477 0 .853.109 1.129.326.276.21.413.527.413.953 0 .418-.137.736-.413.953C7.979 4.89 7.603 5 7.126 5H5.384v1.517h1.742c.694 0 1.283-.113 1.768-.339.493-.225.87-.547 1.128-.965.26-.426.389-.924.389-1.492 0-.577-.13-1.074-.389-1.492-.259-.418-.635-.74-1.128-.965C8.41 1.038 7.82.925 7.126.925H5.384v1.517ZM12.175.925v8.776h1.83V.925h-1.83Zm2.984 8.776c.919 0 1.721-.18 2.407-.54a3.936 3.936 0 0 0 1.617-1.516c.384-.66.577-1.438.577-2.332 0-.894-.193-1.667-.577-2.32a3.912 3.912 0 0 0-1.617-1.528c-.686-.36-1.488-.54-2.407-.54h-1.83v1.63h1.767c.384 0 .748.054 1.09.163.343.1.644.263.903.49.26.225.46.513.602.864.15.343.226.756.226 1.241 0 .485-.076.903-.226 1.254a2.254 2.254 0 0 1-.602.852c-.259.226-.56.393-.902.502-.343.1-.707.15-1.091.15h-1.768v1.63h1.83Zm7.52-7.209H26.6V.925h-3.924v1.567Zm0 3.46h3.798V4.462h-3.799v1.492ZM21.523.926v8.776h1.73V.925h-1.73Z" fill="#232323"/><path d="M.25 22.7h4.954V21.9H2.005l2.237-2.277c.274-.28.498-.598.672-.953.173-.354.26-.712.26-1.073a2.025 2.025 0 0 0-.532-1.324 1.987 1.987 0 0 0-.691-.501c-.281-.134-.615-.2-1.003-.2-.482 0-.896.106-1.244.32a2.014 2.014 0 0 0-.782.883c-.18.374-.27.812-.27 1.313h.852c0-.354.056-.658.17-.912.114-.26.278-.458.492-.592.22-.14.481-.21.782-.21.214 0 .404.036.571.11.168.073.308.17.422.29.12.121.21.255.27.402.06.147.09.297.09.451 0 .187-.03.368-.09.542a1.954 1.954 0 0 1-.25.501c-.107.16-.238.325-.391.492L.25 22.7Zm7.295-1.102-.883 2.597.582.21L8.347 21.9l-.802-.301Zm7.156-1.204c0-.468-.09-.879-.27-1.233a2.063 2.063 0 0 0-.752-.833c-.315-.2-.672-.3-1.074-.3-.173 0-.35.023-.531.07-.174.04-.345.103-.512.19l.472-1.855h2.647v-.752h-3.31l-.922 3.74c.24-.167.451-.294.632-.38.187-.094.371-.158.552-.191.187-.04.39-.06.611-.06.301 0 .569.066.803.2.24.134.428.321.561.562.14.24.21.521.21.842 0 .321-.063.602-.19.843-.12.24-.297.428-.531.561-.234.134-.518.2-.853.2-.254 0-.498-.053-.732-.16a2.402 2.402 0 0 1-.622-.43 2.571 2.571 0 0 1-.42-.573l-.723.492c.154.267.341.515.562.742.227.22.498.398.812.532.321.133.695.2 1.123.2.341 0 .659-.05.953-.15.294-.1.555-.25.782-.451.228-.201.405-.452.532-.753.127-.3.19-.652.19-1.053Zm9.15 2.307h.902l-1.203-4.965-.451 1.304.752 3.66Zm-2.407-.692.3 1.003 1.906-3.67-.1-1.605-2.106 4.272Zm.3 1.003.301-1.003-2.076-4.273-.1 1.605 1.875 3.67Zm-2.978-.311h.903l.752-3.66-.452-1.305-1.203 4.965Zm9.08-3.962c.301 0 .569.07.803.211.24.14.428.338.561.592.14.247.211.531.211.852 0 .321-.07.605-.21.853a1.54 1.54 0 0 1-.562.591c-.234.14-.502.211-.803.211-.3 0-.571-.07-.812-.21a1.646 1.646 0 0 1-.561-.592 1.697 1.697 0 0 1-.211-.853l-.803-.601c0 .661.104 1.216.311 1.664.214.448.502.786.863 1.013.361.22.765.331 1.213.331.455 0 .86-.103 1.214-.31.361-.208.645-.492.853-.853.213-.368.32-.782.32-1.244 0-.468-.107-.882-.32-1.243a2.269 2.269 0 0 0-.853-.853 2.36 2.36 0 0 0-1.213-.31v.751Zm-1.945 1.655h.36c0-.267.048-.501.141-.702.1-.207.228-.38.381-.521.16-.14.335-.248.522-.321.187-.074.368-.11.541-.11v-.753c-.287 0-.551.057-.792.17a1.733 1.733 0 0 0-.612.472 2.177 2.177 0 0 0-.4.762c-.094.295-.141.629-.141 1.003Zm-.442-.601.703.531v-1.033c0-.334.043-.669.13-1.003.087-.34.244-.645.471-.913.234-.267.559-.468.973-.601.368-.12.695-.271.983-.452.294-.18.532-.39.712-.631a1.68 1.68 0 0 0 .321-.813h-.792c-.047.24-.184.472-.412.692-.22.214-.558.398-1.012.552-.535.18-.957.441-1.264.782-.301.334-.512.742-.632 1.224a6.897 6.897 0 0 0-.18 1.665Z" fill="#858585"/></svg>